<svg height="842pt" viewBox="0 0 595.22 842" width="595.22pt" xmlns="http://www.w3.org/2000/svg" xmlns:xlink="http://www.w3.org/1999/xlink"><defs><g id="a"><path d="m4.046875.375c-.261719-.496094-.609375-.894531-1.046875-1.1875-.085938-.082031-.074219-.125.03125-.125.96875.417969 1.453125.835938 1.453125 1.25 0 .164062-.074219.25-.21875.25-.085937 0-.15625-.0625-.21875-.1875zm-.546875-4.765625v-1.34375h-2.09375v1.34375zm.515625-1.46875c.125.105469.085937.179687-.109375.21875v4.484375c-.273438.25-.40625.261719-.40625.03125v-.125h-2.09375v.25c-.273438.25-.40625.261719-.40625.03125v-5.296875l.46875.34375h1.9375l.1875-.25zm3.28125-.25c.164063.105469.125.179687-.125.21875v5.796875c0 .25-.074219.4375-.21875.5625-.125.101562-.25.164062-.375.1875-.125.019531-.1875-.03125-.1875-.15625 0-.105469-.054687-.179688-.15625-.21875l-.53125-.125c-.105469-.042969-.105469-.0859375 0-.125h.78125c.1875 0 .28125-.09375.28125-.28125v-5.953125zm-1.8125 5.015625c-.273437.25-.40625.261719-.40625.03125v-4.453125l.53125.09375c.164063.105469.125.179687-.125.21875zm-1.984375-3.109375h-2.09375v1.203125h2.09375zm0 1.390625h-2.09375v1.375h2.09375zm-1.375 2.34375c-.585938.5195312-1.179688.914062-1.78125 1.1875-.125.039062-.15625 0-.09375-.125.664062-.4375 1.207031-.96875 1.625-1.59375l.5625.375c.101562.167969 0 .21875-.3125.15625zm0 0"/></g><g id="b"><path d="m4.171875-6.421875c.1875.105469.132813.179687-.15625.21875 1.082031 1.273437 2.3125 2.078125 3.6875 2.421875-.273437.105469-.460937.261719-.5625.46875-1.4375-.738281-2.507813-1.671875-3.203125-2.796875-.917969 1.449219-2.09375 2.527344-3.53125 3.234375-.148438.042969-.179688 0-.09375-.125 1.5625-.96875 2.664062-2.160156 3.3125-3.578125zm1.46875 3.984375h-2.171875v2.90625c-.273438.25-.40625.257812-.40625.03125v-2.9375h-1.78125v-.1875h4.265625l.1875-.25.4375.3125c.125.105469.082031.179688-.125.21875v1.59375c0 .25-.074219.4375-.21875.5625-.125.1054688-.273437.1679688-.4375.1875-.125.0195312-.1875-.03125-.1875-.15625 0-.101562-.054687-.175781-.15625-.21875l-.5-.125c-.105469-.039062-.105469-.082031 0-.125h.8125c.1875 0 .28125-.09375.28125-.28125zm-3.046875-1.5h1.921875l.40625-.390625.5.359375c.125.105469.125.179688 0 .21875h-2.828125zm0 0"/></g><g id="c"><path d="m1.34375-.1875c-.105469.1054688-.21875.15625-.34375.15625s-.242188-.0507812-.34375-.15625c-.085938-.082031-.125-.1875-.125-.3125s.039062-.226562.125-.3125c.101562-.101562.21875-.15625.34375-.15625s.238281.054688.34375.15625c.082031.085938.125.1875.125.3125s-.042969.230469-.125.3125zm0 0"/></g><g id="d"><path d="m2.28125-5.453125v4.640625c0 .335938.195312.5.59375.5h.3125v.1875h-2.28125v-.1875h.28125c.394531 0 .59375-.164062.59375-.5v-3.671875c0-.1875-.105469-.28125-.3125-.28125h-.5625v-.1875h.28125c.476562 0 .800781-.164063.96875-.5zm0 0"/></g><g id="e"><path d="m1.125-5.015625c.019531-.125.0625-.125.125 0 .019531.085937.039062.1875.0625.3125h3.734375c.332031-.582031.601563-1.132813.8125-1.65625l.46875.25c.394531.1875.34375.292969-.15625.3125-.335937.398437-.667969.761719-1 1.09375h1.59375l.1875-.25.65625.65625c.164063.167969.039063.21875-.375.15625l-.6875.421875c-.125.105469-.167969.085938-.125-.0625l.4375-.734375h-5.515625c-.023438.429687-.105469.746094-.25.953125-.105469.148438-.210938.21875-.3125.21875-.1875 0-.28125-.070312-.28125-.21875 0-.082031.0625-.1875.1875-.3125.289062-.28125.4375-.660156.4375-1.140625zm2.125-1.46875c.613281.25.921875.585937.921875 1 0 .1875-.058594.28125-.171875.28125-.105469 0-.179688-.0625-.21875-.1875-.105469-.394531-.304688-.71875-.59375-.96875-.148438-.125-.125-.164063.0625-.125zm-1.65625.28125c.664062.25 1 .554687 1 .90625 0 .210937-.085938.3125-.25.3125-.0625 0-.117188-.070313-.15625-.21875-.148438-.414063-.355469-.707031-.625-.875-.0625-.082031-.054688-.125.03125-.125zm2.734375 4.390625h2.25l.46875-.46875.59375.4375c.125.105469.125.179688 0 .21875h-3.3125v1.59375c0 .25-.074219.4375-.21875.5625-.136719.125-.257813.1875-.359375.1875-.125 0-.1875-.0625-.1875-.1875 0-.085938-.054688-.15625-.15625-.21875l-.5-.09375c-.105469-.042969-.105469-.085938 0-.125h.75c.1875 0 .28125-.09375.28125-.28125v-1.4375h-3.25v-.1875h3.25v-.90625l.390625.21875.84375-.84375h-3.171875v-.1875h3.265625l.25-.25.5.5c.125.125 0 .167969-.375.125l-1.3125.78125zm0 0"/></g><g id="f"><path d="m5.046875-5.671875c.082031.167969.125.367187.125.59375 0 .167969-.074219.25-.21875.25-.125 0-.199219-.09375-.21875-.28125-.042969-.414063-.242187-.820313-.59375-1.21875-.0625-.101563-.03125-.132813.09375-.09375.414063.25.6875.5.8125.75zm-4.734375 5.078125c.539062-.851562.894531-1.6875 1.0625-2.5h-.8125v-.1875h.84375c.0625-.25.113281-.597656.15625-1.046875h-1.15625v-.1875h1.15625c.019531-.3125.03125-.664063.03125-1.0625h-.96875v-.1875h2.1875l.25-.25.34375.34375c.125.105469.082031.179687-.125.21875v.9375h.28125l.40625-.40625.484375.40625h1.15625l.78125-1.96875.53125.34375c.125.167969.050781.21875-.21875.15625l-.90625 1.46875h.78125l.40625-.40625.5.375c.125.105469.125.179687 0 .21875h-1.8125v1.328125h.625l.40625-.40625.5.375c.125.105469.125.179688 0 .21875h-1.53125v1.4375h.9375l.40625-.40625.5.375c.125.105469.125.179688 0 .21875h-1.84375v1.6875c-.273437.25-.40625.257812-.40625.03125v-1.71875h-1.453125v-.1875h1.453125v-1.4375h-1.21875v-.1875h1.21875v-1.328125h-1.984375v1.484375c-.273438.25-.40625.261719-.40625.03125v-.28125h-1.09375c-.0625.292969-.125.53125-.1875.71875l.15625.15625h1.15625l.1875-.25.4375.3125c.125.105469.082031.179688-.125.21875v1.96875c-.273438.25-.40625.257812-.40625.03125v-.25h-1.21875v.53125c-.273438.25-.40625.257812-.40625.03125v-2.375c-.210938.5625-.53125 1.054688-.96875 1.46875-.125.085938-.15625.0625-.09375-.0625zm1.6875-4.984375c0 .398437-.011719.75-.03125 1.0625h.90625v-1.0625zm-.21875 5.203125h1.21875v-1.65625h-1.21875zm1.09375-2.90625v-1.046875h-.90625c-.042969.449219-.09375.796875-.15625 1.046875zm0 0"/></g><g id="g"><path d="m7.453125-1.3125c0 .4375-.136719.773438-.40625 1-.210937.148438-.375.21875-.5.21875-.148437 0-.21875-.070312-.21875-.21875 0-.082031-.0625-.144531-.1875-.1875l-.375-.125c-.0625-.039062-.0625-.070312 0-.09375l.3125.03125c.207031.042969.394531.054688.5625.03125.125-.019531.21875-.082031.28125-.1875.0625-.164062.09375-.375.09375-.625 0-.625-.3125-1.269531-.9375-1.9375l.59375-2.015625h-1.28125v5.953125c-.273437.25-.40625.257812-.40625.03125v-6.390625l.46875.21875h1.21875l.15625-.21875.53125.375c.125.148437.050781.210937-.21875.1875l-.875 1.859375c.789063.710938 1.1875 1.40625 1.1875 2.09375zm-4.171875-.53125h-1.75v1.40625h1.75zm-1.75 1.59375v.6875c-.273438.25-.40625.257812-.40625.03125v-2.75l.46875.25h1.625l.1875-.21875.40625.28125c.125.105469.082031.179688-.125.21875v1.78125c-.273438.25-.40625.257812-.40625.03125v-.3125zm1.09375-4.921875h1l.390625-.40625.46875.375c.125.105469.125.179687 0 .21875h-4.015625v-.1875h1.75v-1.25l.53125.09375c.164062.105469.125.179687-.125.21875zm-1.5.375c.5.375.75.765625.75 1.171875 0 .230469-.074219.34375-.21875.34375-.105469 0-.167969-.101562-.1875-.3125-.042969-.46875-.179688-.835938-.40625-1.109375-.0625-.082031-.042969-.113281.0625-.09375zm-.71875 1.734375h2.375l.53125-1.703125.5625.15625c.15625.125.082031.210937-.21875.25l-.71875 1.296875h.84375l.390625-.40625.5.375c.125.105469.125.179688 0 .21875h-4.265625zm0 0"/></g><g id="h"><path d="m1.65625-6.140625.46875.28125h3.984375l.21875-.28125.5.34375c.164063.125.09375.210937-.21875.25v1.34375c-.273437.242187-.40625.25-.40625.03125v-.28125h-4.140625v1.015625h4.578125l.21875-.28125.5.34375c.164063.125.09375.210938-.21875.25v1.375c0 1.023438-.136719 1.6914062-.40625 2-.148437.164062-.324219.28125-.53125.34375-.273437.082031-.40625.050781-.40625-.09375 0-.105469-.0625-.1875-.1875-.25l-.375-.15625c-.085937-.0859375-.074219-.125.03125-.125l.65625.125c.3125.039062.53125-.1015625.65625-.4375.101563-.351562.15625-.925781.15625-1.71875v-1.1875h-4.671875c-.125 1.6875-.59375 2.878906-1.40625 3.5625-.148438.0625-.1875.03125-.125-.09375.75-.976562 1.125-2.269531 1.125-3.875zm1.5625 5.265625v.59375c-.273438.25-.40625.2617188-.40625.03125v-2.375l.46875.1875h1.484375l.1875-.25.4375.3125c.125.105469.082031.179688-.125.21875v1.5625c-.273437.25-.40625.261719-.40625.03125v-.3125zm0-1.375v1.1875h1.640625v-1.1875zm-1.15625-3.421875v1.03125h4.140625v-1.03125zm0 0"/></g><g id="i"><path d="m.5625-4.984375c-.0625-.082031-.042969-.113281.0625-.09375.226562.0625.4375.148437.625.25l.84375-1.71875.5625.375c.0625.105469-.03125.136719-.28125.09375l-1 1.34375c.226562.167969.34375.324219.34375.46875 0 .179687-.042969.265625-.125.265625-.105469 0-.179688-.035156-.21875-.109375-.148438-.289063-.417969-.582031-.8125-.875zm3.0625 3.546875c.082031.125.125.25.125.375 0 .167969-.054688.25-.15625.25-.125 0-.210938-.082031-.25-.25-.042969-.1875-.230469-.519531-.5625-1-.0625-.101562-.042969-.132812.0625-.09375.3125.167969.570312.40625.78125.71875zm3.234375 1.03125h-2.34375v.78125c-.273437.25-.40625.257812-.40625.03125v-6.140625l.46875.21875h2.1875l.1875-.25.4375.3125c.125.105469.082031.179687-.125.21875v5.109375c-.273437.246094-.40625.257812-.40625.03125zm-.96875-4.921875v2.171875h.96875v-2.171875zm-1.375 0v2.171875h.96875v-2.171875zm0 4.734375h.96875v-2.375h-.96875zm1.375 0h.96875v-2.375h-.96875zm-4.234375-1.4375c.1875.105469.132812.179688-.15625.21875-.210938.875-.53125 1.585938-.96875 2.125-.125.082031-.15625.050781-.09375-.09375.351562-.75.570312-1.5625.65625-2.4375zm1.8125-2.953125c.0625.125-.042969.167969-.3125.125l-1.375 1.859375 1.40625-.09375c-.125-.25-.261719-.445312-.40625-.59375-.0625-.082031-.03125-.101562.09375-.0625.394531.273438.65625.511719.78125.71875.0625.105469.09375.210938.09375.3125 0 .167969-.0625.25-.1875.25-.105469 0-.179688-.070312-.21875-.21875-.042969-.144531-.074219-.238281-.09375-.28125l-.8125.125v3.21875c-.273438.25-.40625.257812-.40625.03125v-3.1875l-1.0625.1875c-.125.25-.230469.292969-.3125.125l-.25-.5 1.1875-.03125 1.3125-2.359375zm0 0"/></g><g id="j"><path d="m2.5-4.734375v-.1875h.21875c.351562 0 .675781-.050781.96875-.15625.28125-.101563.472656-.25.578125-.4375h.09375v4.703125c0 .1875.039063.324219.125.40625.101563.085938.238281.125.40625.125h.625v.1875h-2.890625v-.1875h.625c.1875 0 .320312-.039062.40625-.125.082031-.082031.125-.21875.125-.40625v-3.390625c0-.125-.042969-.25-.125-.375-.0625-.101563-.179688-.15625-.34375-.15625zm0 0"/></g><g id="k"><path d="m1.59375-.15625c-.085938.0859375-.1875.125-.3125.125s-.242188-.0390625-.34375-.125c-.085938-.082031-.125-.195312-.125-.34375 0-.144531.039062-.257812.125-.34375.101562-.082031.21875-.125.34375-.125s.226562.042969.3125.125c.101562.105469.15625.21875.15625.34375 0 .148438-.054688.261719-.15625.34375zm0 0"/></g><g id="l"><path d="m3.59375-.46875h1.515625c.332031 0 .59375-.019531.78125-.0625.1875-.039062.289063-.0625.3125-.0625.125 0 .25.085938.375.25.125.167969.050781.25-.21875.25-.9375 0-1.871094 0-2.796875 0-.75 0-1.3125-.21875-1.6875-.65625-.230469-.269531-.375-.601562-.4375-1 .039062-.082031.082031-.070312.125.03125.101562.273438.257812.511719.46875.71875.351562.355469.875.53125 1.5625.53125zm1.921875-4.484375c.0625.0625.125.136719.1875.21875.101563.148437.0625.21875-.125.21875-.148437 0-.367187 0-.65625 0-.25 0-.480469.03125-.6875.09375-.40625.125-.859375.320313-1.359375.578125-.125.0625-.15625.042969-.09375-.0625.3125-.238281.675781-.453125 1.09375-.640625-.5-.039063-.886719-.125-1.15625-.25-.355469-.164063-.617188-.382813-.78125-.65625 0-.101563.039062-.113281.125-.03125.3125.355469.945312.53125 1.90625.53125.675781 0 1.109375-.03125 1.296875-.09375.082031-.019531.164063.011719.25.09375zm0 0"/></g><g id="m"><path d="m3.6875-5.109375c.1875.105469.359375.242187.515625.40625.144531.148437.113281.242187-.09375.28125-.511719 1.46875-1.015625 2.558594-1.515625 3.265625-.125.1875-.261719.335938-.40625.4375-.230469.167969-.386719.148438-.46875-.0625-.273438-.082031-.46875-.238281-.59375-.46875-.167969-.289062-.25-.632812-.25-1.03125 0-.832031.257812-1.503906.78125-2.015625.6875-.6875 1.515625-1.03125 2.484375-1.03125 1.039063 0 1.851563.292969 2.4375.875.414063.40625.625.921875.625 1.546875 0 .5625-.199219 1.0625-.59375 1.5-.5625.625-1.40625 1.03125-2.53125 1.21875-.074219-.039062-.074219-.082031 0-.125.9375-.226562 1.65625-.632812 2.15625-1.21875.332031-.394531.5-.863281.5-1.40625 0-.5625-.148437-1.003906-.4375-1.328125-.585937-.664063-1.453125-.945313-2.609375-.84375zm-1.46875 3.921875c.601562-.914062 1.082031-2.023438 1.4375-3.328125.0625-.25.007812-.4375-.15625-.5625-.542969.085937-1.023438.335937-1.4375.75-.542969.53125-.8125 1.164063-.8125 1.890625 0 .625.113281 1.054688.34375 1.28125.101562.105469.207031.15625.3125.15625.082031 0 .1875-.0625.3125-.1875zm0 0"/></g><g id="n"><path d="m7.203125-.1875c-.585937-.351562-1.03125-.582031-1.34375-.6875-.0625.335938-.210937.574219-.4375.71875-.210937.1484375-.492187.21875-.84375.21875-.449219 0-.777344-.1015625-.984375-.3125-.148438-.144531-.21875-.3125-.21875-.5 0-.144531.082031-.28125.25-.40625.207031-.144531.523438-.21875.953125-.21875.351563 0 .664063.03125.9375.09375 0-1.164062-.023437-2.0625-.0625-2.6875-.730469.105469-1.351563.15625-1.859375.15625-.1875 0-.34375-.050781-.46875-.15625-.25-.21875-.398438-.410156-.4375-.578125-.023438-.101563.007812-.125.09375-.0625.226562.355469.507812.53125.84375.53125.425781 0 1.023438-.050781 1.796875-.15625-.023437-.519531-.042969-.875-.0625-1.0625-.023437-.226563-.21875-.351563-.59375-.375-.1875 0-.199219-.039063-.03125-.125.144531-.0625.3125-.082031.5-.0625.207031.023437.40625.09375.59375.21875.082031.0625.070313.148437-.03125.25-.042969.042969-.0625.148437-.0625.3125 0 .230469.007813.492187.03125.78125.625-.082031.96875-.144531 1.03125-.1875.101563-.0625.207031-.0625.3125 0 .101563.0625.175781.117187.21875.15625.0625.085937.03125.136719-.09375.15625-.5.085937-.980469.140625-1.4375.171875.0625.980469.09375 1.90625.09375 2.78125.457031.167969.90625.335938 1.34375.5.101563.042969.164063.105469.1875.1875.039063.125.050781.21875.03125.28125-.042969.125-.125.148438-.25.0625zm-5.203125-4.890625c.082031.085937.082031.167969 0 .25-.042969.042969-.09375.15625-.15625.34375-.417969 1.179687-.625 2.089844-.625 2.734375 0 .355469.019531.5625.0625.625.039062.0625.082031.054688.125-.03125.226562-.582031.46875-1.125.71875-1.625.101562-.019531.132812.011719.09375.09375-.210938.480469-.375.960938-.5 1.4375-.0625.25-.09375.449219-.09375.59375 0 .230469.007812.460938.03125.6875.019531.207031-.054688.3125-.21875.3125-.105469 0-.1875-.09375-.25-.28125-.167969-.5-.242188-1.144531-.21875-1.9375.019531-.851562.164062-1.742188.4375-2.671875.039062-.144531.0625-.3125.0625-.5 0-.207031-.125-.363281-.375-.46875-.105469-.039063-.105469-.070313 0-.09375.1875 0 .34375.042969.46875.125.0625.042969.207031.179687.4375.40625zm3.484375 4.109375c-.3125-.125-.636719-.1875-.96875-.1875-.40625 0-.683594.074219-.828125.21875-.0625.0625-.09375.136719-.09375.21875 0 .125.03125.21875.09375.28125.1875.1875.453125.28125.796875.28125.332031 0 .5625-.0625.6875-.1875.1875-.1875.289063-.394531.3125-.625zm0 0"/></g><g id="o"><path d="m1.53125-.125c-.125-.207031-.375-.476562-.75-.8125-.105469-.082031-.09375-.125.03125-.125.5.148438.96875.4375 1.40625.875.1875.1875.28125.375.28125.5625 0 .125-.042969.226562-.125.3125-.0625.0625-.125.09375-.1875.09375-.105469 0-.1875-.0625-.25-.1875-.105469-.1875-.242188-.429688-.40625-.71875zm0 0"/></g><g id="p"><path d="m2.59375-3.34375h-.6875c-.105469 1.855469-.625 3.117188-1.5625 3.78125-.085938.019531-.117188 0-.09375-.0625.789062-.808594 1.207031-2.125 1.25-3.9375v-1.109375h-1.21875v-.1875h1.25v-1.46875l.5625.09375c.226562.085937.175781.167969-.15625.25v1.125h.65625l.34375-.34375.4375.3125c.125.105469.125.179687 0 .21875h-1.46875v1.140625h.59375l.25-.25.40625.40625c.144531.105469.09375.167969-.15625.1875v1.03125l.78125-.3125v-1.125l.515625.09375c.164063.105469.125.179688-.125.21875v.65625l.84375-.34375v-1.328125l.53125.09375c.164063.105469.125.171875-.125.203125v.84375l.875-.375.28125-.28125.40625.40625c.144531.105469.082031.179688-.1875.21875v1.78125c0 .167969-.042969.292969-.125.375-.0625.0625-.167969.117188-.3125.15625-.125.042969-.1875 0-.1875-.125 0-.0625-.042969-.113281-.125-.15625l-.375-.09375c-.042969-.039062-.042969-.070312 0-.09375h.5c.144531 0 .21875-.070312.21875-.21875v-1.8125l-.96875.40625v2.28125c-.273437.25-.40625.261719-.40625.03125v-2.125l-.84375.34375v2.375c0 .0820312.039063.125.125.125h2.375c.207031 0 .320313-.0703125.34375-.21875l.1875-.96875c.039063-.039062.070313-.039062.09375 0v.96875c0 .1054688.039063.1757812.125.21875.144531.0625.144531.15625 0 .28125-.0625.0625-.25.09375-.5625.09375h-2.71875c-.242187 0-.359375-.125-.359375-.375v-2.34375l-.78125.3125v.25c0 .6875-.085938 1.199219-.25 1.53125-.125.2265625-.28125.382812-.46875.46875-.1875.082031-.28125.039062-.28125-.125.019531-.0859375-.03125-.15625-.15625-.21875l-.4375-.1875c-.0625-.0625-.054688-.09375.03125-.09375l.53125.125c.207031.042969.351562-.03125.4375-.21875.125-.25.1875-.6875.1875-1.3125zm3.921875-1.703125.4375-.4375.5625.40625c.125.105469.125.179687 0 .21875h-3.40625c-.261719.5625-.527344.996094-.796875 1.296875-.085938.042969-.117188.023438-.09375-.0625.457031-.863281.796875-1.828125 1.015625-2.890625l.65625.21875c.144531.125.039063.21875-.3125.28125-.148437.375-.28125.699219-.40625.96875zm0 0"/></g><g id="q"><path d="m2.71875-6.078125c.207031.1875.132812.261719-.21875.21875-.605469.648437-1.292969 1.199219-2.0625 1.65625-.148438.0625-.1875.03125-.125-.09375.832031-.664063 1.507812-1.375 2.03125-2.125zm3.265625 2.296875v3.5625c0 .2460938-.074219.4375-.21875.5625-.125.101562-.25.164062-.375.1875-.125.019531-.1875-.03125-.1875-.15625 0-.105469-.054687-.179688-.15625-.21875l-.5625-.125c-.105469-.0390625-.105469-.0820312 0-.125h.8125c.1875 0 .28125-.09375.28125-.28125v-3.40625h-2.578125v-.1875h3.703125l.375-.359375.5.328125c.125.105469.125.179688 0 .21875zm-2.890625-.734375c.101562.167969 0 .21875-.3125.15625-.230469.324219-.480469.640625-.75.953125l.1875.0625c.164062.105469.125.179688-.125.21875v3.59375c-.273438.25-.40625.257812-.40625.03125v-3.53125c-.398438.417969-.84375.773438-1.34375 1.0625-.105469 0-.125-.039062-.0625-.125.851562-.664062 1.632812-1.597656 2.34375-2.796875zm.46875-1.15625h2.703125l.34375-.34375.4375.3125c.125.105469.125.179687 0 .21875h-3.484375zm0 0"/></g><g id="r"><path d="m1.3125-1.625c0-.164062.082031-.320312.25-.46875.144531-.125 1.117188-1.179688 2.921875-3.171875.0625-.039063.039063-.070313-.0625-.09375-.492187.085937-.984375.210937-1.484375.375-.148438.085937-.261719.125-.34375.125-.042969 0-.148438-.0625-.3125-.1875-.210938-.164063-.324219-.351563-.34375-.5625 0-.101563.039062-.113281.125-.03125.125.1875.332031.28125.625.28125.269531 0 .4375-.007813.5-.03125.414062-.0625.816406-.132813 1.203125-.21875.207031-.039063.363281-.101563.46875-.1875.039063-.0625.09375-.09375.15625-.09375.101563 0 .21875.054687.34375.15625.101563.085937.15625.15625.15625.21875 0 .042969-.09375.09375-.28125.15625-.230469.105469-.945313.789063-2.140625 2.046875-.0625.105469-.03125.125.09375.0625.4375-.164062.878906-.25 1.328125-.25.6875 0 1.238281.210938 1.65625.625.289063.292969.4375.679688.4375 1.15625 0 .5625-.167969 1.011719-.5 1.34375-.5.496094-1.203125.75-2.109375.75-.585938 0-.992188-.117188-1.21875-.34375-.1875-.1875-.28125-.375-.28125-.5625 0-.164062.0625-.3125.1875-.4375.144531-.144531.363281-.21875.65625-.21875.351562 0 .671875.148438.953125.4375.1875.1875.3125.449219.375.78125.394531-.0820312.738281-.269531 1.03125-.5625.3125-.3125.46875-.6875.46875-1.125 0-.476562-.148437-.863281-.4375-1.15625-.335937-.332031-.804687-.5-1.40625-.5-.65625 0-1.328125.34375-2.015625 1.03125-.273438.273438-.492188.542969-.65625.8125-.042969.085938-.117188.125-.21875.125-.085938 0-.125-.09375-.125-.28125zm2.859375 1.75c-.023437-.371094-.121094-.65625-.296875-.84375-.167969-.164062-.367188-.25-.59375-.25-.375 0-.5625.148438-.5625.4375 0 .125.0625.25.1875.375.1875.1835938.609375.28125 1.265625.28125zm0 0"/></g><g id="s"><path d="m2-.90625c.1875.1875.28125.429688.28125.71875s-.09375.53125-.28125.71875-.429688.28125-.71875.28125c-.292969 0-.53125-.09375-.71875-.28125s-.28125-.429688-.28125-.71875.09375-.53125.28125-.71875.425781-.28125.71875-.28125c.289062 0 .53125.09375.71875.28125zm-.15625 1.28125c.144531-.148438.21875-.3359375.21875-.5625 0-.226562-.074219-.414062-.21875-.5625-.148438-.144531-.335938-.21875-.5625-.21875-.230469 0-.417969.074219-.5625.21875-.148438.148438-.21875.335938-.21875.5625 0 .2265625.070312.414062.21875.5625.144531.144531.332031.21875.5625.21875.226562 0 .414062-.074219.5625-.21875zm0 0"/></g><g id="t"><path d="m3.25-1.40625h-1.78125v1.84375c-.273438.25-.40625.257812-.40625.03125v-4.640625l.46875.203125h1.625l.1875-.234375.4375.296875c.125.105469.082031.179688-.125.21875v3.59375c0 .226562-.074219.40625-.21875.53125-.085938.082031-.1875.125-.3125.125-.085938 0-.125-.054688-.125-.15625 0-.105469-.0625-.179688-.1875-.21875l-.40625-.0625c-.085938-.0429688-.085938-.0859375 0-.125h.625c.144531 0 .21875-.0703125.21875-.21875zm3.671875 1.3125c0 .226562-.074219.40625-.21875.53125-.085937.082031-.1875.125-.3125.125-.085937 0-.125-.054688-.125-.15625 0-.105469-.0625-.179688-.1875-.21875l-.4375-.0625c-.085937-.0429688-.085937-.0859375 0-.125h.65625c.144531 0 .21875-.0703125.21875-.21875v-3.984375l.53125.09375c.164063.09375.125.164063-.125.203125zm-1.03125-6.078125c.101563.167969 0 .21875-.3125.15625l-.75 1.09375h1.84375l.40625-.40625.5.375c.125.105469.125.179687 0 .21875h-7.109375v-.1875h4.171875l.65625-1.625zm-3.203125.78125c-.148438-.3125-.375-.570313-.6875-.78125-.085938-.082031-.0625-.113281.0625-.09375.4375.167969.738281.335937.90625.5.144531.148437.21875.292969.21875.4375 0 .167969-.074219.25-.21875.25-.085938 0-.179688-.101563-.28125-.3125zm2.640625 1.484375c.164063.105469.125.179688-.125.21875v3.09375c-.273437.25-.40625.261719-.40625.03125v-3.4375zm-2.078125 1.125v-1h-1.78125v1zm0 1.1875v-1h-1.78125v1zm0 0"/></g><g id="u"><path d="m4.984375-.78125h.96875c.332031 0 .59375-.039062.78125-.125.207031-.082031.375-.019531.5.1875.082031.148438.03125.230469-.15625.25-.167969.023438-.417969.03125-.75.03125-.417969 0-.835937 0-1.25 0-.667969 0-1.132813-.132812-1.390625-.40625-.273438-.269531-.40625-.601562-.40625-1 0-.125.007812-.289062.03125-.5.039062-.082031.082031-.082031.125 0 .019531.585938.125.96875.3125 1.15625.257812.273438.671875.40625 1.234375.40625zm1.4375-3.859375c-.6875 0-1.40625.339844-2.15625 1.015625-.085937.0625-.117187.042969-.09375-.0625.226563-.320312.519531-.597656.875-.828125.082031-.0625.070313-.09375-.03125-.09375-.667969.042969-1.195313-.0625-1.578125-.3125-.105469-.082031-.085938-.113281.0625-.09375.34375.085937.640625.125.890625.125.582031 0 1.15625-.0625 1.71875-.1875.25-.0625.414063-.019531.5.125.125.210937.0625.3125-.1875.3125zm-4.203125 1.796875c.101562-.019531.132812.011719.09375.09375-.167969.335938-.324219.824219-.46875 1.46875-.085938.355469-.085938.648438 0 .875.101562.292969.132812.4882812.09375.59375-.0625.125-.15625.144531-.28125.0625-.398438-.2695312-.59375-.976562-.59375-2.125 0-.769531.113281-1.671875.34375-2.703125.039062-.1875.0625-.414063.0625-.6875 0-.269531-.105469-.4375-.3125-.5-.105469-.082031-.085938-.125.0625-.125.3125.085937.550781.261719.71875.53125.039062.0625.039062.15625 0 .28125-.25.71875-.398438 1.183594-.4375 1.390625-.125.542969-.1875 1.023438-.1875 1.4375 0 .417969.03125.75.09375 1 .039062.0625.082031.0625.125 0 .226562-.707031.457031-1.238281.6875-1.59375zm0 0"/></g><g id="v"><path d="m1.203125-3.875v.390625h7.59375v-.390625zm0 0"/></g></defs><path d="m4.953125-1.9375c-.042969-.351562-.25-.675781-.625-.96875-.0625-.082031-.042969-.113281.0625-.09375.644531.25.96875.585938.96875 1 0 .1875-.074219.28125-.21875.28125-.105469 0-.167969-.070312-.1875-.21875zm-2.359375-.96875c.726562-1.03125 1.242188-2.148438 1.546875-3.359375l.5.25c.1875.085937.125.167969-.1875.25-.230469.5-.476563 1-.734375 1.5l.296875.15625h2.1875v-2.1875l.53125.09375c.164063.105469.125.179687-.125.21875v1.875h.15625l.40625-.40625.5.375c.125.09375.125.164063 0 .203125h-1.0625v3.875c0 .226562-.074219.40625-.21875.53125-.085937.082031-.1875.125-.3125.125-.085937 0-.125-.042969-.125-.125 0-.105469-.0625-.179688-.1875-.21875l-.40625-.09375c-.085937-.042969-.085937-.0859375 0-.125h.625c.144531 0 .21875-.0703125.21875-.21875v-3.75h-2.234375v4.4375c-.273438.25-.40625.257812-.40625.03125v-4.46875c-.3125.460938-.617188.835938-.90625 1.125.0625.210938.09375.460938.09375.75 0 .355469-.054688.617188-.15625.78125-.148438.25-.34375.375-.59375.375-.085938 0-.15625-.070312-.21875-.21875-.085938-.082031-.167969-.132812-.25-.15625l-.25-.09375c-.085938-.0625-.074219-.101562.03125-.125l.3125.0625c.101562.023438.226562.03125.375.03125.101562 0 .195312-.070312.28125-.21875.0625-.101562.09375-.257812.09375-.46875 0-.226562-.042969-.476562-.125-.75-.085938-.269531-.28125-.625-.59375-1.0625l.53125-1.640625h-1.09375v6.109375c-.273438.25-.40625.257812-.40625.03125v-6.609375l.46875.28125h.96875l.25-.25.40625.40625c.164062.148437.09375.210937-.21875.1875l-.75 1.484375c.351562.292969.613281.625.78125 1zm0 0" transform="translate(72.72 46.2623)"/><use x="88.691172" xlink:href="#a" y="46.2623"/><path d="m7.515625-6.328125c-.960937.9375-1.4375 2.089844-1.4375 3.453125 0 1.375.476563 2.535156 1.4375 3.46875l-.15625.15625c-1.148437-.957031-1.71875-2.164062-1.71875-3.625 0-1.445312.570313-2.648438 1.71875-3.609375zm0 0" transform="translate(96.682344 46.2623)"/><use x="104.722194" xlink:href="#b" y="46.2623"/><path d="m.9375-2.84375c.394531-.4375.800781-.65625 1.21875-.65625.3125 0 .59375.125.84375.375.332031.335938.5.761719.5 1.28125 0 .523438-.179688.949219-.53125 1.28125-.292969.292969-.679688.4375-1.15625.4375-.398438 0-.71875-.113281-.96875-.34375-.25-.226562-.375-.488281-.375-.78125 0-.144531.039062-.257812.125-.34375.082031-.082031.175781-.125.28125-.125.082031 0 .15625.03125.21875.09375s.09375.148438.09375.25c0 .125-.03125.21875-.09375.28125-.0625.085938-.09375.167969-.09375.25 0 .105469.050781.210938.15625.3125.144531.125.375.1875.6875.1875s.5625-.09375.75-.28125c.25-.226562.375-.613281.375-1.15625 0-.519531-.125-.90625-.375-1.15625-.167969-.164062-.367188-.25-.59375-.25-.355469 0-.699219.230469-1.03125.6875l-.28125-.03125.15625-2.921875h2.5625l-.09375.46875h-2.25zm0 0" transform="translate(114.682032 46.2623)"/><use x="118.683204" xlink:href="#c" y="46.2623"/><use x="122.684376" xlink:href="#d" y="46.2623"/><path d="m1.875-2.28125c.6875-.664062 1.03125-1.265625 1.03125-1.796875 0-.414063-.105469-.71875-.3125-.90625-.167969-.164063-.398438-.25-.6875-.25-.292969 0-.53125.085937-.71875.25-.125.125-.1875.28125-.1875.46875 0 .125.039062.230469.125.3125.0625.0625.09375.140625.09375.234375 0 .210938-.105469.3125-.3125.3125-.125 0-.21875-.03125-.28125-.09375-.085938-.082031-.125-.203125-.125-.359375 0-.375.113281-.675781.34375-.90625.3125-.289063.6875-.4375 1.125-.4375.476562 0 .84375.125 1.09375.375s.375.5625.375.9375c0 .46875-.242188.933594-.71875 1.390625-1.210938 1.167969-1.867188 1.886719-1.96875 2.15625h1.84375c.375 0 .613281-.289062.71875-.875h.1875l-.1875 1.34375h-2.90625v-.40625c.1875-.394531.675781-.976562 1.46875-1.75zm0 0" transform="translate(126.685548 46.2623)"/><use x="130.68672" xlink:href="#c" y="46.2623"/><use x="134.687892" xlink:href="#d" y="46.2623"/><path d="m2.3125-3c.332031.105469.582031.242188.75.40625.289062.292969.4375.617188.4375.96875 0 .417969-.15625.773438-.46875 1.0625-.292969.292969-.6875.4375-1.1875.4375-.4375 0-.78125-.113281-1.03125-.34375-.230469-.207031-.34375-.4375-.34375-.6875 0-.144531.039062-.257812.125-.34375.082031-.082031.164062-.125.25-.125.082031 0 .15625.03125.21875.09375.082031.085938.125.179688.125.28125 0 .0625-.011719.125-.03125.1875-.0625.085938-.09375.179688-.09375.28125 0 .085938.039062.167969.125.25.144531.125.351562.1875.625.1875.332031 0 .59375-.09375.78125-.28125.226562-.207031.34375-.5625.34375-1.0625 0-.375-.105469-.664062-.3125-.875-.210938-.207031-.574219-.3125-1.09375-.3125v-.21875c.8125 0 1.21875-.347656 1.21875-1.046875 0-.351563-.09375-.632813-.28125-.84375-.167969-.164063-.398438-.25-.6875-.25-.230469 0-.4375.085937-.625.25-.0625.0625-.09375.136719-.09375.21875 0 .125.019531.210937.0625.25.039062.0625.0625.136719.0625.21875 0 .21875-.09375.328125-.28125.328125-.085938 0-.15625-.023438-.21875-.078125-.085938-.082031-.125-.195313-.125-.34375 0-.269531.09375-.5.28125-.6875.269531-.25.625-.375 1.0625-.375.414062 0 .75.125 1 .375s.375.53125.375.84375c0 .59375-.324219 1.007813-.96875 1.234375zm0 0" transform="translate(138.689064 46.2623)"/><path d="m6.796875-.125.46875-.46875.5625.4375c.082031.1054688.050781.1757812-.09375.21875h-5.046875v-.1875h2.203125v-3.4375h-1.734375v-.1875h1.734375v-2.578125l.5625.09375c.226563.042969.175781.125-.15625.25v2.234375h1.25l.40625-.390625.5.359375c.125.105469.125.179688 0 .21875h-2.15625v3.4375zm-3.703125-4.578125c-.292969.375-.625.789063-1 1.234375v.375c.851562.210938 1.28125.5 1.28125.875 0 .148438-.054688.21875-.15625.21875-.085938 0-.167969-.050781-.25-.15625-.1875-.289062-.480469-.550781-.875-.78125v3.46875c-.273438.25-.40625.257812-.40625.03125v-3.59375c-.523438.523438-.980469.898438-1.375 1.125-.085938 0-.105469-.03125-.0625-.09375.914062-.789062 1.707031-1.734375 2.375-2.828125h-2.03125v-.1875h1.09375v-1.4375l.53125.09375c.164062.0625.125.136719-.125.21875v1.125h.46875l.34375-.34375.5.5c.125.148437.019531.199219-.3125.15625zm0 0" transform="translate(154.652256 46.2623)"/><path d="m.40625-3.28125c1.375-.78125 2.476562-1.859375 3.3125-3.234375l.671875.28125c.101563.167969 0 .21875-.3125.15625.789063 1.023437 1.957031 1.808594 3.5 2.359375-.25.085938-.4375.230469-.5625.4375-1.375-.695312-2.390625-1.609375-3.046875-2.734375-1.1875 1.492187-2.367188 2.445313-3.53125 2.859375-.105469 0-.117188-.039062-.03125-.125zm5.328125 2.90625c-.273437-.269531-.574219-.53125-.90625-.78125-.105469-.082031-.085937-.113281.0625-.09375.539063.210938 1.007813.480469 1.40625.8125.289063.25.4375.5078125.4375.78125 0 .207031-.074219.3125-.21875.3125-.105469 0-.199219-.09375-.28125-.28125-.0625-.148438-.1875-.3476562-.375-.59375l-4.234375.4375c-.125.394531-.242188.46875-.34375.21875l-.3125-.59375 1.4375-.03125.625-1.78125h-2.5625v-.1875h5.796875l.40625-.40625.5.375c.125.105469.125.179688 0 .21875h-3.609375l-.9375 1.75zm-3.765625-3.25h2.796875l.34375-.34375.4375.3125c.125.105469.125.179688 0 .21875h-3.578125zm0 0" transform="translate(162.643428 46.2623)"/><path d="m4.484375-3.40625c.144531.148438.21875.324219.21875.53125 0 .210938-.0625.375-.1875.5-.148437.148438-.320313.21875-.515625.21875-.210938 0-.375-.0625-.5-.1875-.148438-.144531-.21875-.320312-.21875-.53125 0-.207031.0625-.375.1875-.5.144531-.144531.320312-.21875.53125-.21875.195312 0 .359375.0625.484375.1875zm0 0" transform="translate(170.6346 46.2623)"/><path d="m1.34375-5.921875h5.265625l.21875-.28125.5.34375c.164063.125.09375.210937-.21875.25v6.078125c-.273437.25-.40625.257812-.40625.03125v-.3125h-5.421875v.40625c-.273438.25-.40625.257812-.40625.03125v-6.859375zm.5 4.921875v-.1875h1.78125v-1.8125h-1.40625v-.1875h1.40625v-1.421875h-1.71875v-.1875h3.390625l.34375-.34375.4375.3125c.125.105469.125.179687 0 .21875h-2.0625v1.421875h1.03125l.3125-.3125.4375.34375c.0625.085938.039063.136719-.0625.15625h-1.71875v1.8125h1.5l.40625-.40625.5.375c.125.105469.125.179688 0 .21875zm3.203125-.75c-.1875-.3125-.398437-.539062-.625-.6875-.0625-.0625-.042969-.09375.0625-.09375.625.167969.9375.40625.9375.71875 0 .167969-.054687.25-.15625.25-.085937 0-.15625-.0625-.21875-.1875zm-3.765625 1.75h5.421875v-5.734375h-5.421875zm0 0" transform="translate(178.625772 46.2623)"/><path d="m2.21875-4c.644531-.78125 1.082031-1.585938 1.3125-2.421875l.546875.1875c.039063.105469-.027344.167969-.203125.1875-.0625.125-.136719.273437-.21875.4375h.765625l.21875-.21875.46875.28125c.125.105469.050781.179687-.21875.21875-.398437 1.074219-1.164063 1.976563-2.296875 2.703125.039062.148438.0625.304688.0625.46875 0 .273438-.03125.480469-.09375.625-.0625.148438-.167969.28125-.3125.40625-.105469.085938-.230469.125-.375.125-.0625 0-.09375-.0625-.09375-.1875 0-.0625-.054688-.113281-.15625-.15625l-.375-.125c-.085938-.0625-.074219-.101562.03125-.125l.53125.09375c.082031 0 .164062-.039062.25-.125.082031-.082031.132812-.238281.15625-.46875.019531-.164062 0-.382812-.0625-.65625-.0625-.289062-.25-.65625-.5625-1.09375l.5625-1.796875h-1.03125v6.203125c-.273438.25-.40625.257812-.40625.03125v-6.671875l.46875.25h.9375l.1875-.1875.53125.28125c.125.0625.050781.125-.21875.1875l-.84375 1.640625c.394531.398438.644531.78125.75 1.15625.332031-.25.632812-.53125.90625-.84375-.148438-.0625-.242188-.175781-.28125-.34375-.042969-.15625-.148438-.316406-.3125-.484375-.230469.25-.417969.421875-.5625.515625-.105469.0625-.125.03125-.0625-.09375zm1.890625-.578125c.125-.25.238281-.53125.34375-.84375h-.890625c-.085938.148437-.15625.261719-.21875.34375.1875.023437.363281.074219.53125.15625.15625.085937.234375.199219.234375.34375zm-.359375-.0625c-.125-.164063-.273438-.289063-.4375-.375-.125.167969-.25.335937-.375.5.25.167969.414062.304687.5.40625.082031.09375.125.214844.125.359375.1875-.21875.335938-.429688.453125-.640625-.054687 0-.140625-.082031-.265625-.25zm3.390625 1.609375c-.980469-.644531-1.574219-1.710938-1.78125-3.203125l.15625-.0625c.039063.1875.09375.40625.15625.65625h1.0625l.21875-.21875.4375.3125c.164063.148437.09375.21875-.21875.21875l-.90625.9375c.351563.367187.820313.726563 1.40625 1.078125-.273437.042969-.449219.136719-.53125.28125zm-1.3125 1.53125c.476563.167969.863281.398438 1.15625.6875.3125.3125.46875.5625.46875.75 0 .183594-.054687.28125-.15625.28125-.148437 0-.28125-.1484375-.40625-.4375-.167969-.375-.542969-.769531-1.125-1.1875-.0625-.082031-.042969-.113281.0625-.09375zm-1.859375.21875c.113281.105469.03125.167969-.25.1875-.648438.710938-1.3125 1.25-2 1.625-.1875.039062-.210938-.011719-.0625-.15625.707031-.539062 1.3125-1.195312 1.8125-1.96875zm.796875-.75h-1.734375v-.1875h3.515625l.40625-.40625.5.375c.125.105469.125.179688 0 .21875h-2.28125v2.03125c0 .207031-.054687.363281-.15625.46875-.125.125-.25.1875-.375.1875-.085937 0-.125-.054688-.125-.15625 0-.125-.0625-.199219-.1875-.21875l-.390625-.0625c-.105469-.0625-.105469-.105469 0-.125h.609375c.144531 0 .21875-.0742188.21875-.21875zm-1.015625-1.09375v-.1875h1.703125l.34375-.34375.4375.3125c.125.105469.125.179688 0 .21875zm1.984375-2.328125c.125.398437.28125.71875.46875.96875.207031-.289063.414063-.613281.625-.96875zm0 0" transform="translate(186.616944 46.2623)"/><use x="194.608116" xlink:href="#e" y="46.2623"/><use x="202.599288" xlink:href="#f" y="46.2623"/><use x="210.59046" xlink:href="#g" y="46.2623"/><use x="218.63031" xlink:href="#h" y="46.2623"/><use x="226.621482" xlink:href="#i" y="46.2623"/><use x="234.612654" xlink:href="#a" y="46.2623"/><path d="m.46875-4.234375c.664062-.664063 1.132812-1.414063 1.40625-2.25l.59375.28125c.164062.105469.09375.167969-.21875.1875l-.34375.5h1.21875l.40625-.40625.484375.375c.125.105469.125.179687 0 .21875h-1.453125c.3125.292969.46875.53125.46875.71875 0 .230469-.085938.34375-.25.34375-.148438 0-.21875-.0625-.21875-.1875 0-.0625.007812-.132813.03125-.21875.019531-.1875-.042969-.40625-.1875-.65625h-.625c-.355469.460937-.761719.867187-1.21875 1.21875-.125.042969-.15625 0-.09375-.125zm4.796875-1.9375c.164063.105469.09375.167969-.21875.1875l-.3125.46875h1.71875l.46875-.46875.59375.4375c.125.105469.125.179687 0 .21875h-1.96875c.289063.273437.4375.523437.4375.75 0 .1875-.074219.28125-.21875.28125-.085937 0-.148437-.039063-.1875-.125-.023437-.0625-.03125-.175781-.03125-.34375 0-.164063-.074219-.351563-.21875-.5625h-.71875c-.25.375-.558594.71875-.921875 1.03125-.125.0625-.167969.03125-.125-.09375.507812-.5625.878906-1.25 1.109375-2.0625zm.625 5.953125c.164063.0625.300781.042969.40625-.0625.164063-.164062.3125-.65625.4375-1.46875h-2.53125v2.40625c-.261719.25-.390625.257812-.390625.03125v-2.09375c-1.042969 1.0625-2.117188 1.769531-3.21875 2.125-.148438.019531-.179688-.023438-.09375-.125 1.269531-.5625 2.28125-1.34375 3.03125-2.34375h-1.84375l-.09375.5c-.273438.210938-.417969.21875-.4375.03125l.375-2.0625.40625.3125h1.875v-.90625h-2.59375v-.171875h4.890625l.21875-.21875.5.25c.125.054687.050781.121094-.21875.203125l-.125 1.21875c-.292969.210938-.449219.21875-.46875.03125l.03125-.21875h-1.84375v.84375h2.46875l.21875-.21875.46875.3125c.144531.105469.082031.179688-.1875.21875-.125.75-.261719 1.242188-.40625 1.46875-.125.2265625-.292969.40625-.5.53125-.292969.101562-.4375.050781-.4375-.15625 0-.105469-.054687-.1914062-.15625-.25l-.375-.25c-.105469-.082031-.085937-.113281.0625-.09375zm-1.6875-2.75h1.875l.09375-.90625h-1.96875zm-2.328125.1875-.15625.84375h2.09375v-.84375zm0 0" transform="translate(242.652504 46.2623)"/><use x="252.612342" xlink:href="#d" y="46.2623"/><path d="m6.328125-1.96875c.101563.125.039063.179688-.1875.15625-.25 1.042969-.511719 1.699219-.78125 1.96875-.292969.289062-.574219.457031-.84375.5-.25.0625-.375 0-.375-.1875 0-.148438-.089844-.261719-.265625-.34375l-.375-.1875c-.0625-.0625-.042969-.09375.0625-.09375l.796875.1875c.1875 0 .34375-.0234375.46875-.0625s.25-.15625.375-.34375c.1875-.375.363281-.894531.53125-1.5625h-2.828125l-.59375 1.15625c-.335938.125-.460938.09375-.375-.09375.375-.707031.707031-1.4375 1-2.1875h-2.34375v-.1875h6.046875l.46875-.46875.59375.4375c.125.105469.125.179688 0 .21875h-4.328125l-.40625.9375h2.640625l.28125-.28125zm-4.171875-4.265625.46875.21875h2.640625l.21875-.28125.5.34375c.164063.125.09375.210937-.21875.25v1.734375c-.273437.25-.40625.261719-.40625.03125v-.265625h-2.796875v.359375c-.273438.25-.40625.261719-.40625.03125zm3.203125 1.84375v-1.4375h-2.796875v1.4375zm0 0" transform="translate(258.612504 46.2623)"/><path d="m.59375-6.484375c1.144531.960937 1.71875 2.164063 1.71875 3.609375 0 1.460938-.574219 2.667969-1.71875 3.625l-.15625-.15625c.957031-.933594 1.4375-2.09375 1.4375-3.46875 0-1.363281-.480469-2.515625-1.4375-3.453125zm0 0" transform="translate(266.603676 46.2623)"/><use x="64.67616" xlink:href="#j" y="56.28518"/><use x="72.65616" xlink:href="#k" y="56.28518"/><use x="80.63616" xlink:href="#l" y="56.28518"/><use x="88.67601" xlink:href="#m" y="56.28518"/><use x="96.65601" xlink:href="#g" y="56.28518"/><use x="104.63601" xlink:href="#h" y="56.28518"/><use x="112.67586" xlink:href="#i" y="56.28518"/><use x="120.65586" xlink:href="#a" y="56.28518"/><use x="128.63586" xlink:href="#n" y="56.28518"/><use x="136.61586" xlink:href="#o" y="56.28518"/><use x="144.65571" xlink:href="#b" y="56.28518"/><path d="m.5625-5.484375c1.3125-.207031 2.34375-.46875 3.09375-.78125l.421875.28125c.289063.1875.191406.261719-.296875.21875-.398438.0625-.8125.125-1.25.1875v1.34375h.65625l.40625-.40625.484375.375c.125.105469.125.179687 0 .21875h-1.546875v.765625c.5625.167969.945312.355469 1.15625.5625.144531.148438.21875.28125.21875.40625 0 .1875-.0625.28125-.1875.28125-.148438 0-.261719-.09375-.34375-.28125-.148438-.3125-.429688-.59375-.84375-.84375v3.625c-.273438.25-.40625.257812-.40625.03125v-3.1875c-.4375.710938-.949219 1.335938-1.53125 1.875-.148438.085938-.1875.054688-.125-.09375.894531-1.039062 1.445312-2.085938 1.65625-3.140625h-1.59375v-.1875h1.59375v-1.28125c-.5.0625-1.023438.125-1.5625.1875-.167969-.019531-.167969-.070313 0-.15625zm6.640625 5.203125c-.273437.25-.40625.2617188-.40625.03125v-.46875h-1.84375v.75c-.273437.25-.40625.257812-.40625.03125v-5.078125l.46875.3125h1.6875l.1875-.25.4375.3125c.144531.105469.101563.179687-.125.21875zm-.40625-.625v-3.609375h-1.84375v3.609375zm0 0" transform="translate(152.63571 56.28518)"/><path d="m3.15625-2.78125c-.292969.335938-.4375.65625-.4375.96875 0 .5.125.875.375 1.125.269531.273438.578125.40625.921875.40625.351563 0 .644531-.132812.875-.40625.226563-.269531.34375-.664062.34375-1.1875 0-.476562-.09375-.832031-.28125-1.0625-.1875-.226562-.460937-.34375-.8125-.34375-.367187 0-.695313.167969-.984375.5zm.09375-.5c.269531-.226562.609375-.34375 1.015625-.34375.5 0 .882813.148438 1.15625.4375.269531.3125.40625.75.40625 1.3125 0 .523438-.167969.949219-.5 1.28125-.335937.355469-.777344.53125-1.328125.53125-.625 0-1.105469-.226562-1.4375-.6875-.3125-.4375-.46875-1.09375-.46875-1.96875 0-.882812.195312-1.566406.59375-2.046875.414062-.5.929688-.75 1.546875-.75.4375 0 .757813.074219.96875.21875.226563.167969.34375.355469.34375.5625 0 .105469-.03125.1875-.09375.25-.042969.085937-.125.125-.25.125-.167969 0-.28125-.070313-.34375-.21875-.042969-.101563-.074219-.238281-.09375-.40625 0-.101563-.054687-.1875-.15625-.25-.085937-.039063-.25-.0625-.5-.0625-.367187 0-.695313.21875-.984375.65625-.273438.417969-.417969 1.152344-.4375 2.203125.101562-.332031.289062-.613281.5625-.84375zm0 0" transform="translate(160.61571 56.28518)"/><path d="m3.90625-1.6875h-3.3125v-.1875h1.125v-2.0625l.46875.3125h1.71875v-1.515625h-1.78125c-.4375.886719-1.03125 1.609375-1.78125 2.171875-.085938.023438-.105469-.007812-.0625-.09375.9375-1.007812 1.53125-2.109375 1.78125-3.296875l.59375.21875c.269531.125.207031.210937-.1875.25-.085938.1875-.167969.375-.25.5625h3.921875l.40625-.40625.5.375c.125.105469.125.179687 0 .21875h-2.75v1.515625h1.5625l.40625-.390625.5.359375c.125.105469.125.179688 0 .21875h-2.46875v1.5625h2.25l.46875-.46875.59375.4375c.125.105469.125.179688 0 .21875h-3.3125v2.25c-.261719.25-.390625.257812-.390625.03125zm-1.78125-1.75v1.5625h1.78125v-1.5625zm0 0" transform="translate(168.65556 56.28518)"/><path d="m2.15625-1.78125h2.421875v-3.078125h-.03125l-2.390625 3.046875zm1.890625 1.5c.1875 0 .320313-.039062.40625-.125.082031-.082031.125-.21875.125-.40625v-.59375h-2.796875v-.25l2.984375-3.828125h.40625v3.703125h.84375v.375h-.84375v.59375c0 .1875.039063.324219.125.40625.101563.085938.238281.125.40625.125h.28125v.1875h-2.203125v-.1875zm0 0" transform="translate(176.63556 56.28518)"/><path d="m1.9375-.4375c-.398438.3984375-.855469.695312-1.375.90625-.125.019531-.148438-.011719-.0625-.09375.6875-.4140625 1.15625-.832031 1.40625-1.25.3125-.519531.46875-1.125.46875-1.8125v-3.484375l.46875.28125h2.390625l.1875-.25.4375.3125c.125.105469.082031.179687-.125.21875v5.328125c0 .2304688-.074219.414062-.21875.5625-.125.125-.28125.1875-.46875.1875-.085937 0-.125-.074219-.125-.21875 0-.085938-.054687-.136719-.15625-.15625l-.53125-.125c-.105469-.0625-.105469-.101562 0-.125h.8125c.1875 0 .28125-.09375.28125-.28125v-1.75h-2.546875c-.085938.6875-.367188 1.273438-.84375 1.75zm.84375-3.5v1.5625h2.546875v-1.5625zm0-1.765625v1.59375h2.546875v-1.59375zm0 0" transform="translate(184.61556 56.28518)"/><use x="192.59556" xlink:href="#j" y="56.28518"/><path d="m2.59375-5.453125h2.796875l.1875-.25.4375.3125c.125.105469.082031.179687-.125.21875v4.984375c-.273437.2460938-.40625.2578125-.40625.03125v-.5625h-2.953125v.9375c-.273438.25-.40625.257812-.40625.03125v-6.046875zm2.890625.1875h-2.953125v1.953125h2.953125zm0 2.140625h-2.953125v2.21875h2.953125zm0 0" transform="translate(200.63541 56.28518)"/><path d="m3.65625-4.109375c-.230469 0-.460938.023437-.6875.0625-.480469 1.09375-.96875 2.195313-1.46875 3.296875-.0625.105469-.15625.3125-.28125.625-.0625.1640625-.136719.25-.21875.25-.0625 0-.117188-.0546875-.15625-.15625-.023438-.0390625-.03125-.125-.03125-.25 0-.1875.0625-.34375.1875-.46875s.269531-.351562.4375-.6875c.457031-.894531.863281-1.75 1.21875-2.5625-.625.125-1.023438.230469-1.1875.3125-.125.0625-.242188.054688-.34375-.03125-.210938-.144531-.3125-.359375-.3125-.640625.019531-.0625.050781-.0625.09375 0 .101562.230469.269531.34375.5.34375.144531 0 .59375-.0625 1.34375-.1875.101562-.226563.207031-.46875.3125-.71875.101562-.289063.09375-.507813-.03125-.65625-.105469-.125-.273438-.195313-.5-.21875-.085938-.039063-.085938-.082031 0-.125.207031 0 .351562.011719.4375.03125.226562.0625.425781.179687.59375.34375.1875.1875.175781.304687-.03125.34375-.148438.335937-.304688.65625-.46875.96875.289062-.039063.488281-.0625.59375-.0625.257812 0 .453125.074219.578125.21875.1875.21875.28125.601563.28125 1.140625 0 1.605469-.382813 2.605469-1.140625 3-.210938.101562-.3125.058594-.3125-.125 0-.144531-.042969-.25-.125-.3125-.1875-.144531-.398438-.300781-.625-.46875-.042969-.082031-.023438-.113281.0625-.09375.226562.125.46875.25.71875.375.207031.105469.394531.042969.5625-.1875.1875-.269531.316406-.601562.390625-1 .101563-.5.15625-.957031.15625-1.375 0-.375-.03125-.625-.09375-.75-.074219-.15625-.226563-.234375-.453125-.234375zm1.984375-.1875c-.105469-.082031-.085937-.113281.0625-.09375.351563.148437.726563.371094 1.125.671875.519531.417969.8125.929688.875 1.53125.019531.210938-.011719.367188-.09375.46875-.125.167969-.25.15625-.375-.03125-.125-.207031-.28125-.300781-.46875-.28125-.292969.023438-.59375.042969-.90625.0625-.125-.019531-.136719-.0625-.03125-.125.332031-.039062.6875-.09375 1.0625-.15625.144531-.019531.207031-.082031.1875-.1875-.042969-.332031-.199219-.675781-.46875-1.03125-.25-.332031-.574219-.609375-.96875-.828125zm0 0" transform="translate(208.61541 56.28518)"/><path d="m2.34375-1.90625c.726562-.769531 1.523438-1.15625 2.390625-1.15625.707031 0 1.238281.179688 1.59375.53125.269531.273438.40625.59375.40625.96875 0 .417969-.148437.773438-.4375 1.0625-.605469.5820312-1.746094.863281-3.421875.84375-.125-.0625-.125-.125 0-.1875 1.507812-.042969 2.535156-.332031 3.078125-.875.226563-.226562.34375-.53125.34375-.90625 0-.332031-.085937-.582031-.25-.75-.335937-.332031-.75-.5-1.25-.5-.699219 0-1.296875.25-1.796875.75-.3125.3125-.5.617188-.5625.90625-.042969.1875-.136719.242188-.28125.15625-.230469-.125-.335938-.382812-.3125-.78125.019531-.519531.070312-.988281.15625-1.40625.039062-.226562.0625-.457031.0625-.6875 0-.132812-.03125-.253906-.09375-.359375-.0625-.101563-.054688-.21875.03125-.34375.164062-.25.445312-.414063.84375-.5.1875-.039063.4375-.0625.75-.0625.039062 0 .050781-.019531.03125-.0625-.023438-.0625-.09375-.101563-.21875-.125-.460938-.082031-.804688-.363281-1.03125-.84375.019531-.0625.050781-.070313.09375-.03125.25.3125.6875.53125 1.3125.65625.382812.085937.597656.292969.640625.625.019531.1875-.0625.242187-.25.15625-.261719-.125-.484375-.1875-.671875-.1875-.585938 0-.992188.117187-1.21875.34375-.148438.148437-.148438.292969 0 .4375.125.125.15625.289063.09375.484375-.125.417969-.179688 1.03125-.15625 1.84375 0 .125.039062.125.125 0zm0 0" transform="translate(216.59541 56.28518)"/><use x="224.63526" xlink:href="#p" y="56.28518"/><use x="232.61526" xlink:href="#q" y="56.28518"/><path d="m4.578125-5.640625c-.0625.0625-.09375.417969-.09375 1.0625.9375-.0625 1.5625-.113281 1.875-.15625.125-.019531.332031-.0625.625-.125.101563-.019531.207031.011719.3125.09375.226563.1875.351563.3125.375.375.039063.125-.023437.167969-.1875.125-.417969-.101563-.949219-.15625-1.59375-.15625-.398437 0-.867187.023437-1.40625.0625v1.328125c.0625.210938.09375.5.09375.875 0 1.3125-.570313 2.257812-1.703125 2.84375-.105469.019531-.125-.011719-.0625-.09375.25-.1875.46875-.386719.65625-.59375.445312-.519531.679688-1.144531.703125-1.875-.15625.25-.371094.375-.640625.375-.230469 0-.4375-.09375-.625-.28125-.148438-.144531-.21875-.363281-.21875-.65625 0-.289062.101562-.539062.3125-.75.164062-.164062.375-.25.625-.25.1875 0 .347656.042969.484375.125 0-.332031 0-.671875 0-1.015625-1.09375.167969-1.914063.328125-2.453125.484375-.210938.0625-.355469.117188-.4375.15625-.125.0625-.242188.054688-.34375-.03125-.230469-.164062-.398438-.398438-.5-.703125 0-.101563.039062-.113281.125-.03125.101562.1875.300781.28125.59375.28125.289062 0 .738281-.050781 1.34375-.15625.476562-.082031 1.035156-.15625 1.671875-.21875 0-.269531 0-.550781 0-.84375 0-.476563-.203125-.738281-.609375-.78125-.085938-.039063-.085938-.082031 0-.125.34375-.039063.617188.011719.828125.15625.101563.0625.195313.15625.28125.28125.082031.105469.070313.179687-.03125.21875zm-.953125 2.359375c-.230469 0-.398438.085938-.5.25-.105469.148438-.15625.324219-.15625.53125 0 .335938.082031.574219.25.71875.0625.0625.164062.09375.3125.09375.144531 0 .257812-.039062.34375-.125.175781-.1875.265625-.445312.265625-.78125 0-.457031-.171875-.6875-.515625-.6875zm0 0" transform="translate(240.59526 56.28518)"/><use x="248.57526" xlink:href="#r" y="56.28518"/><use x="256.61511" xlink:href="#s" y="56.28518"/><path d="m4.609375-2.90625c.394531-.351562.59375-.773438.59375-1.265625 0-.332031-.105469-.601563-.3125-.8125-.1875-.1875-.46875-.28125-.84375-.28125-.386719 0-.683594.085937-.890625.25-.1875.167969-.28125.304687-.28125.40625v.15625c.019531.042969.039062.074219.0625.09375.0625.085937.113281.15625.15625.21875.039062.085937.0625.164063.0625.234375 0 .125-.042969.21875-.125.28125-.085938.0625-.1875.09375-.3125.09375-.148438 0-.261719-.0625-.34375-.1875-.085938-.101562-.125-.234375-.125-.390625 0-.3125.164062-.625.5-.9375.3125-.289063.753906-.4375 1.328125-.4375.5625 0 .988281.125 1.28125.375.3125.25.46875.574219.46875.96875 0 .554687-.3125 1.058594-.9375 1.515625-.617187.480469-1.039063.8125-1.265625 1-.355469.292969-.585938.5-.6875.625-.125.148438-.230469.28125-.3125.40625h2.078125c.3125 0 .5625-.09375.75-.28125s.320313-.40625.40625-.65625l.15625.0625-.375 1.375h-3.453125v-.34375c.164062-.269531.363281-.53125.59375-.78125.1875-.207031.445312-.445312.78125-.71875.300781-.269531.648438-.59375 1.046875-.96875zm0 0" transform="translate(64.67616 66.24422)"/><use x="72.65616" xlink:href="#k" y="66.24422"/><use x="80.63616" xlink:href="#l" y="66.24422"/><use x="88.67601" xlink:href="#m" y="66.24422"/><use x="96.65601" xlink:href="#g" y="66.24422"/><use x="104.63601" xlink:href="#h" y="66.24422"/><use x="112.67586" xlink:href="#i" y="66.24422"/><use x="120.65586" xlink:href="#a" y="66.24422"/><use x="128.63586" xlink:href="#m" y="66.24422"/><use x="136.61586" xlink:href="#p" y="66.24422"/><use x="144.65571" xlink:href="#q" y="66.24422"/><use x="152.63571" xlink:href="#t" y="66.24422"/><use x="160.61571" xlink:href="#u" y="66.24422"/><use x="168.65556" xlink:href="#e" y="66.24422"/><use x="176.63556" xlink:href="#f" y="66.24422"/><use x="184.61556" xlink:href="#u" y="66.24422"/><path d="m4.578125-5.640625c.164063.125.09375.210937-.21875.25.164063 2.386719 1.300781 4.078125 3.40625 5.078125-.3125.0625-.574219.210938-.78125.4375-1.605469-1.207031-2.53125-2.796875-2.78125-4.765625-.28125 2.367187-1.558594 4.089844-3.828125 5.171875-.105469 0-.125-.042969-.0625-.125 2.226562-1.371094 3.394531-3.316406 3.5-5.828125h-2.0625v-.1875h2l.265625-.4375zm0 0" transform="translate(192.59556 66.24422)"/><use x="200.63541" xlink:href="#e" y="66.24422"/><path d="m2.5-1.3125c0-.914062 0-1.835938 0-2.765625 0-.332031.007812-.675781.03125-1.03125.019531-.351563-.167969-.539063-.5625-.5625-.125-.039063-.136719-.082031-.03125-.125.125-.019531.238281-.03125.34375-.03125.25 0 .507812.105469.78125.3125.082031.0625.082031.15625 0 .28125-.042969.0625-.085938.1875-.125.375-.042969.1875-.0625.417969-.0625.6875v2.828125c0 .375.0625.636719.1875.78125.1875.210938.5.3125.9375.3125.59375 0 1.117188-.125 1.578125-.375.5-.269531 1.050781-.664062 1.65625-1.1875.082031-.039062.113281-.019531.09375.0625-.5625.667969-1.125 1.15625-1.6875 1.46875-.480469.2734375-1.046875.40625-1.703125.40625-.480469 0-.855469-.1445312-1.125-.4375-.210938-.226562-.3125-.5625-.3125-1zm0 0" transform="translate(208.61541 66.24422)"/><path d="m4.421875-4.578125c-.449219.105469-.976563.210937-1.578125.3125-.4375 1.492187-.875 2.964844-1.3125 4.421875-.042969.125-.117188.15625-.21875.09375-.0625-.042969-.105469-.117188-.125-.21875-.0625-.226562-.0625-.382812 0-.46875.125-.207031.238281-.445312.34375-.71875.351562-1 .6875-2.015625 1-3.046875-.5.0625-.875.117187-1.125.15625-.125.054687-.230469.042969-.3125-.03125-.0625-.0625-.136719-.144531-.21875-.25-.0625-.082031-.09375-.175781-.09375-.28125.019531-.101563.050781-.125.09375-.0625.144531.210937.351562.3125.625.3125.375 0 .738281-.03125 1.09375-.09375.1875-.476563.289062-.851563.3125-1.125 0-.101563-.03125-.1875-.09375-.25-.105469-.082031-.230469-.132813-.375-.15625-.148438 0-.15625-.039063-.03125-.125.101562-.019531.21875-.03125.34375-.03125.164062 0 .394531.105469.6875.3125.144531.105469.144531.199219 0 .28125-.105469.0625-.273438.40625-.5 1.03125.414062-.082031.796875-.226563 1.140625-.4375.0625-.0625.132813-.09375.21875-.09375.082031 0 .175781.0625.28125.1875.101563.148437.050781.242187-.15625.28125zm-.859375 1.140625c.40625-.25.867188-.425781 1.390625-.53125.519531-.09375.96875-.117188 1.34375-.078125.207031.023437.3125.101563.3125.234375 0 .125-.085937.1875-.25.1875-.730469 0-1.375.242188-1.9375.71875-.105469.0625-.125.042969-.0625-.0625.164063-.207031.457031-.414062.875-.625.164063-.082031.144531-.125-.0625-.125-.375 0-.890625.125-1.546875.375-.105469.042969-.125.011719-.0625-.09375zm.03125 1.78125c.082031-.164062.125-.164062.125 0-.023438.167969-.03125.28125-.03125.34375 0 .25.09375.46875.28125.65625.21875.230469.578125.34375 1.078125.34375h.9375c.332031 0 .550781-.03125.65625-.09375.144531-.082031.257813-.09375.34375-.03125.144531.105469.226563.179688.25.21875.082031.1679688 0 .25-.25.25-.523437 0-1.042969 0-1.5625 0-.792969 0-1.320313-.132812-1.578125-.40625-.210938-.207031-.3125-.476562-.3125-.8125 0-.1875.019531-.34375.0625-.46875zm0 0" transform="translate(216.59541 66.24422)"/><path d="m5.390625-2.8125.1875-.25.4375.3125c.125.105469.082031.179688-.125.21875v2.8125c-.273437.25-.40625.257812-.40625.03125v-.21875h-2.640625v.40625c-.273438.25-.40625.257812-.40625.03125v-2.84375c-.6875.417969-1.398438.75-2.125 1-.148438 0-.167969-.050781-.0625-.15625 1-.457031 1.726562-.863281 2.1875-1.21875v-.46875l.34375.25c.414062-.269531.828125-.59375 1.234375-.96875h-3.453125v-.171875h2.8125v-1.09375h-2.28125v-.1875h2.28125v-1.1875l.53125.09375c.15625.105469.113281.179687-.125.21875v.875h.546875l.40625-.40625.59375.46875c.289063-.351563.539063-.6875.75-1l.5625.4375c.226563.167969.09375.21875-.40625.15625-.523437.667969-1.011719 1.210937-1.46875 1.625h1.78125l.46875-.46875.59375.4375c.125.09375.125.164063 0 .203125h-3.03125c-.40625.398438-.851563.75-1.328125 1.0625zm-1.1875-1.234375c.351563-.332031.695313-.695313 1.03125-1.09375h-1.453125v1.09375zm-1.359375 2.546875h2.640625v-1.125h-2.640625zm0 1.40625h2.640625v-1.21875h-2.640625zm0 0" transform="translate(224.63526 66.24422)"/><use x="232.61526" xlink:href="#u" y="66.24422"/><path d="m3.5-5.203125c.425781.273437.640625.53125.640625.78125 0 .105469-.023437.199219-.0625.28125h1.1875l.34375-1.1875.4375.125c.25.105469.21875.179687-.09375.21875l-.5.84375h1.0625l.1875-.25.4375.3125c.125.09375.082031.164063-.125.203125v3.03125c0 .292969-.136719.511719-.40625.65625-.167969.042969-.25 0-.25-.125s-.0625-.207031-.1875-.25l-.3125-.09375c-.273437.25-.40625.261719-.40625.03125v-.3125h-1.40625v.34375c-.261719.25-.390625.261719-.390625.03125v-1.8125l.453125.1875h.40625v-.8125h-1.171875v-.1875h1.171875v-.78125h-1.453125v3.59375c-.273438.25-.40625.261719-.40625.03125v-4.015625l.46875.21875h.75c-.0625-.082031-.105469-.195313-.125-.34375-.042969-.207031-.148438-.414063-.3125-.625-.085938-.101563-.0625-.132813.0625-.09375zm1.421875 2.203125v.8125h.4375l.1875-.25.4375.3125c.125.105469.082031.179688-.125.21875v1.15625h.53125c.144531 0 .21875-.070312.21875-.21875v-3h-1.6875v.78125h.65625l.3125-.3125.4375.34375c.0625.085938.039063.136719-.0625.15625zm.53125 1.875v-.875h-1.40625v.875zm-3.953125-4.078125c-.25-.375-.5625-.664063-.9375-.875-.085938-.0625-.0625-.09375.0625-.09375.894531.230469 1.34375.554687 1.34375.96875 0 .167969-.074219.25-.21875.25-.085938 0-.167969-.082031-.25-.25zm6.046875 5.359375c-.125.039062-.25.164062-.375.375h-2.9375c-1.15625 0-2.046875-.324219-2.671875-.96875l-.71875.71875c.019531.289062-.042969.34375-.1875.15625l-.3125-.375 1.0625-.5625v-2.625h-1.125v-.1875h1.03125l.1875-.25.4375.3125c.125.105469.082031.179688-.125.21875v2.5625c.601562.4179688 1.164062.625 1.6875.625zm-5.203125-5.515625v-.1875h2.171875v-.96875l.53125.09375c.164063.105469.125.179687-.125.21875v.65625h1.625l.40625-.40625.5.375c.125.105469.125.179687 0 .21875zm0 0" transform="translate(240.59526 66.24422)"/><path d="m.5.5625c-.125.0625-.15625.03125-.09375-.09375.789062-.957031 1.1875-1.976562 1.1875-3.0625v-3.703125l.46875.28125h4.234375l.1875-.25.4375.3125c.125.105469.082031.179687-.125.21875v5.453125c0 .25-.074219.4375-.21875.5625-.125.101562-.25.164062-.375.1875-.125.019531-.1875-.03125-.1875-.15625 0-.105469-.054687-.179688-.15625-.21875l-.5625-.125c-.105469-.0390625-.105469-.082031 0-.125h.8125c.1875 0 .28125-.09375.28125-.28125v-1.84375h-2.09375v2.5625c-.261719.25-.390625.257812-.390625.03125v-2.59375h-1.90625c-.0625 1.042969-.5625 1.992188-1.5 2.84375zm5.890625-4.796875v-1.59375h-2.09375v1.59375zm-4.390625 0h1.90625v-1.59375h-1.90625zm1.90625 1.765625v-1.578125h-1.90625v1.578125zm.390625-1.578125v1.578125h2.09375v-1.578125zm0 0" transform="translate(248.57526 66.24422)"/><path d="m5.453125-3c.226563.3125.40625.53125.53125.65625.082031.085938.1875.167969.3125.25.0625.042969.101563.105469.125.1875.039063.167969.050781.273438.03125.3125-.085937.167969-.199219.199219-.34375.09375-.335937-.25-.699219-.4375-1.09375-.5625-.523437-.164062-.964844-.25-1.328125-.25-.6875 0-1.179688.148438-1.46875.4375-.167969.167969-.25.34375-.25.53125 0 .335938.113281.59375.34375.78125.375.3125.9375.4804688 1.6875.5.613281.0234375 1.003906 0 1.171875-.0625.164063-.0625.300781-.0625.40625 0 .101563.0625.175781.1328125.21875.21875.039063.101562 0 .164062-.125.1875-.25.039062-.605469.0625-1.0625.0625-.554687 0-1.039063-.054688-1.453125-.15625-.5-.125-.875-.320312-1.125-.59375-.230469-.25-.34375-.519531-.34375-.8125 0-.332031.101562-.59375.3125-.78125.351562-.332031.882812-.5 1.59375-.5.28125 0 .566406.023438.859375.0625.4375.0625.757813.125.96875.1875.125.042969.144531 0 .0625-.125-.4375-.601562-.855469-1.203125-1.25-1.796875-.59375.117187-1.109375.195313-1.546875.234375-.125.042969-.21875.0625-.28125.0625-.105469 0-.199219-.039062-.28125-.125-.25-.21875-.398438-.367188-.4375-.453125-.042969-.101563-.011719-.125.09375-.0625.207031.1875.488281.28125.84375.28125.375 0 .859375-.070313 1.453125-.21875-.09375-.1875-.265625-.46875-.515625-.84375-.085938-.125-.179688-.226563-.28125-.3125-.125-.101563-.125-.21875 0-.34375.207031-.226563.425781-.375.65625-.4375.132812 0 .160156.03125.078125.09375-.117187.0625-.195313.210937-.234375.4375-.023438.105469.019531.25.125.4375.195312.375.367188.667969.515625.875.375-.082031.832031-.25 1.375-.5.101563-.0625.238281-.070313.40625-.03125.082031.023437.15625.0625.21875.125s.03125.125-.09375.1875c-.292969.125-.875.292969-1.75.5.207031.34375.5.765625.875 1.265625zm0 0" transform="translate(256.61511 66.24422)"/><path d="m2.03125.25c0-.25-.28125-.664062-.84375-1.25-.210938.355469-.375.636719-.5.84375-.042969.0625-.09375.09375-.15625.09375-.085938 0-.125-.113281-.125-.34375 0-.125.039062-.238281.125-.34375.476562-.582031 1.03125-1.425781 1.65625-2.53125 0-.164062 0-.332031 0-.5-.292969.105469-.542969.210938-.75.3125-.085938.0625-.15625.09375-.21875.09375-.042969 0-.125-.039062-.25-.125-.230469-.144531-.34375-.328125-.34375-.546875.019531-.101563.050781-.125.09375-.0625.101562.21875.25.328125.4375.328125.25 0 .59375-.070312 1.03125-.21875 0-.382812 0-.785156 0-1.203125 0-.457031-.199219-.707031-.59375-.75-.167969 0-.167969-.039063 0-.125.5-.039063.851562.0625 1.0625.3125.125.085937.125.179687 0 .28125-.125.210937-.1875.6875-.1875 1.4375.039062-.019531.082031-.050781.125-.09375.125.0625.207031.109375.25.140625.082031.042969.09375.09375.03125.15625-.105469.105469-.242188.273438-.40625.5v.25c1.019531-1.09375 1.867188-1.640625 2.546875-1.640625.519531 0 .757813.230469.71875.6875-.125 1.367187-.1875 2.203125-.1875 2.515625 0 .75.15625 1.125.46875 1.125.601563 0 1.113281-.507812 1.53125-1.53125.082031-.125.125-.113281.125.03125-.335937 1.210938-.886719 1.8125-1.65625 1.8125-.25 0-.460937-.082031-.625-.25-.167969-.164062-.25-.53125-.25-1.09375 0-.6875.039063-1.566406.125-2.640625.019531-.269531-.09375-.40625-.34375-.40625-.5625 0-1.382813.570313-2.453125 1.703125.019531 1.523438.039062 2.355469.0625 2.5.039062.2890625-.011719.507812-.15625.65625-.085938.082031-.15625.125-.21875.125-.085938 0-.125-.085938-.125-.25zm.125-.8125c.039062-.5.050781-1.15625.03125-1.96875-.3125.460938-.625.929688-.9375 1.40625.25.210938.488281.40625.71875.59375.082031.085938.144531.074219.1875-.03125zm0 0" transform="translate(264.59511 66.24422)"/><use x="272.57511" xlink:href="#r" y="66.24422"/><path d="m4.734375-4.640625c-.085937.148437-.15625.261719-.21875.34375h2.09375l.40625-.40625.53125.375c.125.105469.125.179687 0 .21875h-3.15625c-.1875.242187-.414063.496094-.671875.765625-.125.0625-.167969.042969-.125-.0625.40625-.550781.691406-1.085938.859375-1.609375h-2.859375v1.484375c0 1.335938-.386719 2.597656-1.15625 3.78125-.105469.082031-.148438.070312-.125-.03125.582031-1.121094.875-2.375.875-3.75v-2.953125l.46875.28125h4.578125l.1875-.25.4375.3125c.125.105469.082031.179687-.125.21875v1.09375c-.273437.25-.40625.261719-.40625.03125v-.21875h-1.78125l.40625.21875c.101563.085937.03125.136719-.21875.15625zm1.59375 2.703125h-1.0625c-.125.1875-.273437.386719-.4375.59375h1.375l.1875-.1875.46875.375c.101563.125 0 .167969-.3125.125-.273437.273438-.554687.511719-.84375.71875.476563.25 1.101563.414062 1.875.5-.25.125-.40625.257812-.46875.40625-.648437-.148438-1.210937-.386719-1.6875-.71875-.5625.351562-1.320313.632812-2.265625.84375-.085938-.023438-.09375-.0625-.03125-.125.820312-.230469 1.503906-.5351562 2.046875-.90625-.210937-.164062-.429687-.394531-.65625-.6875-.34375.355469-.714844.636719-1.109375.84375-.105469.023438-.125-.007812-.0625-.09375.59375-.4375 1.085938-1 1.484375-1.6875h-.3125v.125c-.273437.25-.40625.261719-.40625.03125v-1.96875l.46875.1875h1.65625l.1875-.25.4375.3125c.125.105469.082031.179688-.125.21875v1.375c-.273437.25-.40625.261719-.40625.03125zm-.9375 1.46875c.25-.1875.507813-.414062.78125-.6875h-1.5l-.0625.0625c.25.273438.507813.480469.78125.625zm-.875-2.90625v.5h1.8125v-.5zm-1.515625 1.1875c.164062.105469.125.179688-.125.21875v2.5c-.273438.25-.40625.257812-.40625.03125v-2.59375c-.273438.335938-.585938.65625-.9375.96875-.105469.042969-.136719.023438-.09375-.0625.601562-.707031 1.09375-1.519531 1.46875-2.4375l.5.25c.207031.085938.125.167969-.25.25-.148438.273438-.3125.523438-.5.75zm.375-2.359375c.101562.125 0 .167969-.3125.125-.292969.429687-.679688.851563-1.15625 1.265625-.125.0625-.15625.03125-.09375-.09375.4375-.476562.789062-1.015625 1.0625-1.609375zm-1.78125-1.46875v.8125h4.734375v-.8125zm2.921875 3.890625h1.8125v-.5625h-1.8125zm0 0" transform="translate(280.61496 66.24422)"/><path d="m2.21875-5.921875c-.210938.542969-.40625 1.042969-.59375 1.5l.125.0625c.164062.105469.125.179687-.125.21875v4.546875c-.273438.25-.40625.257812-.40625.03125v-4.09375c-.273438.4375-.554688.835938-.84375 1.1875-.125.085938-.15625.042969-.09375-.125.769531-1.21875 1.289062-2.503906 1.5625-3.859375l.5625.28125c.1875.085937.125.167969-.1875.25zm2.796875-.34375c.101563.105469.007813.167969-.28125.1875-.148437.273437-.304687.53125-.46875.78125h2.46875l.40625-.40625.5.375c.125.105469.125.179687 0 .21875h-1.3125c-.375.523437-.6875.902344-.9375 1.140625.789063.480469 1.539063.761719 2.25.84375-.148437.0625-.292969.210938-.4375.4375-.75-.25-1.429687-.601562-2.03125-1.0625-.585937.523438-1.289063.886719-2.109375 1.09375-.105469-.019531-.117188-.0625-.03125-.125.820312-.332031 1.453125-.71875 1.890625-1.15625-.375-.320312-.65625-.691406-.84375-1.109375-.28125.375-.578125.6875-.890625.9375-.125.074219-.15625.054687-.09375-.0625.582031-.726563 1.035156-1.519531 1.359375-2.375zm1.25 4.421875c.082031.105469-.03125.136719-.34375.09375-.730469.5625-1.601563.9375-2.609375 1.125-.167969 0-.1875-.039062-.0625-.125 1.03125-.289062 1.910156-.78125 2.640625-1.46875zm.6875.9375c-1.417969.875-2.871094 1.332031-4.359375 1.375-.210938-.042969-.21875-.105469-.03125-.1875 1.59375-.167969 3.035156-.726562 4.328125-1.6875l.40625.40625c.082031.105469-.03125.136719-.34375.09375zm-3.828125-.9375c.925781-.332031 1.722656-.769531 2.390625-1.3125l.34375.34375c.0625.105469-.03125.136719-.28125.09375-.605469.417969-1.402344.75-2.390625 1-.167969 0-.1875-.039062-.0625-.125zm-.25-2.953125c.164062.105469.125.179687-.125.21875v3.984375c-.273438.25-.40625.261719-.40625.03125v-4.328125zm1.359375-.3125c.1875.375.476563.710937.875 1 .269531-.289063.519531-.625.75-1zm0 0" transform="translate(288.59496 66.24422)"/><path d="m3.75-3.09375c-.273438 1.667969-1.355469 2.847656-3.25 3.53125-.1875.039062-.210938 0-.0625-.125.664062-.2929688 1.257812-.695312 1.78125-1.21875.8125-.8125 1.21875-1.941406 1.21875-3.390625v-.28125h-2.71875v-.1875h2.8125v-1.71875l.546875.09375c.226563.085937.179687.167969-.140625.25v1.375h2.578125l.46875-.46875.59375.4375c.125.105469.125.179687 0 .21875h-3.734375v.28125c0 .449219-.023438.789063-.0625 1.015625h2.140625l.21875-.25.53125.34375c.1875.148438.09375.25-.28125.3125-.148437 1.4375-.417969 2.375-.8125 2.8125-.3125.351562-.648437.53125-1 .53125-.0625 0-.09375-.0625-.09375-.1875 0-.085938-.0625-.15625-.1875-.21875l-.515625-.21875c-.085938-.082031-.074219-.125.03125-.125l.734375.1875c.144531.0234375.226563.03125.25.03125.1875 0 .375-.132812.5625-.40625.289063-.414062.5-1.289062.625-2.625zm0 0" transform="translate(296.57496 66.24422)"/><path d="m7.609375-2.875c.125.105469.125.179688 0 .21875h-2.875l-1.328125 2.375c1.03125-.101562 2.097656-.226562 3.203125-.375-.1875-.289062-.449219-.582031-.78125-.875-.0625-.101562-.03125-.144531.09375-.125.957031.542969 1.4375 1.023438 1.4375 1.4375 0 .2460938-.085937.375-.25.375-.0625 0-.117187-.042969-.15625-.125-.085937-.226562-.167969-.40625-.25-.53125-1.3125.25-2.589844.5-3.828125.75-.0625.289062-.15625.332031-.28125.125l-.375-.59375c.414062 0 .738281-.007812.96875-.03125l.953125-2.40625h-1.765625v-.1875h2.046875v-1.640625h-1.359375v-.1875h1.359375v-1.6875l.53125.09375c.164063.105469.125.179687-.125.21875v1.375h1.34375l.40625-.40625.5.375c.125.105469.125.179687 0 .21875h-2.25v1.640625h1.71875l.46875-.46875zm-6.578125-3.359375c-.042969-.0625-.023438-.09375.0625-.09375.6875.210937 1.03125.5 1.03125.875 0 .148437-.074219.21875-.21875.21875-.105469 0-.179688-.0625-.21875-.1875-.148438-.351563-.367188-.625-.65625-.8125zm-.53125 1.8125c-.042969-.0625-.023438-.09375.0625-.09375.625.292969.9375.609375.9375.953125 0 .167969-.085938.25-.25.25-.085938 0-.15625-.101562-.21875-.3125-.0625-.207031-.242188-.472656-.53125-.796875zm-.03125 2.640625h.75l1.5625-3.859375c.125-.082031.175781-.070313.15625.03125l-1.3125 3.890625c-.0625.230469-.085938.5-.0625.8125.039062.210938.082031.4375.125.6875.019531.1875.03125.351562.03125.5 0 .207031-.117188.3125-.34375.3125-.1875 0-.28125-.125-.28125-.375.082031-.621094.125-1.101562.125-1.4375 0-.1875-.09375-.300781-.28125-.34375l-.46875-.09375zm0 0" transform="translate(304.55496 66.24422)"/><path d="m5.546875.03125c0 .226562-.074219.40625-.21875.53125-.085937.082031-.1875.125-.3125.125-.085937 0-.125-.042969-.125-.125 0-.105469-.0625-.179688-.1875-.21875l-.46875-.09375c-.085937-.042969-.085937-.085938 0-.125h.6875c.144531 0 .21875-.0742188.21875-.21875v-1.25h-2.671875c.582031.355469.875.65625.875.90625 0 .210938-.074219.3125-.21875.3125-.105469 0-.1875-.101562-.25-.3125-.085938-.269531-.273438-.570312-.5625-.90625h-1.125v-.1875h3.953125v-.84375h-4.578125v-.1875h3.125v-.90625h-2.375v-.1875h2.375v-.765625l.515625.09375c.164063.105469.125.179687-.125.21875v.453125h1.6875l.40625-.390625.5.359375c.125.105469.125.179688 0 .21875h-2.59375v.90625h2.46875l.40625-.40625.5.375c.125.105469.125.179688 0 .21875h-1.90625v.84375h.6875l.40625-.40625.5.375c.125.105469.125.179688 0 .21875h-1.59375zm.0625-4.390625c-.085937-.332031-.230469-.625-.4375-.875h-.46875c-.148437.230469-.34375.460937-.59375.6875-.117187.085937-.148437.054687-.09375-.09375.414063-.519531.695313-1.125.84375-1.8125l.53125.1875c.226563.125.164063.210937-.1875.25l-.375.59375h1.59375l.40625-.40625.5.375c.125.105469.125.179687 0 .21875h-1.9375c.457031.3125.6875.585937.6875.8125 0 .1875-.074219.28125-.21875.28125-.125 0-.210937-.070313-.25-.21875zm-1.5625-1.0625c.125.105469.125.179687 0 .21875h-1.859375c.457031.3125.6875.625.6875.9375 0 .179687-.085938.265625-.25.265625-.105469 0-.179688-.085938-.21875-.265625-.042969-.394531-.179688-.707031-.40625-.9375h-.28125c-.273438.523437-.667969 1.027344-1.1875 1.515625-.148438.0625-.179688.023438-.09375-.125.625-.738281 1.0625-1.617188 1.3125-2.640625l.59375.25c.164062.085937.082031.167969-.25.25l-.28125.5625h1.34375l.40625-.40625zm0 0" transform="translate(312.59481 66.24422)"/><use x="320.57481" xlink:href="#u" y="66.24422"/><path d="m3.4375-5.640625c-.085938.167969-.167969.480469-.25.9375.570312-.125.984375-.289063 1.234375-.5.226563.023437.375.054687.4375.09375.164063.105469.09375.210937-.21875.3125-.398437.148437-.890625.261719-1.484375.34375-.105469.636719-.15625 1.089844-.15625 1.359375.539062-.207031 1.054688-.332031 1.546875-.375.019531-.207031-.136719-.332031-.46875-.375-.074219-.039062-.0625-.082031.03125-.125.644531.042969.957031.210938.9375.5.8125.023438 1.382813.199219 1.71875.53125.3125.3125.46875.6875.46875 1.125s-.1875.84375-.5625 1.21875c-.460937.460938-1.125.789062-2 1-.148437 0-.15625-.042969-.03125-.125.75-.2890625 1.28125-.59375 1.59375-.90625.375-.375.5625-.769531.5625-1.1875 0-.394531-.125-.71875-.375-.96875-.292969-.289062-.773437-.445312-1.4375-.46875-.148437.335938-.335937.699219-.5625 1.09375-.230469.398438-.484375.75-.765625 1.0625.082031.105469.175781.21875.28125.34375.070312.105469.0625.199219-.03125.28125-.125.085938-.25.042969-.375-.125-.0625-.082031-.117188-.15625-.15625-.21875-.273438.273438-.542969.492188-.8125.65625-.273438.1640625-.542969.2382812-.8125.21875-.417969-.0429688-.648438-.320312-.6875-.84375-.042969-.539062.207031-1.0625.75-1.5625.25-.226562.550781-.4375.90625-.625 0-.3125.03125-.785156.09375-1.421875-.292969.042969-.574219.074219-.84375.09375-.1875.023437-.335938-.019531-.4375-.125-.167969-.164063-.273438-.332031-.3125-.5.019531-.101563.0625-.113281.125-.03125.125.25.332031.375.625.375.351562 0 .644531-.019531.875-.0625.0625-.414063.101562-.800781.125-1.15625.019531-.1875-.117188-.3125-.40625-.375-.085938 0-.085938-.03125 0-.09375.289062 0 .539062.054687.75.15625.25.125.289062.28125.125.46875zm-.71875 2.921875c-.292969.167969-.542969.367188-.75.59375-.355469.398438-.53125.835938-.53125 1.3125 0 .417969.125.636719.375.65625.207031.023438.445312-.0625.71875-.25.25-.164062.476562-.363281.6875-.59375-.3125-.5-.480469-1.070312-.5-1.71875zm1.796875-.53125c-.699219.105469-1.203125.242188-1.515625.40625.0625.6875.226562 1.210938.5 1.5625.226562-.289062.429688-.613281.609375-.96875.164063-.332031.300781-.664062.40625-1zm0 0" transform="translate(328.55481 66.24422)"/><path d="m1.8125-2.59375c.539062-.351562.96875-.601562 1.28125-.75.539062-.25 1.066406-.375 1.578125-.375.582031 0 1.082031.179688 1.5.53125.3125.273438.46875.636719.46875 1.09375 0 .355469-.105469.648438-.3125.875-.542969.605469-1.546875.929688-3.015625.96875-.125-.0625-.125-.113281 0-.15625 1.28125-.144531 2.140625-.457031 2.578125-.9375.226563-.25.34375-.539062.34375-.875 0-.289062-.085937-.53125-.25-.71875-.335937-.351562-.773437-.53125-1.3125-.53125-.679687 0-1.484375.355469-2.421875 1.0625-.167969.125-.292969.242188-.375.34375-.105469.125-.242188.117188-.40625-.03125-.3125-.269531-.460938-.4375-.4375-.5.019531-.101562.050781-.125.09375-.0625.101562.125.21875.1875.34375.1875.101562 0 .21875-.039062.34375-.125zm0 0" transform="translate(336.59466 66.24422)"/><path d="m5.640625-5.296875c.332031-.0625.5625-.144531.6875-.25.125-.101563.257813-.101563.40625 0 .226563.167969.351563.261719.375.28125.101563.105469.082031.179687-.0625.21875-1.292969-.039063-2.21875.21875-2.78125.78125-.53125.53125-.796875 1.070313-.796875 1.609375 0 .625.203125 1.148438.609375 1.5625.4375.4375.9375.667969 1.5.6875.207031 0 .34375.042969.40625.125.082031.105469.125.1992188.125.28125 0 .101562-.085937.15625-.25.15625-.585937 0-1.148437-.21875-1.6875-.65625-.636719-.519531-.953125-1.207031-.953125-2.0625 0-.789062.398438-1.503906 1.203125-2.140625.101563-.082031.101563-.125 0-.125-.636719.125-1.246094.25-1.828125.375-.25.042969-.5.125-.75.25-.1875.085937-.3125.117187-.375.09375-.105469-.019531-.210938-.070313-.3125-.15625-.230469-.164063-.355469-.34375-.375-.53125.039062-.144531.082031-.15625.125-.03125.101562.1875.320312.273437.65625.25.164062 0 .445312-.039063.84375-.125 1.070312-.1875 2.148438-.382813 3.234375-.59375zm0 0" transform="translate(344.57466 66.24422)"/><use x="352.55466" xlink:href="#n" y="66.24422"/><use x="360.53466" xlink:href="#o" y="66.24422"/><path d="m6.921875-3.1875c-.210937-.207031-.4375-.3125-.6875-.3125-.417969 0-.761719.09375-1.03125.28125-.148437.105469-.210937.28125-.1875.53125.039063.605469.09375 1.148438.15625 1.625.894531.210938 1.457031.398438 1.6875.5625.082031.0625.113281.199219.09375.40625-.023437.1835938-.125.21875-.3125.09375-.605469-.375-1.085937-.625-1.4375-.75 0 .4375-.125.75-.375.9375-.1875.144531-.449219.21875-.78125.21875-.34375 0-.609375-.09375-.796875-.28125-.148438-.1445312-.21875-.3125-.21875-.5 0-.25.101562-.445312.3125-.59375.1875-.125.472656-.1875.859375-.1875.1875 0 .382813.011719.59375.03125-.085937-.75-.125-1.257812-.125-1.53125 0-.394531.175781-.664062.53125-.8125.351563-.144531.6875-.21875 1-.21875.1875 0 .238281-.0625.15625-.1875-.273437-.382812-.742187-.710938-1.40625-.984375-.085937-.039063-.074219-.070313.03125-.09375.769531.125 1.40625.4375 1.90625.9375.226563.21875.34375.433594.34375.640625 0 .167969-.054687.25-.15625.25-.0625 0-.117187-.019531-.15625-.0625zm-2.90625-1.328125c-.34375.085937-.714844.167969-1.109375.25-.8125 1.84375-1.3125 2.921875-1.5 3.234375-.125.210938-.242188.261719-.34375.15625-.0625-.0625-.105469-.144531-.125-.25-.023438-.164062.03125-.3125.15625-.4375.144531-.144531.28125-.320312.40625-.53125.269531-.457031.625-1.160156 1.0625-2.109375-.273438.042969-.542969.105469-.8125.1875-.148438.074219-.261719.074219-.34375 0-.273438-.269531-.398438-.46875-.375-.59375 0-.101563.039062-.101563.125 0 .082031.167969.257812.25.53125.25.351562 0 .675781-.039063.96875-.125.25-.601563.382812-1.039063.40625-1.3125.019531-.207031-.117188-.34375-.40625-.40625-.105469-.039063-.105469-.082031 0-.125.1875-.019531.375.011719.5625.09375.144531.0625.269531.148437.375.25.125.125.113281.230469-.03125.3125-.105469.0625-.292969.4375-.5625 1.125.289062-.0625.550781-.175781.78125-.34375.144531-.101563.265625-.070313.359375.09375.082031.148437.039063.242187-.125.28125zm.78125 3.671875c-.230469-.082031-.460937-.125-.6875-.125-.28125 0-.496094.054688-.640625.15625-.148438.105469-.21875.242188-.21875.40625 0 .125.039062.242188.125.34375.144531.164062.367188.25.671875.25.207031 0 .351563-.03125.4375-.09375.226563-.1640625.332031-.476562.3125-.9375zm0 0" transform="translate(368.57451 66.24422)"/><path d="m1.34375-1c.269531-.207031.675781-.519531 1.21875-.9375 0-.644531 0-1.300781 0-1.96875-.417969.042969-.742188.105469-.96875.1875-.105469.0625-.242188.03125-.40625-.09375-.25-.175781-.375-.390625-.375-.640625.019531-.101563.050781-.101563.09375 0 .101562.230469.257812.355469.46875.375.3125.023437.707031-.007813 1.1875-.09375.019531-.1875.039062-.519531.0625-1 .019531-.351563-.136719-.582031-.46875-.6875-.125-.039063-.125-.082031 0-.125.4375 0 .757812.117187.96875.34375.082031.105469.09375.1875.03125.25-.085938.085937-.136719.242187-.15625.46875-.023438.167969-.042969.386719-.0625.65625.394531-.101563.695312-.226563.90625-.375.113281-.101563.210938-.132813.296875-.09375.101563.042969.1875.085937.25.125.125.085937.082031.179687-.125.28125-.042969.023437-.183594.0625-.421875.125-.398438.105469-.710938.171875-.9375.203125-.023438.523438-.03125 1.148438-.03125 1.875.96875-.625 1.828125-.9375 2.578125-.9375.582031 0 1.019531.125 1.3125.375.289063.25.4375.605469.4375 1.0625 0 .398438-.117187.710938-.34375.9375-.292969.292969-.710937.4375-1.25.4375-.398437 0-.71875-.09375-.96875-.28125-.335937-.25-.546875-.601562-.640625-1.0625.03125-.101562.066406-.101562.109375 0 .1875.355469.363281.59375.53125.71875.25.210938.550781.3125.90625.3125.394531 0 .6875-.09375.875-.28125.226563-.226562.34375-.488281.34375-.78125 0-.375-.117187-.675781-.34375-.90625-.230469-.226562-.5625-.34375-1-.34375-.710937 0-1.558594.375-2.546875 1.125v.6875c0 .125.03125.386719.09375.78125.039062.2734375-.054688.476562-.28125.625-.167969.101562-.261719.0625-.28125-.125-.023438-.2695312-.105469-.457031-.25-.5625-.167969-.125-.34375-.257812-.53125-.40625-.105469.105469-.242188.210938-.40625.3125-.167969.105469-.292969.148438-.375.125-.167969-.039062-.25-.1875-.25-.4375 0-.226562.0625-.4375.1875-.625.0625-.0625.09375-.050781.09375.03125-.023438.292969.039062.4375.1875.4375.101562 0 .195312-.03125.28125-.09375zm1.21875.40625c0-.3125 0-.632812 0-.96875-.25.210938-.53125.449219-.84375.71875.226562.125.445312.242188.65625.34375.125.0625.1875.03125.1875-.09375zm4.015625-3.828125c-.148437-.25-.523437-.46875-1.125-.65625-.042969-.039063-.03125-.070313.03125-.09375.539063.042969.96875.15625 1.28125.34375s.507813.40625.59375.65625c.039063.117187.039063.203125 0 .265625-.0625.085938-.136719.09375-.21875.03125-.125-.09375-.261719-.140625-.40625-.140625-.148437 0-.398437.027344-.75.078125-.105469.023438-.117187-.003906-.03125-.078125.164063-.0625.351563-.125.5625-.1875.101563-.039063.125-.113281.0625-.21875zm0 0" transform="translate(376.55451 66.24422)"/><path d="m2.625-4.265625c-.230469.324219-.46875.632813-.71875.921875l.21875.0625c.207031.085938.164062.15625-.125.21875v3.625c-.273438.25-.40625.257812-.40625.03125v-3.625c-.230469.25-.617188.585938-1.15625 1-.105469.042969-.125.011719-.0625-.09375.875-.832031 1.550781-1.710938 2.03125-2.640625l.53125.375c.0625.125-.042969.167969-.3125.125zm4.921875 4.171875c-.273437.226562-.417969.414062-.4375.5625-1.835937-.023438-3.007813-.5507812-3.515625-1.59375-.230469.5625-.636719 1.0859375-1.21875 1.5625-.125.039062-.15625.007812-.09375-.09375.8125-.789062 1.238281-1.988281 1.28125-3.59375l.453125.15625c.3125.105469.304687.199219-.015625.28125-.085938.5625-.199219 1.054688-.34375 1.46875.320312.5.722656.84375 1.203125 1.03125v-3.921875h-1.671875v-.1875h2.015625l.875-1.96875.40625.25c.332031.210937.300781.3125-.09375.3125l-1.03125 1.40625h1.21875l.40625-.40625.5.375c.125.105469.125.179687 0 .21875h-2.21875v1.921875h1.25l.40625-.40625.5.375c.125.105469.125.179688 0 .21875h-2.15625v1.90625c.289063.085938.738281.125 1.34375.125zm-5.171875-5.609375c-.835938.75-1.480469 1.210937-1.9375 1.375-.125.023437-.136719-.019531-.03125-.125.5625-.375 1.15625-.957031 1.78125-1.75l.53125.375c.082031.125-.03125.167969-.34375.125zm1.984375.40625c.125.1875.1875.355469.1875.5 0 .148437-.074219.21875-.21875.21875-.105469 0-.199219-.125-.28125-.375-.117187-.375-.339844-.726563-.671875-1.0625-.085938-.101563-.0625-.132813.0625-.09375.425781.25.734375.523437.921875.8125zm0 0" transform="translate(384.53451 66.24422)"/><use x="392.57436" xlink:href="#t" y="66.24422"/><use x="400.55436" xlink:href="#m" y="66.24422"/><path d="m4.046875-2.21875c.207031-.519531.332031-1.0625.375-1.625h-.984375c-.105469.3125-.273438.648438-.5 1 .375.042969.632812.117188.78125.21875.195312.148438.304688.28125.328125.40625zm-1.828125 2.53125c-.167969.0625-.199219.03125-.09375-.09375.851562-.664062 1.457031-1.375 1.8125-2.125-.148438.023438-.28125-.082031-.40625-.3125-.085938-.207031-.304688-.382812-.65625-.53125-.085938.167969-.34375.5-.78125 1-.085938.042969-.117188.023438-.09375-.0625.832031-1.125 1.3125-2.296875 1.4375-3.515625h-1.03125v-.1875h2.390625l.40625-.40625.5.375c.125.105469.125.179687 0 .21875h-1.859375c-.105469.480469-.21875.917969-.34375 1.3125h.796875l.21875-.21875.46875.296875c.101563.105469.050781.167969-.15625.1875-.25 1.875-1.121094 3.230469-2.609375 4.0625zm.3125-6.453125c.164062.125.09375.210937-.21875.25-.230469.5-.460938.980469-.6875 1.4375l.3125.09375c.144531.105469.082031.179687-.1875.21875v4.609375c-.273438.25-.40625.257812-.40625.03125v-4.28125c-.292969.480469-.605469.90625-.9375 1.28125-.085938.042969-.105469.011719-.0625-.09375.789062-1.382812 1.300781-2.640625 1.53125-3.765625zm3.515625 1.4375c.226563.085937.175781.167969-.15625.25v3.109375c-.273437.25-.40625.261719-.40625.03125v-3.484375zm1.15625 4.546875c0 .2460938-.074219.4375-.21875.5625-.125.101562-.273437.164062-.4375.1875-.125.019531-.1875-.03125-.1875-.15625 0-.105469-.054687-.179688-.15625-.21875l-.5-.125c-.105469-.0429688-.105469-.0859375 0-.125h.8125c.1875 0 .28125-.09375.28125-.28125v-5.921875l.5625.09375c.226563.085937.175781.167969-.15625.25zm0 0" transform="translate(408.53436 66.24422)"/><use x="416.51436" xlink:href="#u" y="66.24422"/><path d="m3.75-1.375c-.023438-1.25-.054688-2.492188-.09375-3.734375 0-.3125-.03125-.507813-.09375-.59375-.085938-.125-.25-.1875-.5-.1875-.148438 0-.15625-.039063-.03125-.125.125-.019531.269531-.03125.4375-.03125.25 0 .460938.085937.640625.25.125.105469.132813.210937.03125.3125-.0625.0625-.09375.398437-.09375 1 .226563.042969.5.0625.8125.0625.394531 0 .695313-.0625.90625-.1875.125-.0625.226563-.070313.3125-.03125.1875.105469.289063.179687.3125.21875.082031.105469.03125.167969-.15625.1875-.5625.0625-.992187.09375-1.28125.09375-.4375 0-.742187-.070313-.90625-.21875.039063 1.011719.070313 2.027344.09375 3.046875.789063.1875 1.488281.40625 2.09375.65625.164063-.019531.28125.042969.34375.1875.0625.085938.09375.199219.09375.34375 0 .2070312-.105469.25-.3125.125-.773437-.5-1.511719-.832031-2.21875-1 0 .417969-.070313.699219-.203125.84375-.25.2460938-.605469.375-1.0625.375-.5625 0-.96875-.1289062-1.21875-.375-.167969-.164062-.25-.34375-.25-.53125 0-.144531.0625-.28125.1875-.40625.226562-.226562.664062-.34375 1.3125-.34375.289062 0 .570312.023438.84375.0625zm0 .28125c-.398438-.082031-.71875-.125-.96875-.125-.5 0-.835938.085938-1 .25-.085938.085938-.125.179688-.125.28125 0 .125.0625.25.1875.375.1875.1875.5.28125.9375.28125.351562 0 .613281-.082031.78125-.25.144531-.144531.207031-.414062.1875-.8125zm0 0" transform="translate(424.55421 66.24422)"/><use x="432.53421" xlink:href="#r" y="66.24422"/><use x="440.51421" xlink:href="#s" y="66.24422"/><use x="276.488983" xlink:href="#v" y="817.098402"/><path d="m3.390625-6.765625v6.09375c0 .085937.03125.152344.09375.203125.101563.074219.222656.109375.359375.109375h.9375v.359375h-3.5v-.359375h.796875c.175781 0 .300781-.039063.375-.125.082031-.082031.125-.191406.125-.328125v-4.59375c0-.09375-.039063-.171875-.109375-.234375-.074219-.070313-.167969-.109375-.28125-.109375h-1.09375v-.328125c.507812-.070313.921875-.160156 1.234375-.265625.320313-.113281.601563-.253906.84375-.421875zm0 0" transform="translate(289.268983 817.098402)"/><path d="m3.78125-3.828125c.519531.1875.894531.433594 1.125.734375.226562.304688.34375.667969.34375 1.09375 0 .53125-.167969.992188-.5 1.375-.4375.511719-1.058594.765625-1.859375.765625-.699219 0-1.257813-.171875-1.671875-.515625-.40625-.34375-.609375-.765625-.609375-1.265625 0-.382813.113281-.71875.34375-1 .238281-.289063.648437-.535156 1.234375-.734375-.855469-.363281-1.28125-.929688-1.28125-1.703125 0-.5.191406-.925781.578125-1.28125.382813-.363281.867187-.546875 1.453125-.546875.414062 0 .769531.074219 1.0625.21875.300781.136719.53125.328125.6875.578125.164062.242187.25.492187.25.75 0 .617187-.386719 1.125-1.15625 1.53125zm-.375-.125c.332031-.195313.554688-.390625.671875-.578125.125-.195312.1875-.445312.1875-.75 0-.414062-.121094-.734375-.359375-.953125-.230469-.21875-.5625-.328125-1-.328125-.429688 0-.761719.105469-1 .3125-.230469.210938-.34375.480469-.34375.8125 0 .324219.097656.585938.296875.78125.207031.199219.722656.433594 1.546875.703125zm-.859375.71875c-.460937.199219-.78125.421875-.96875.671875-.179687.242188-.265625.539062-.265625.890625 0 .460937.132812.820313.40625 1.078125.28125.25.675781.375 1.1875.375.539062 0 .957031-.125 1.25-.375.300781-.257812.453125-.597656.453125-1.015625 0-.382813-.132813-.671875-.390625-.859375-.261719-.195312-.820312-.453125-1.671875-.765625zm0 0" transform="translate(294.828983 817.098402)"/><path d="m2.796875-6.90625c.632813 0 1.160156.25 1.578125.75.53125.605469.796875 1.527344.796875 2.765625 0 1.148437-.230469 2.023437-.6875 2.625-.460937.605469-1.011719.90625-1.65625.90625-.617187 0-1.132813-.253906-1.546875-.765625-.523438-.632812-.78125-1.550781-.78125-2.75 0-1.132812.242188-2.039062.734375-2.71875.394531-.539062.914063-.8125 1.5625-.8125zm.03125.359375c-.4375 0-.777344.210937-1.015625.625-.242188.40625-.359375 1.257813-.359375 2.546875 0 1.273438.125 2.121094.375 2.546875.25.417969.582031.625 1 .625.425781 0 .753906-.191406.984375-.578125.269531-.46875.40625-1.316406.40625-2.546875 0-1.28125-.132812-2.132813-.390625-2.5625-.25-.4375-.585937-.65625-1-.65625zm0 0" transform="translate(300.388983 817.098402)"/><use x="308.730983" xlink:href="#v" y="817.098402"/></svg>