<svg height="842pt" viewBox="0 0 595.22 842" width="595.22pt" xmlns="http://www.w3.org/2000/svg" xmlns:xlink="http://www.w3.org/1999/xlink"><defs><g id="a"><path d="m5.59375-2.1875c-.054688-.394531-.289062-.753906-.703125-1.078125-.074219-.09375-.054687-.128906.0625-.109375.726563.28125 1.09375.65625 1.09375 1.125 0 .210938-.085937.3125-.25.3125-.117187 0-.183594-.082031-.203125-.25zm-2.671875-1.078125c.820313-1.175781 1.40625-2.441406 1.75-3.796875l.5625.28125c.21875.09375.148437.1875-.203125.28125-.261719.5625-.542969 1.125-.84375 1.6875l.34375.171875h2.46875v-2.46875l.59375.109375c.1875.117188.140625.199219-.140625.25v2.109375h.171875l.46875-.453125.5625.421875c.132812.117187.132812.195313 0 .234375h-1.203125v4.359375c0 .257813-.085937.460937-.25.609375-.09375.09375-.210937.140625-.34375.140625-.09375 0-.140625-.046875-.140625-.140625 0-.117188-.074219-.199219-.21875-.25l-.453125-.109375c-.09375-.042969-.09375-.0898438 0-.140625h.703125c.164062 0 .25-.0820312.25-.25v-4.21875h-2.53125v5c-.304688.28125-.453125.289062-.453125.03125v-5.03125c-.355469.523438-.699219.945312-1.03125 1.265625.070313.242187.109375.523437.109375.84375 0 .40625-.058594.703125-.171875.890625-.167969.28125-.390625.421875-.671875.421875-.09375 0-.179688-.082031-.25-.25-.09375-.09375-.1875-.148437-.28125-.171875l-.28125-.109375c-.09375-.070313-.078125-.117187.046875-.140625l.34375.0625c.113281.03125.253906.046875.421875.046875.113281 0 .21875-.082031.3125-.25.070312-.113281.109375-.289063.109375-.53125 0-.257813-.046875-.539063-.140625-.84375-.09375-.300781-.320312-.695313-.671875-1.1875l.609375-1.875h-1.234375v6.90625c-.304687.28125-.453125.289063-.453125.03125v-7.453125l.515625.3125h1.09375l.28125-.28125.453125.453125c.1875.167969.109375.242187-.234375.21875l-.84375 1.6875c.394531.324219.6875.699219.875 1.125zm0 0"/></g><g id="b"><path d="m4.578125.421875c-.3125-.558594-.714844-1.007813-1.203125-1.34375-.09375-.09375-.085938-.140625.03125-.140625 1.101562.46875 1.65625.945312 1.65625 1.421875 0 .1875-.085938.28125-.25.28125-.09375 0-.171875-.074219-.234375-.21875zm-.640625-5.375v-1.515625h-2.359375v1.515625zm.59375-1.65625c.144531.117187.097656.199219-.140625.25v5.0625c-.304687.28125-.453125.292969-.453125.03125v-.140625h-2.359375v.28125c-.304687.28125-.453125.292969-.453125.03125v-5.96875l.53125.375h2.171875l.21875-.28125zm3.703125-.28125c.1875.117187.140625.199219-.140625.25v6.53125c0 .277344-.085938.492187-.25.640625-.148438.113281-.289062.179688-.421875.203125-.148437.03125-.21875-.027344-.21875-.171875 0-.117188-.058594-.199219-.171875-.25l-.59375-.140625c-.117188-.042969-.117188-.0898438 0-.140625h.875c.207031 0 .3125-.1015625.3125-.3125v-6.71875zm-2.046875 5.65625c-.304688.28125-.453125.292969-.453125.03125v-5.015625l.59375.09375c.1875.125.140625.210938-.140625.25zm-2.25-3.515625h-2.359375v1.375h2.359375zm0 1.578125h-2.359375v1.546875h2.359375zm-1.546875 2.640625c-.65625.5898438-1.324219 1.039062-2 1.34375-.148437.039062-.183594-.007812-.109375-.140625.75-.5 1.359375-1.097656 1.828125-1.796875l.640625.421875c.113281.1875-.007812.246094-.359375.171875zm0 0"/></g><g id="c"><path d="m8.46875-7.140625c-1.074219 1.054687-1.609375 2.355469-1.609375 3.90625 0 1.542969.535156 2.847656 1.609375 3.90625l-.171875.171875c-1.292969-1.082031-1.9375-2.441406-1.9375-4.078125 0-1.644531.644531-3.003906 1.9375-4.078125zm0 0"/></g><g id="d"><path d="m4.71875-7.25c.207031.125.144531.210938-.1875.25 1.21875 1.429688 2.601562 2.34375 4.15625 2.75-.304688.117188-.515625.289062-.640625.515625-1.617187-.84375-2.820313-1.894531-3.609375-3.15625-1.03125 1.636719-2.359375 2.855469-3.984375 3.65625-.15625.042969-.1875-.003906-.09375-.140625 1.75-1.101562 2.988281-2.453125 3.71875-4.046875zm1.640625 4.5h-2.453125v3.28125c-.304688.28125-.453125.289062-.453125.03125v-3.3125h-2.015625v-.203125h4.828125l.203125-.28125.5.34375c.132812.125.085938.210937-.140625.25v1.796875c0 .28125-.085937.492188-.25.625-.148437.125-.3125.1992188-.5.21875-.136719.0195312-.203125-.0351562-.203125-.171875 0-.125-.058594-.207031-.171875-.25l-.5625-.140625c-.125-.050781-.125-.097656 0-.140625h.90625c.207031 0 .3125-.101563.3125-.3125zm-3.4375-1.6875h2.171875l.46875-.453125.5625.421875c.132812.117188.132812.199219 0 .25h-3.203125zm0 0"/></g><g id="e"><path d="m.640625-6.1875c1.46875-.238281 2.625-.53125 3.46875-.875l.5.3125c.320313.210938.203125.292969-.359375.25-.4375.0625-.90625.132812-1.40625.203125v1.515625h.75l.453125-.453125.5625.421875c.132813.117188.132813.195312 0 .234375h-1.765625v.890625c.632812.1875 1.070312.398438 1.3125.625.15625.167969.234375.320312.234375.453125 0 .21875-.070313.328125-.203125.328125-.167969 0-.296875-.109375-.390625-.328125-.167969-.34375-.484375-.65625-.953125-.9375v4.078125c-.304688.28125-.453125.289062-.453125.03125v-3.59375c-.492187.804688-1.0625 1.507812-1.71875 2.109375-.167969.09375-.214844.0625-.140625-.09375 1.007812-1.175781 1.628906-2.363281 1.859375-3.5625h-1.796875v-.203125h1.796875v-1.4375c-.5625.0625-1.148437.132812-1.75.203125-.1875-.019531-.1875-.078125 0-.171875zm7.484375 5.875c-.304688.28125-.453125.2929688-.453125.03125v-.53125h-2.078125v.84375c-.304688.28125-.453125.296875-.453125.046875v-5.734375l.515625.34375h1.90625l.203125-.28125.5.359375c.164063.117187.117187.195313-.140625.234375zm-.453125-.703125v-4.078125h-2.078125v4.078125zm0 0"/></g><g id="f"><path d="m3.03125-3.34375c.25-.257812.515625-.445312.796875-.5625.28125-.113281.5625-.171875.84375-.171875.613281 0 1.097656.1875 1.453125.5625.375.398437.5625.875.5625 1.4375s-.1875 1.03125-.5625 1.40625c-.375.398437-.9375.59375-1.6875.59375-.59375 0-1.078125-.140625-1.453125-.421875-.34375-.25-.515625-.550781-.515625-.90625 0-.207031.046875-.359375.140625-.453125s.21875-.140625.375-.140625c.144531 0 .253906.03125.328125.09375.09375.09375.140625.203125.140625.328125 0 .09375-.039063.1875-.109375.28125-.054688.09375-.078125.210937-.078125.34375 0 .1875.109375.339844.328125.453125.226562.125.492188.1875.796875.1875.5 0 .890625-.164062 1.171875-.5.28125-.300781.421875-.722656.421875-1.265625 0-.539063-.140625-.953125-.421875-1.234375s-.636719-.421875-1.0625-.421875c-.230469 0-.476562.046875-.734375.140625-.242187.09375-.484375.28125-.734375.5625l-.28125-.09375.234375-3.03125h3.453125l-.140625.5625h-3.0625zm0 0"/></g><g id="g"><path d="m1.796875-.171875c-.09375.09375-.214844.140625-.359375.140625-.136719 0-.261719-.046875-.375-.140625-.09375-.09375-.140625-.222656-.140625-.390625 0-.164062.046875-.296875.140625-.390625.113281-.09375.238281-.140625.375-.140625.144531 0 .265625.046875.359375.140625.113281.117187.171875.246094.171875.390625 0 .167969-.058594.296875-.171875.390625zm0 0"/></g><g id="h"><path d="m5.203125-3.265625c.445313-.40625.671875-.890625.671875-1.453125 0-.375-.121094-.675781-.359375-.90625-.210937-.207031-.523437-.3125-.9375-.3125-.449219 0-.792969.09375-1.03125.28125-.210937.1875-.3125.339844-.3125.453125v.171875c.019531.054688.046875.089844.078125.109375.0625.09375.117188.179687.171875.25.039063.09375.0625.1875.0625.28125 0 .136719-.046875.242187-.140625.3125-.09375.074219-.210938.109375-.34375.109375-.167969 0-.296875-.070312-.390625-.21875-.09375-.113281-.140625-.265625-.140625-.453125 0-.351563.1875-.707031.5625-1.0625.351562-.320313.859375-.484375 1.515625-.484375.632813 0 1.113281.140625 1.4375.421875.351563.28125.53125.648437.53125 1.09375 0 .625-.355469 1.199219-1.0625 1.71875-.699219.542969-1.179687.917969-1.4375 1.125-.398437.324219-.652344.558594-.765625.703125-.148438.167969-.265625.320312-.359375.453125h2.359375c.351562 0 .632812-.101563.84375-.3125.207031-.207031.359375-.453125.453125-.734375l.171875.0625-.421875 1.546875h-3.890625v-.390625c.1875-.300781.40625-.59375.65625-.875.21875-.226562.515625-.5.890625-.8125.34375-.300781.738281-.660156 1.1875-1.078125zm0 0"/></g><g id="i"><path d="m1.515625-.21875c-.117187.125-.246094.1875-.390625.1875-.136719 0-.265625-.0625-.390625-.1875-.09375-.09375-.140625-.207031-.140625-.34375 0-.144531.046875-.265625.140625-.359375.125-.113281.253906-.171875.390625-.171875.144531 0 .273438.058594.390625.171875.09375.09375.140625.214844.140625.359375 0 .136719-.046875.25-.140625.34375zm0 0"/></g><g id="j"><path d="m2.8125-5.34375v-.21875h.25c.394531 0 .757812-.054688 1.09375-.171875.320312-.113281.539062-.273437.65625-.484375h.109375v5.296875c0 .21875.046875.375.140625.46875.113281.09375.265625.140625.453125.140625h.703125v.203125h-3.265625v-.203125h.703125c.207031 0 .359375-.046875.453125-.140625s.140625-.25.140625-.46875v-3.828125c0-.132812-.046875-.273438-.140625-.421875-.0625-.113281-.1875-.171875-.375-.171875zm0 0"/></g><g id="k"><path d="m4.078125-6.828125.703125.109375c.257812.09375.203125.1875-.171875.28125v.453125c.300781 3.054687 1.648437 5.039063 4.046875 5.953125-.335938 0-.664062.140625-.984375.421875-1.78125-1.121094-2.851563-3.0625-3.203125-5.8125-.074219 1.625-.402344 2.90625-.984375 3.84375-.585937.9375-1.546875 1.695313-2.890625 2.28125-.136719.019531-.15625-.027344-.0625-.140625 1.238281-.707031 2.101562-1.515625 2.59375-2.421875.5625-1.0625.878906-2.328125.953125-3.796875zm0 0"/></g><g id="l"><path d="m1.515625-6.75h1.828125l.203125-.28125.5.34375c.132813.125.085937.210938-.140625.25v2.28125c-.304688.242188-.453125.257812-.453125.046875v-.25h-2.015625v4.921875c-.304688.28125-.453125.289062-.453125.03125v-7.65625zm-.078125.203125v.84375h2.015625v-.84375zm0 1.0625v.90625h2.015625v-.90625zm1.9375 3.234375h1.9375v-.84375h-1.9375zm0 1.1875h1.9375v-.984375h-1.9375zm.078125-2.25h1.75l.21875-.28125.484375.359375c.144531.117187.097656.199219-.140625.25v2.625c-.304687.2929688-.453125.3085938-.453125.046875v-.53125h-1.9375v.734375c-.304688.277344-.453125.289063-.453125.03125v-3.546875zm4.078125-1.265625v-.90625h-2.15625v.90625zm0-1.125v-.84375h-2.15625v.84375zm0 1.34375h-2.15625v.25c-.304688.28125-.453125.292969-.453125.03125v-2.984375l.53125.3125h1.96875l.203125-.28125.5.34375c.132812.125.085938.210938-.140625.25v6.40625c0 .277344-.085937.488281-.25.625-.136719.125-.296875.195312-.484375.21875-.148438.019531-.21875-.039062-.21875-.171875 0-.125-.058594-.210937-.171875-.25l-.59375-.140625c-.125-.054688-.125-.101562 0-.140625h.9375c.21875 0 .328125-.109375.328125-.328125zm0 0"/></g><g id="m"><path d="m1.265625-5.65625c.019531-.144531.066406-.144531.140625 0 .019531.09375.046875.210938.078125.34375h4.21875c.375-.65625.675781-1.273438.90625-1.859375l.53125.28125c.445313.210937.390625.324219-.171875.34375-.375.449219-.75.859375-1.125 1.234375h1.78125l.21875-.28125.734375.734375c.1875.1875.046875.25-.421875.1875l-.765625.484375c-.148437.117188-.195313.09375-.140625-.0625l.484375-.84375h-6.21875c-.023437.492188-.117187.851562-.28125 1.078125-.117187.167969-.234375.25-.359375.25-.210938 0-.3125-.082031-.3125-.25 0-.09375.070312-.207031.21875-.34375.320312-.332031.484375-.765625.484375-1.296875zm2.390625-1.65625c.707031.28125 1.0625.65625 1.0625 1.125 0 .210938-.074219.3125-.21875.3125-.117188 0-.199219-.066406-.25-.203125-.117188-.445313-.335938-.8125-.65625-1.09375-.167969-.144531-.148438-.191406.0625-.140625zm-1.859375.3125c.75.28125 1.125.621094 1.125 1.015625 0 .242187-.09375.359375-.28125.359375-.074219 0-.132813-.082031-.171875-.25-.167969-.46875-.402344-.796875-.703125-.984375-.074219-.09375-.0625-.140625.03125-.140625zm3.09375 4.953125h2.53125l.53125-.515625.65625.484375c.144531.117187.144531.199219 0 .25h-3.71875v1.796875c0 .277344-.085937.488281-.25.625-.167969.144531-.308594.21875-.421875.21875-.136719 0-.203125-.074219-.203125-.21875 0-.09375-.0625-.171875-.1875-.234375l-.5625-.109375c-.117187-.054688-.117187-.101562 0-.140625h.84375c.21875 0 .328125-.109375.328125-.328125v-1.609375h-3.65625v-.21875h3.65625v-1.015625l.453125.25.953125-.953125h-3.59375v-.203125h3.6875l.28125-.28125.5625.5625c.144531.136719.003906.183594-.421875.140625l-1.46875.875zm0 0"/></g><g id="n"><path d="m5.703125-6.40625c.09375.1875.140625.414062.140625.671875 0 .1875-.085938.28125-.25.28125-.148438 0-.230469-.101563-.25-.3125-.042969-.46875-.265625-.925781-.671875-1.375-.0625-.113281-.027344-.148437.109375-.109375.46875.28125.773438.5625.921875.84375zm-5.34375 5.734375c.601563-.957031 1-1.894531 1.1875-2.8125h-.90625v-.203125h.9375c.070313-.28125.132813-.679688.1875-1.203125h-1.3125v-.203125h1.3125c.019531-.351562.03125-.753906.03125-1.203125h-1.09375v-.203125h2.46875l.28125-.28125.375.375c.144531.125.097656.210938-.140625.25v1.0625h.328125l.453125-.46875.5625.46875h1.296875l.875-2.21875.609375.390625c.132812.1875.050781.246094-.25.171875l-1.015625 1.65625h.875l.453125-.46875.5625.421875c.144531.125.144531.210937 0 .25h-2.03125v1.515625h.703125l.453125-.453125.5625.421875c.132812.117188.132812.195312 0 .234375h-1.71875v1.625h1.046875l.453125-.453125.5625.421875c.144531.117187.144531.195313 0 .234375h-2.0625v1.90625c-.3125.28125-.46875.289062-.46875.03125v-1.9375h-1.640625v-.203125h1.640625v-1.625h-1.359375v-.203125h1.359375v-1.515625h-2.25v1.6875c-.304688.28125-.453125.292969-.453125.03125v-.3125h-1.234375c-.0625.335937-.132812.605469-.203125.8125l.171875.171875h1.296875l.21875-.28125.484375.359375c.144531.117187.097656.195313-.140625.234375v2.21875c-.304687.28125-.453125.296875-.453125.046875v-.296875h-1.375v.609375c-.304688.28125-.453125.289063-.453125.03125v-2.671875c-.230469.636719-.59375 1.1875-1.09375 1.65625-.136719.09375-.167969.070312-.09375-.078125zm1.890625-5.625c0 .449219-.011719.851563-.03125 1.203125h1.015625v-1.203125zm-.25 5.875h1.375v-1.859375h-1.375zm1.234375-3.265625v-1.203125h-1.015625c-.054688.523437-.109375.921875-.171875 1.203125zm0 0"/></g><g id="o"><path d="m8.40625-1.484375c0 .5-.152344.875-.453125 1.125-.242187.167969-.429687.25-.5625.25-.167969 0-.25-.082031-.25-.25 0-.09375-.074219-.160156-.21875-.203125l-.421875-.140625c-.0625-.050781-.0625-.085937 0-.109375l.359375.03125c.226563.054688.4375.070312.625.046875.144531-.03125.253906-.101563.328125-.21875.0625-.1875.09375-.421875.09375-.703125 0-.695312-.351562-1.421875-1.046875-2.171875l.671875-2.296875h-1.453125v6.71875c-.304687.28125-.453125.296875-.453125.046875v-7.21875l.53125.25h1.375l.171875-.25.59375.421875c.144531.167969.0625.242188-.25.21875l-.984375 2.109375c.894531.792969 1.34375 1.574219 1.34375 2.34375zm-4.71875-.59375h-1.96875v1.578125h1.96875zm-1.96875 1.796875v.78125c-.304688.28125-.453125.289062-.453125.03125v-3.09375l.53125.28125h1.828125l.203125-.25.46875.3125c.132813.117188.085937.199219-.140625.25v2c-.3125.28125-.46875.296875-.46875.046875v-.359375zm1.234375-5.5625h1.125l.453125-.453125.53125.421875c.144531.117188.144531.199219 0 .25h-4.53125v-.21875h1.96875v-1.40625l.59375.109375c.1875.117187.140625.199219-.140625.25zm-1.6875.421875c.5625.429687.84375.875.84375 1.34375 0 .261719-.085937.390625-.25.390625-.117187 0-.183594-.117188-.203125-.359375-.054688-.539063-.203125-.960937-.453125-1.265625-.074219-.09375-.054687-.128906.0625-.109375zm-.8125 1.96875h2.671875l.609375-1.921875.625.171875c.1875.136719.101563.230469-.25.28125l-.796875 1.46875h.9375l.46875-.453125.5625.421875c.132812.117187.132812.199219 0 .25h-4.828125zm0 0"/></g><g id="p"><path d="m1.859375-6.921875.53125.3125h4.5l.25-.3125.5625.375c.1875.148437.101563.242187-.25.28125v1.515625c-.304687.28125-.453125.292969-.453125.03125v-.3125h-4.671875v1.15625h5.15625l.25-.3125.5625.390625c.1875.136719.101563.230469-.25.28125v1.546875c0 1.148438-.152344 1.8984375-.453125 2.25-.167969.1875-.367188.316406-.59375.390625-.304688.09375-.453125.054687-.453125-.109375 0-.117188-.074219-.210938-.21875-.28125l-.421875-.171875c-.09375-.09375-.085938-.140625.03125-.140625l.75.140625c.34375.039063.585938-.125.734375-.5.113281-.394531.171875-1.039063.171875-1.9375v-1.328125h-5.265625c-.148437 1.898438-.679687 3.238281-1.59375 4.015625-.15625.0625-.203125.023437-.140625-.109375.84375-1.101562 1.265625-2.554688 1.265625-4.359375zm1.765625 5.9375v.671875c-.304688.28125-.453125.2929688-.453125.03125v-2.671875l.515625.203125h1.6875l.21875-.28125.484375.359375c.144531.117187.097656.199219-.140625.25v1.75c-.304688.28125-.453125.292969-.453125.03125v-.34375zm0-1.546875v1.328125h1.859375v-1.328125zm-1.296875-3.875v1.171875h4.671875v-1.171875zm0 0"/></g><g id="q"><path d="m.640625-5.625c-.074219-.09375-.054687-.128906.0625-.109375.257813.074219.492187.167969.703125.28125l.953125-1.9375.625.421875c.070313.125-.03125.164062-.3125.109375l-1.125 1.515625c.257813.1875.390625.367188.390625.53125 0 .210938-.046875.3125-.140625.3125-.117187 0-.199219-.046875-.25-.140625-.167969-.332031-.46875-.660156-.90625-.984375zm3.4375 4c.09375.148438.140625.289062.140625.421875 0 .1875-.058594.28125-.171875.28125-.148437 0-.242187-.09375-.28125-.28125-.054687-.207031-.265625-.582031-.640625-1.125-.0625-.113281-.039062-.144531.078125-.09375.351563.1875.644531.453125.875.796875zm3.65625 1.171875h-2.640625v.875c-.304688.28125-.453125.289063-.453125.03125v-6.921875l.53125.25h2.453125l.21875-.28125.484375.34375c.144531.117188.097656.199219-.140625.25v5.765625c-.304688.277344-.453125.289063-.453125.03125zm-1.09375-5.5625v2.46875h1.09375v-2.46875zm-1.546875 0v2.46875h1.09375v-2.46875zm0 5.34375h1.09375v-2.671875h-1.09375zm1.546875 0h1.09375v-2.671875h-1.09375zm-4.78125-1.609375c.21875.117188.160156.195312-.171875.234375-.230469.992187-.59375 1.792969-1.09375 2.40625-.136719.09375-.167969.054687-.09375-.109375.394531-.84375.640625-1.757812.734375-2.75zm2.046875-3.34375c.070312.136719-.046875.183594-.359375.140625l-1.546875 2.109375 1.59375-.109375c-.148438-.28125-.304688-.503906-.46875-.671875-.0625-.09375-.027344-.113281.109375-.0625.445313.304688.738281.574219.875.8125.070313.117188.109375.230469.109375.34375 0 .1875-.070312.28125-.203125.28125-.125 0-.210937-.082031-.25-.25-.054687-.15625-.089844-.257812-.109375-.3125l-.90625.140625v3.625c-.3125.28125-.46875.289063-.46875.03125v-3.578125l-1.1875.203125c-.148438.28125-.265625.328125-.359375.140625l-.28125-.5625 1.34375-.03125 1.46875-2.671875zm0 0"/></g><g id="r"><path d="m7.140625-2.21875c.113281.148438.039063.203125-.21875.171875-.28125 1.179687-.574219 1.917969-.875 2.21875-.324219.332031-.640625.519531-.953125.5625-.28125.070313-.421875.003906-.421875-.203125 0-.167969-.105469-.296875-.3125-.390625l-.421875-.21875c-.074219-.0625-.046875-.09375.078125-.09375l.90625.203125c.207031 0 .382813-.0234375.53125-.0625.132813-.0507812.273437-.179688.421875-.390625.207031-.425781.40625-1.015625.59375-1.765625h-3.203125l-.65625 1.3125c-.375.136719-.515625.101562-.421875-.109375.414062-.800781.789062-1.625 1.125-2.46875h-2.640625v-.203125h6.8125l.53125-.53125.671875.5c.132812.117188.132812.195312 0 .234375h-4.890625l-.453125 1.0625h2.984375l.3125-.3125zm-4.71875-4.8125.53125.25h2.984375l.25-.328125.5625.390625c.1875.148438.101562.242188-.25.28125v1.96875c-.304688.28125-.453125.292969-.453125.03125v-.3125h-3.15625v.421875c-.3125.28125-.46875.292969-.46875.03125zm3.625 2.078125v-1.625h-3.15625v1.625zm0 0"/></g><g id="s"><path d="m.671875-7.3125c1.289063 1.074219 1.9375 2.433594 1.9375 4.078125 0 1.636719-.648437 2.996094-1.9375 4.078125l-.171875-.171875c1.070312-1.058594 1.609375-2.363281 1.609375-3.90625 0-1.550781-.539063-2.851563-1.609375-3.90625zm0 0"/></g><g id="t"><path d="m4.046875-.53125h1.71875c.375 0 .664063-.019531.875-.0625.21875-.050781.335937-.078125.359375-.078125.132812 0 .273438.09375.421875.28125.132813.1875.050781.28125-.25.28125-1.054687 0-2.105469 0-3.15625 0-.84375 0-1.480469-.242187-1.90625-.734375-.261719-.300781-.421875-.675781-.484375-1.125.039062-.09375.085938-.082031.140625.03125.113281.304688.285156.574219.515625.8125.40625.398438.992188.59375 1.765625.59375zm2.171875-5.0625c.070312.074219.144531.15625.21875.25.113281.167969.066406.25-.140625.25-.167969 0-.414063 0-.734375 0-.28125 0-.542969.03125-.78125.09375-.46875.148438-.984375.371094-1.546875.671875-.136719.074219-.171875.054687-.109375-.0625.351562-.28125.765625-.53125 1.234375-.75-.5625-.039063-.996094-.132813-1.296875-.28125-.398438-.1875-.6875-.429687-.875-.734375 0-.113281.046875-.125.140625-.03125.34375.398438 1.054687.59375 2.140625.59375.769531 0 1.257812-.035156 1.46875-.109375.09375-.019531.1875.015625.28125.109375zm0 0"/></g><g id="u"><path d="m4.15625-5.765625c.207031.117187.40625.265625.59375.453125.164062.167969.128906.273438-.109375.3125-.585937 1.667969-1.15625 2.902344-1.71875 3.703125-.148437.210937-.296875.371094-.453125.484375-.261719.1875-.4375.167969-.53125-.0625-.304688-.09375-.527344-.269531-.671875-.53125-.1875-.332031-.28125-.71875-.28125-1.15625 0-.9375.289063-1.703125.875-2.296875.78125-.769531 1.71875-1.15625 2.8125-1.15625 1.175781 0 2.09375.328125 2.75.984375.46875.46875.703125 1.058594.703125 1.765625 0 .625-.226562 1.1875-.671875 1.6875-.636719.699219-1.585937 1.152344-2.84375 1.359375-.09375-.039062-.09375-.085938 0-.140625 1.050781-.25 1.859375-.703125 2.421875-1.359375.375-.445312.5625-.976562.5625-1.59375 0-.625-.164062-1.125-.484375-1.5-.65625-.75-1.640625-1.066406-2.953125-.953125zm-1.65625 4.421875c.675781-1.03125 1.210938-2.28125 1.609375-3.75.070313-.28125.015625-.492188-.171875-.640625-.605469.09375-1.140625.375-1.609375.84375-.617187.617187-.921875 1.328125-.921875 2.140625 0 .710938.128906 1.195312.390625 1.453125.113281.117187.226563.171875.34375.171875.09375 0 .210937-.070312.359375-.21875zm0 0"/></g><g id="v"><path d="m8.125-.21875c-.65625-.394531-1.164062-.648438-1.515625-.765625-.074219.375-.234375.648437-.484375.8125-.242188.16796875-.558594.25-.953125.25-.523437 0-.898437-.1171875-1.125-.359375-.167969-.164062-.25-.351562-.25-.5625 0-.164062.09375-.316406.28125-.453125.238281-.164063.601563-.25 1.09375-.25.394531 0 .742187.039063 1.046875.109375 0-1.3125-.023438-2.320312-.0625-3.03125-.824219.117188-1.527344.171875-2.109375.171875-.210937 0-.386719-.054687-.53125-.171875-.28125-.257812-.445313-.484375-.484375-.671875-.03125-.113281 0-.132813.09375-.0625.257812.398437.578125.59375.953125.59375.488281 0 1.171875-.054687 2.046875-.171875-.03125-.582031-.058594-.984375-.078125-1.203125-.023437-.25-.246094-.390625-.671875-.421875-.210938 0-.21875-.046875-.03125-.140625.164062-.0625.351562-.082031.5625-.0625.238281.023437.460938.105469.671875.25.09375.0625.082031.15625-.03125.28125-.054687.042969-.078125.15625-.078125.34375 0 .261719.007812.554687.03125.875.707031-.09375 1.097656-.160156 1.171875-.203125.113281-.070312.226563-.070312.34375 0 .113281.074219.195313.132812.25.171875.070313.09375.035156.152344-.109375.171875-.5625.09375-1.101562.167969-1.609375.21875.0625 1.105469.09375 2.148438.09375 3.125.519531.1875 1.023437.375 1.515625.5625.113281.054688.1875.125.21875.21875.039062.136719.050781.242188.03125.3125-.054688.136719-.148438.15625-.28125.0625zm-5.875-5.515625c.09375.09375.09375.1875 0 .28125-.042969.054687-.101562.183594-.171875.390625-.46875 1.335938-.703125 2.367188-.703125 3.09375 0 .398438.019531.632812.0625.703125.050781.074219.097656.0625.140625-.03125.257813-.65625.53125-1.265625.8125-1.828125.113281-.03125.148437 0 .109375.09375-.242188.542969-.429688 1.085938-.5625 1.625-.074219.28125-.109375.507812-.109375.671875 0 .25.007813.507813.03125.765625.03125.238281-.046875.359375-.234375.359375-.125 0-.21875-.105469-.28125-.3125-.1875-.570313-.273438-1.300781-.25-2.1875.019531-.957031.179688-1.96875.484375-3.03125.050781-.15625.078125-.34375.078125-.5625 0-.226563-.140625-.398437-.421875-.515625-.117187-.050781-.117187-.085938 0-.109375.207031 0 .382813.046875.53125.140625.0625.042969.222656.195312.484375.453125zm3.9375 4.640625c-.355469-.132812-.71875-.203125-1.09375-.203125-.46875 0-.78125.078125-.9375.234375-.074219.074219-.109375.15625-.109375.25 0 .148438.035156.25.109375.3125.207031.21875.507812.328125.90625.328125.375 0 .632812-.070313.78125-.21875.207031-.207031.320312-.441406.34375-.703125zm0 0"/></g><g id="w"><path d="m1.71875-.140625c-.136719-.238281-.417969-.546875-.84375-.921875-.117188-.09375-.101562-.140625.046875-.140625.5625.167969 1.085937.496094 1.578125.984375.207031.21875.3125.429688.3125.640625 0 .144531-.046875.265625-.140625.359375-.074219.0625-.140625.09375-.203125.09375-.125 0-.21875-.070312-.28125-.203125-.125-.210937-.28125-.480469-.46875-.8125zm0 0"/></g><g id="x"><path d="m4.390625-1.90625h-3.71875v-.203125h1.265625v-2.328125l.53125.359375h1.921875v-1.71875h-2c-.492187 1-1.15625 1.820313-2 2.453125-.09375.023438-.121094-.015625-.078125-.109375 1.0625-1.144531 1.734375-2.382813 2.015625-3.71875l.65625.25c.3125.136719.242187.230469-.203125.28125-.09375.210937-.1875.417969-.28125.625h4.421875l.46875-.453125.5625.421875c.132813.117187.132813.199219 0 .25h-3.09375v1.71875h1.75l.453125-.453125.5625.421875c.144531.117187.144531.195313 0 .234375h-2.765625v1.765625h2.53125l.515625-.53125.671875.5c.144531.117187.144531.195313 0 .234375h-3.71875v2.546875c-.3125.28125-.46875.289063-.46875.03125zm-2-1.96875v1.765625h2v-1.765625zm0 0"/></g><g id="y"><path d="m2.421875-2h2.75v-3.484375h-.03125l-2.71875 3.4375zm2.15625 1.6875c.207031 0 .359375-.046875.453125-.140625s.140625-.25.140625-.46875v-.65625h-3.171875v-.28125l3.375-4.328125h.46875v4.1875h.9375v.421875h-.9375v.65625c0 .21875.046875.375.140625.46875.113281.09375.265625.140625.453125.140625h.3125v.203125h-2.5v-.203125zm0 0"/></g><g id="z"><path d="m2.1875-.5c-.449219.4492188-.964844.789062-1.546875 1.03125-.148437.019531-.171875-.015625-.078125-.109375.769531-.4648438 1.296875-.9375 1.578125-1.40625.351563-.582031.53125-1.265625.53125-2.046875v-3.9375l.53125.328125h2.703125l.21875-.28125.484375.34375c.144531.117187.097656.199219-.140625.25v6.015625c0 .2617188-.085938.46875-.25.625-.136719.144531-.308594.21875-.515625.21875-.09375 0-.140625-.085938-.140625-.25 0-.09375-.0625-.152344-.1875-.171875l-.59375-.140625c-.117188-.070312-.117188-.117188 0-.140625h.921875c.207031 0 .3125-.109375.3125-.328125v-1.96875h-2.890625c-.09375.78125-.40625 1.4375-.9375 1.96875zm.9375-3.9375v1.765625h2.890625v-1.765625zm0-2v1.796875h2.890625v-1.796875zm0 0"/></g><g id="A"><path d="m2.921875-6.15625h3.15625l.21875-.28125.484375.359375c.144531.117187.097656.195313-.140625.234375v5.625c-.304687.2890625-.453125.3046875-.453125.046875v-.640625h-3.34375v1.0625c-.304688.28125-.453125.289062-.453125.03125v-6.828125zm3.265625.21875h-3.34375v2.203125h3.34375zm0 2.421875h-3.34375v2.5h3.34375zm0 0"/></g><g id="B"><path d="m4.109375-4.640625c-.25 0-.507813.023437-.765625.0625-.542969 1.25-1.09375 2.496094-1.65625 3.734375-.074219.117188-.179688.351562-.3125.703125-.074219.1835938-.15625.28125-.25.28125-.074219 0-.132812-.0585938-.171875-.171875-.023437-.0507812-.03125-.144531-.03125-.28125 0-.21875.066406-.394531.203125-.53125.144531-.144531.3125-.40625.5-.78125.507812-1 .960938-1.957031 1.359375-2.875-.699219.136719-1.140625.25-1.328125.34375-.148438.074219-.277344.0625-.390625-.03125-.230469-.164062-.34375-.410156-.34375-.734375.019531-.070313.050781-.070313.09375 0 .125.261719.3125.390625.5625.390625.164063 0 .671875-.070312 1.515625-.21875.113281-.257812.234375-.53125.359375-.8125.113281-.320312.097656-.566406-.046875-.734375-.117188-.132813-.304688-.21875-.5625-.25-.09375-.039063-.09375-.085937 0-.140625.238281 0 .40625.015625.5.046875.257812.0625.484375.1875.671875.375.207031.21875.191406.351563-.046875.390625-.15625.375-.328125.742188-.515625 1.09375.320313-.050781.539063-.078125.65625-.078125.3125 0 .535156.085937.671875.25.207031.261719.3125.695313.3125 1.296875 0 1.8125-.433594 2.945312-1.296875 3.390625-.230469.113281-.34375.0625-.34375-.15625 0-.15625-.046875-.269531-.140625-.34375-.21875-.164063-.453125-.34375-.703125-.53125-.054687-.09375-.03125-.128906.0625-.109375.257813.148438.53125.289062.8125.421875.226563.125.4375.058594.625-.203125.21875-.300781.375-.675781.46875-1.125.113281-.5625.171875-1.078125.171875-1.546875 0-.425781-.039062-.707031-.109375-.84375-.09375-.1875-.273437-.28125-.53125-.28125zm2.25-.21875c-.117187-.09375-.089844-.125.078125-.09375.394531.15625.816406.414063 1.265625.765625.582031.46875.910156 1.042969.984375 1.71875.019531.242188-.015625.417969-.109375.53125-.136719.1875-.277344.179688-.421875-.03125-.136719-.238281-.3125-.34375-.53125-.3125-.324219.023438-.664062.042969-1.015625.0625-.136719-.019531-.148437-.066406-.03125-.140625.375-.039063.769531-.097656 1.1875-.171875.164063-.019531.238281-.09375.21875-.21875-.054687-.375-.230469-.757812-.53125-1.15625-.28125-.375-.648437-.691406-1.09375-.953125zm0 0"/></g><g id="C"><path d="m2.640625-2.140625c.820313-.875 1.722656-1.3125 2.703125-1.3125.800781 0 1.398438.203125 1.796875.609375.300781.304688.453125.664062.453125 1.078125 0 .46875-.164062.871094-.484375 1.203125-.6875.6523438-1.980469.972656-3.875.953125-.136719-.074219-.136719-.148437 0-.21875 1.707031-.042969 2.867187-.367187 3.484375-.984375.257812-.257812.390625-.597656.390625-1.015625 0-.375-.09375-.65625-.28125-.84375-.375-.375-.84375-.5625-1.40625-.5625-.804687 0-1.484375.28125-2.046875.84375-.355469.355469-.5625.695313-.625 1.015625-.054688.210938-.164062.265625-.328125.171875-.25-.132813-.367187-.425781-.34375-.875.019531-.582031.078125-1.109375.171875-1.578125.050781-.257812.078125-.519531.078125-.78125 0-.15625-.039063-.296875-.109375-.421875-.074219-.113281-.0625-.238281.03125-.375.1875-.28125.503906-.46875.953125-.5625.207031-.050781.488281-.078125.84375-.078125.039063 0 .050781-.019531.03125-.0625-.023437-.070312-.105469-.117188-.25-.140625-.511719-.09375-.898437-.410156-1.15625-.953125.019531-.070312.054687-.082031.109375-.03125.28125.34375.769531.589844 1.46875.734375.445312.09375.695312.328125.75.703125.019531.210938-.074219.265625-.28125.171875-.3125-.132813-.574219-.203125-.78125-.203125-.65625 0-1.117188.125-1.375.375-.15625.167969-.15625.335938 0 .5.144531.136719.179688.324219.109375.5625-.136719.46875-.195313 1.164062-.171875 2.078125 0 .136719.046875.136719.140625 0zm0 0"/></g><g id="D"><path d="m2.921875-3.765625h-.78125c-.117187 2.085937-.699219 3.507813-1.75 4.265625-.09375.019531-.132813-.007812-.109375-.078125.894531-.914063 1.363281-2.394531 1.40625-4.4375v-1.265625h-1.375v-.203125h1.40625v-1.65625l.640625.109375c.257813.09375.203125.1875-.171875.28125v1.265625h.734375l.390625-.390625.484375.359375c.144531.117187.144531.195313 0 .234375h-1.65625v1.3125h.671875l.28125-.28125.453125.453125c.164063.117187.109375.183594-.171875.203125v1.171875l.875-.359375v-1.265625l.609375.109375c.1875.117188.140625.199219-.140625.25v.734375l.9375-.390625v-1.515625l.609375.109375c.1875.117188.140625.199219-.140625.25v.953125l.984375-.421875.3125-.328125.453125.46875c.164062.117187.097656.195313-.203125.234375v2.015625c0 .1875-.046875.328125-.140625.421875-.074219.0625-.195312.121094-.359375.171875-.136719.042969-.203125-.003906-.203125-.140625 0-.070312-.046875-.128906-.140625-.171875l-.421875-.109375c-.054688-.050781-.054688-.085938 0-.109375h.5625c.15625 0 .234375-.082031.234375-.25v-2.03125l-1.078125.453125v2.5625c-.3125.28125-.46875.296875-.46875.046875v-2.390625l-.9375.375v2.671875c0 .1015625.046875.15625.140625.15625h2.671875c.226562 0 .351562-.08203125.375-.25l.21875-1.09375c.039062-.050781.078125-.050781.109375 0v1.09375c0 .1171875.046875.1953125.140625.25.15625.0625.15625.164063 0 .3125-.074219.070313-.289062.109375-.640625.109375h-3.0625c-.28125 0-.421875-.140625-.421875-.421875v-2.640625l-.875.34375v.28125c0 .773438-.09375 1.34375-.28125 1.71875-.136719.2578125-.3125.4375-.53125.53125-.210938.09375-.3125.046875-.3125-.140625.019531-.09375-.039062-.17578125-.171875-.25l-.5-.203125c-.0625-.070312-.046875-.109375.046875-.109375l.59375.140625c.226562.054688.390625-.03125.484375-.25.144531-.28125.21875-.769531.21875-1.46875zm4.421875-1.9375.5-.484375.625.453125c.144531.117187.144531.199219 0 .25h-3.828125c-.304687.636719-.605469 1.125-.90625 1.46875-.09375.054687-.132813.03125-.109375-.0625.507812-.988281.894531-2.078125 1.15625-3.265625l.734375.234375c.164063.148437.050781.257813-.34375.328125-.167969.417969-.320313.777344-.453125 1.078125zm0 0"/></g><g id="E"><path d="m3.0625-6.859375c.226562.210937.144531.292969-.25.25-.679688.730469-1.449219 1.351563-2.3125 1.859375-.167969.074219-.214844.039062-.140625-.109375.9375-.75 1.695313-1.546875 2.28125-2.390625zm3.6875 2.609375v4c0 .2773438-.085938.492188-.25.640625-.136719.113281-.277344.179687-.421875.203125-.136719.03125-.203125-.027344-.203125-.171875 0-.117187-.058594-.199219-.171875-.25l-.640625-.140625c-.117188-.0390625-.117188-.0859375 0-.140625h.921875c.207031 0 .3125-.101563.3125-.3125v-3.828125h-2.921875v-.21875h4.1875l.421875-.421875.5625.390625c.132813.117188.132813.199219 0 .25zm-3.265625-.84375c.113281.1875-.007813.246094-.359375.171875-.25.375-.53125.742187-.84375 1.09375l.21875.0625c.1875.117187.140625.199219-.140625.25v4.046875c-.304687.28125-.453125.289062-.453125.03125v-3.96875c-.449219.46875-.953125.867188-1.515625 1.1875-.117187 0-.140625-.046875-.078125-.140625.96875-.75 1.847656-1.800781 2.640625-3.15625zm.53125-1.3125h3.046875l.390625-.375.5.34375c.132813.117188.132813.199219 0 .25h-3.9375zm0 0"/></g><g id="F"><path d="m5.171875-6.359375c-.074219.0625-.109375.460937-.109375 1.1875 1.050781-.070313 1.753906-.128906 2.109375-.171875.144531-.019531.378906-.066406.703125-.140625.113281-.019531.234375.015625.359375.109375.25.210938.390625.351562.421875.421875.039062.136719-.03125.183594-.21875.140625-.46875-.125-1.070312-.1875-1.796875-.1875-.4375 0-.964844.027344-1.578125.078125v1.515625c.070312.230469.109375.558594.109375.984375 0 1.46875-.648437 2.535156-1.9375 3.203125-.117187.019531-.136719-.015625-.0625-.109375.28125-.210937.523437-.433594.734375-.671875.507812-.582031.78125-1.285156.8125-2.109375-.1875.28125-.4375.421875-.75.421875-.25 0-.484375-.101562-.703125-.3125-.15625-.164062-.234375-.414062-.234375-.75 0-.320312.113281-.601562.34375-.84375.1875-.1875.421875-.28125.703125-.28125.207031 0 .394531.046875.5625.140625 0-.375 0-.757813 0-1.15625-1.242187.1875-2.167969.375-2.78125.5625-.230469.074219-.390625.132813-.484375.171875-.148438.074219-.277344.0625-.390625-.03125-.261719-.1875-.449219-.457031-.5625-.8125 0-.113281.046875-.125.140625-.03125.113281.210938.335938.3125.671875.3125.320313 0 .828125-.054688 1.515625-.171875.53125-.09375 1.160156-.175781 1.890625-.25 0-.300781 0-.613281 0-.9375 0-.539063-.234375-.835937-.703125-.890625-.09375-.039062-.09375-.085938 0-.140625.394531-.039063.710938.023437.953125.1875.113281.0625.21875.167969.3125.3125.09375.117187.082031.199219-.03125.25zm-1.09375 2.671875c-.261719 0-.449219.09375-.5625.28125-.117187.15625-.171875.355469-.171875.59375 0 .375.09375.648438.28125.8125.070312.0625.1875.09375.34375.09375.164062 0 .296875-.046875.390625-.140625.207031-.207031.3125-.5.3125-.875 0-.507813-.199219-.765625-.59375-.765625zm0 0"/></g><g id="G"><path d="m1.484375-1.828125c0-.1875.09375-.363281.28125-.53125.15625-.132813 1.253906-1.328125 3.296875-3.578125.070312-.050781.050781-.085938-.0625-.109375-.5625.09375-1.125.234375-1.6875.421875-.167969.09375-.296875.140625-.390625.140625-.054687 0-.171875-.070313-.359375-.21875-.230469-.1875-.355469-.394531-.375-.625 0-.113281.046875-.125.140625-.03125.132813.210937.367187.3125.703125.3125.300781 0 .488281-.007813.5625-.03125.46875-.070313.921875-.15625 1.359375-.25.238281-.050781.414063-.125.53125-.21875.050781-.0625.109375-.09375.171875-.09375.125 0 .253906.058594.390625.171875.113281.09375.171875.179688.171875.25 0 .042969-.105469.101562-.3125.171875-.261719.117187-1.070312.886719-2.421875 2.3125-.074219.125-.039063.152344.109375.078125.488281-.1875.988281-.28125 1.5-.28125.78125 0 1.40625.234375 1.875.703125.320312.324219.484375.757813.484375 1.296875 0 .636719-.1875 1.140625-.5625 1.515625-.5625.558594-1.359375.84375-2.390625.84375-.65625 0-1.117188-.132813-1.375-.390625-.210938-.207031-.3125-.414062-.3125-.625 0-.1875.070312-.351562.21875-.5.15625-.164062.398438-.25.734375-.25.394531 0 .757813.167969 1.09375.5.207031.210938.347656.5.421875.875.4375-.0898438.820312-.300781 1.15625-.625.351562-.351562.53125-.773438.53125-1.265625 0-.539063-.167969-.976563-.5-1.3125-.375-.375-.902344-.5625-1.578125-.5625-.75 0-1.511719.390625-2.28125 1.171875-.3125.304688-.5625.605469-.75.90625-.042969.09375-.121094.140625-.234375.140625-.09375 0-.140625-.101563-.140625-.3125zm3.234375 1.96875c-.03125-.425781-.152344-.742187-.359375-.953125-.1875-.1875-.414063-.28125-.671875-.28125-.417969 0-.625.167969-.625.5 0 .136719.066406.277344.203125.421875.21875.2070312.703125.3125 1.453125.3125zm0 0"/></g><g id="H"><path d="m2.25-1.015625c.207031.210937.3125.476563.3125.796875 0 .332031-.105469.601562-.3125.8125-.210938.21875-.480469.328125-.8125.328125-.324219 0-.589844-.109375-.796875-.328125-.21875-.210938-.328125-.480469-.328125-.8125 0-.320312.109375-.585938.328125-.796875.207031-.21875.472656-.328125.796875-.328125.332031 0 .601562.109375.8125.328125zm-.171875 1.4375c.164063-.167969.25-.3828125.25-.640625 0-.25-.085937-.457031-.25-.625-.167969-.164062-.382813-.25-.640625-.25-.25 0-.460938.085938-.625.25-.167969.167969-.25.375-.25.625 0 .2578125.082031.472656.25.640625.164062.164063.375.25.625.25.257812 0 .472656-.085937.640625-.25zm0 0"/></g><g id="I"><path d="m3.65625-1.578125h-2v2.078125c-.304688.28125-.453125.289062-.453125.03125v-5.25l.515625.25h1.828125l.21875-.28125.484375.359375c.144531.117187.097656.195313-.140625.234375v4.046875c0 .257813-.078125.460937-.234375.609375-.09375.09375-.214844.140625-.359375.140625-.09375 0-.140625-.0625-.140625-.1875 0-.117187-.070312-.195313-.203125-.234375l-.46875-.078125c-.09375-.0429688-.09375-.0898438 0-.140625h.703125c.164062 0 .25-.0820312.25-.25zm4.15625 1.46875c0 .257813-.085938.460937-.25.609375-.09375.09375-.214844.140625-.359375.140625-.09375 0-.140625-.0625-.140625-.1875 0-.117187-.070312-.195313-.203125-.234375l-.5-.078125c-.09375-.0429688-.09375-.0898438 0-.140625h.75c.15625 0 .234375-.0820312.234375-.25v-4.5l.609375.109375c.1875.117187.140625.199219-.140625.25zm-1.171875-6.859375c.125.1875.007813.25-.34375.1875l-.84375 1.21875h2.078125l.453125-.453125.5625.421875c.132813.117188.132813.199219 0 .25h-8.015625v-.21875h4.703125l.75-1.828125zm-3.609375.890625c-.167969-.351563-.429688-.648437-.78125-.890625-.09375-.09375-.070312-.125.078125-.09375.488281.1875.828125.375 1.015625.5625.164062.15625.25.320312.25.484375 0 .1875-.085938.28125-.25.28125-.09375 0-.199219-.113281-.3125-.34375zm2.984375 1.6875c.1875.117187.140625.195313-.140625.234375v3.484375c-.304688.28125-.453125.292969-.453125.03125v-3.859375zm-2.359375 1.265625v-1.125h-2v1.125zm0 1.328125v-1.125h-2v1.125zm0 0"/></g><g id="J"><path d="m5.625-.875h1.09375c.375 0 .664062-.046875.875-.140625.238281-.09375.425781-.023437.5625.203125.09375.167969.035156.261719-.171875.28125-.1875.023438-.46875.03125-.84375.03125-.46875 0-.9375 0-1.40625 0-.75 0-1.277344-.148438-1.578125-.453125-.3125-.300781-.46875-.675781-.46875-1.125 0-.132813.015625-.320313.046875-.5625.039063-.09375.085937-.09375.140625 0 .019531.65625.132812 1.089844.34375 1.296875.300781.3125.769531.46875 1.40625.46875zm1.625-4.359375c-.78125 0-1.59375.386719-2.4375 1.15625-.09375.074219-.125.046875-.09375-.078125.25-.375.578125-.6875.984375-.9375.09375-.070312.078125-.109375-.046875-.109375-.75.042969-1.34375-.078125-1.78125-.359375-.125-.09375-.105469-.125.0625-.09375.394531.09375.734375.140625 1.015625.140625.65625 0 1.300781-.070313 1.9375-.21875.28125-.070313.46875-.023437.5625.140625.144531.242188.078125.359375-.203125.359375zm-4.75 2.03125c.113281-.019531.148438.015625.109375.109375-.1875.375-.367187.929688-.53125 1.65625-.09375.398438-.09375.726562 0 .984375.113281.324219.148437.546875.109375.671875-.074219.132812-.183594.15625-.328125.0625-.4375-.3007812-.65625-1.097656-.65625-2.390625 0-.863281.125-1.882813.375-3.0625.050781-.207031.078125-.460937.078125-.765625 0-.3125-.121094-.5-.359375-.5625-.117187-.09375-.089844-.140625.078125-.140625.351562.09375.625.292969.8125.59375.039062.074219.039062.179687 0 .3125-.28125.824219-.449219 1.351563-.5 1.578125-.136719.617188-.203125 1.15625-.203125 1.625s.03125.84375.09375 1.125c.050781.074219.097656.074219.140625 0 .257812-.800781.519531-1.398438.78125-1.796875zm0 0"/></g><g id="K"><path d="m5.171875-6.359375c.1875.136719.101563.230469-.25.28125.1875 2.6875 1.460937 4.59375 3.828125 5.71875-.34375.074219-.636719.242187-.875.5-1.804688-1.363281-2.84375-3.15625-3.125-5.375-.335938 2.667969-1.777344 4.613281-4.328125 5.828125-.117187 0-.136719-.046875-.0625-.140625 2.5-1.539063 3.8125-3.734375 3.9375-6.578125h-2.328125v-.203125h2.25l.3125-.5zm0 0"/></g><g id="L"><path d="m2.8125-1.484375c0-1.03125 0-2.070313 0-3.125 0-.375.007812-.757813.03125-1.15625.03125-.394531-.179688-.609375-.625-.640625-.148438-.039062-.15625-.085938-.03125-.140625.132812-.019531.257812-.03125.375-.03125.28125 0 .578125.121094.890625.359375.09375.0625.09375.167969 0 .3125-.054687.074219-.101563.214844-.140625.421875-.054688.210937-.078125.464844-.078125.765625v3.203125c0 .429687.070313.71875.21875.875.207031.242187.554687.359375 1.046875.359375.675781 0 1.273438-.140625 1.796875-.421875.5625-.300781 1.179687-.75 1.859375-1.34375.09375-.039063.128906-.015625.109375.078125-.636719.75-1.273437 1.304688-1.90625 1.65625-.53125.3046875-1.171875.453125-1.921875.453125-.542969 0-.964844-.1640625-1.265625-.5-.242187-.25-.359375-.625-.359375-1.125zm0 0"/></g><g id="M"><path d="m5-5.171875c-.523438.117187-1.121094.234375-1.796875.359375-.492187 1.6875-.984375 3.351562-1.484375 4.984375-.042969.144531-.121094.179687-.234375.109375-.074219-.042969-.121094-.125-.140625-.25-.074219-.257812-.074219-.4375 0-.53125.132812-.226562.257812-.492188.375-.796875.40625-1.125.78125-2.273437 1.125-3.453125-.5625.074219-.984375.132812-1.265625.171875-.136719.074219-.25.0625-.34375-.03125-.074219-.070313-.15625-.164063-.25-.28125-.074219-.09375-.109375-.195313-.109375-.3125.03125-.113281.066406-.140625.109375-.078125.164063.242188.398437.359375.703125.359375.425781 0 .835938-.035156 1.234375-.109375.207031-.539062.320313-.960938.34375-1.265625 0-.113281-.03125-.207031-.09375-.28125-.125-.09375-.265625-.148437-.421875-.171875-.167969 0-.183594-.046875-.046875-.140625.125-.019531.253906-.03125.390625-.03125.1875 0 .445312.117187.78125.34375.15625.117187.15625.21875 0 .3125-.125.074219-.3125.464844-.5625 1.171875.46875-.09375.898438-.257812 1.296875-.5.070313-.070312.15625-.109375.25-.109375s.195313.074219.3125.21875c.113281.167969.054687.273437-.171875.3125zm-.984375 1.296875c.46875-.28125.992187-.476562 1.578125-.59375.582031-.113281 1.085938-.148438 1.515625-.109375.226563.03125.34375.125.34375.28125 0 .148437-.09375.21875-.28125.21875-.824219 0-1.546875.273437-2.171875.8125-.125.0625-.152344.039063-.078125-.078125.1875-.226562.515625-.460938.984375-.703125.1875-.09375.164062-.140625-.0625-.140625-.429688 0-1.015625.140625-1.765625.421875-.117187.054687-.136719.015625-.0625-.109375zm.03125 2.015625c.09375-.1875.140625-.1875.140625 0-.023438.1875-.03125.3125-.03125.375 0 .28125.101562.53125.3125.75.257812.25.671875.375 1.234375.375h1.046875c.375 0 .617188-.03125.734375-.09375.164063-.09375.296875-.109375.390625-.046875.164062.125.257812.210938.28125.25.09375.1875 0 .28125-.28125.28125-.585938 0-1.167969 0-1.75 0-.898438 0-1.496094-.148438-1.796875-.453125-.242187-.238281-.359375-.546875-.359375-.921875 0-.207031.023438-.378906.078125-.515625zm0 0"/></g><g id="N"><path d="m6.078125-3.171875.21875-.28125.484375.359375c.144531.117188.097656.199219-.140625.25v3.15625c-.304687.28125-.453125.296875-.453125.046875v-.25h-2.984375v.453125c-.304687.28125-.453125.289062-.453125.03125v-3.203125c-.78125.46875-1.578125.84375-2.390625 1.125-.167969 0-.195313-.054687-.078125-.171875 1.125-.507812 1.945312-.96875 2.46875-1.375v-.515625l.375.28125c.46875-.3125.9375-.675781 1.40625-1.09375h-3.890625v-.21875h3.15625v-1.21875h-2.5625v-.21875h2.5625v-1.328125l.59375.09375c.1875.125.140625.210938-.140625.25v.984375h.640625l.453125-.453125.671875.53125c.320313-.40625.601563-.78125.84375-1.125l.625.484375c.257813.1875.109375.246094-.453125.171875-.585938.75-1.136719 1.359375-1.65625 1.828125h2.015625l.515625-.515625.671875.484375c.144531.117187.144531.199219 0 .25h-3.40625c-.46875.449219-.976563.84375-1.515625 1.1875zm-1.328125-1.40625c.394531-.375.78125-.78125 1.15625-1.21875h-1.65625v1.21875zm-1.546875 2.890625h2.984375v-1.265625h-2.984375zm0 1.578125h2.984375v-1.375h-2.984375zm0 0"/></g><g id="O"><path d="m3.9375-5.875c.488281.304688.734375.59375.734375.875 0 .125-.023437.234375-.0625.328125h1.328125l.390625-1.34375.5.140625c.28125.117188.242187.199219-.109375.25l-.5625.953125h1.1875l.21875-.28125.484375.34375c.144531.117187.097656.199219-.140625.25v3.40625c0 .335937-.152344.578125-.453125.734375-.1875.054688-.28125.007812-.28125-.140625 0-.132813-.070313-.226563-.203125-.28125l-.359375-.09375c-.304687.28125-.453125.292969-.453125.03125v-.359375h-1.578125v.390625c-.3125.28125-.46875.292969-.46875.03125v-2.03125l.53125.203125h.453125v-.90625h-1.328125v-.21875h1.328125v-.875h-1.640625v4.046875c-.3125.28125-.46875.292969-.46875.03125v-4.53125l.53125.25h.84375c-.074219-.09375-.121094-.222656-.140625-.390625-.042969-.238281-.15625-.472656-.34375-.703125-.09375-.113281-.074219-.148437.0625-.109375zm1.625 2.5v.90625h.484375l.21875-.28125.484375.359375c.144531.117187.097656.199219-.140625.25v1.296875h.59375c.164063 0 .25-.082031.25-.25v-3.375h-1.890625v.875h.734375l.34375-.34375.5.390625c.070313.09375.046875.152344-.078125.171875zm.59375 2.109375v-.984375h-1.578125v.984375zm-4.46875-4.609375c-.28125-.414062-.632812-.742188-1.046875-.984375-.09375-.070313-.074219-.109375.0625-.109375 1.007813.261719 1.515625.625 1.515625 1.09375 0 .1875-.085938.28125-.25.28125-.09375 0-.1875-.09375-.28125-.28125zm6.828125 6.046875c-.148437.050781-.289063.191406-.421875.421875h-3.3125c-1.3125 0-2.320312-.367188-3.015625-1.09375l-.8125.8125c.019531.332031-.054687.394531-.21875.1875l-.34375-.421875 1.1875-.640625v-2.953125h-1.265625v-.21875h1.171875l.203125-.28125.5.359375c.132812.117188.085938.199219-.140625.25v2.875c.675781.46875 1.304687.703125 1.890625.703125zm-5.875-6.21875v-.21875h2.453125v-1.078125l.609375.09375c.1875.125.140625.210938-.140625.25v.734375h1.828125l.453125-.453125.5625.421875c.132812.117187.132812.199219 0 .25zm0 0"/></g><g id="P"><path d="m.5625.640625c-.136719.0625-.171875.023437-.109375-.109375.894531-1.082031 1.34375-2.234375 1.34375-3.453125v-4.1875l.53125.328125h4.78125l.203125-.28125.5.34375c.132812.117188.085938.199219-.140625.25v6.15625c0 .28125-.085937.488281-.25.625-.148437.125-.289063.195312-.421875.21875-.148438.019531-.21875-.039062-.21875-.171875 0-.125-.058594-.210937-.171875-.25l-.625-.140625c-.125-.0507812-.125-.097656 0-.140625h.90625c.207031 0 .3125-.109375.3125-.328125v-2.0625h-2.34375v2.875c-.3125.28125-.46875.296875-.46875.046875v-2.921875h-2.140625c-.074219 1.167969-.636719 2.238281-1.6875 3.203125zm6.640625-5.421875v-1.796875h-2.34375v1.796875zm-4.953125 0h2.140625v-1.796875h-2.140625zm2.140625 2v-1.796875h-2.140625v1.796875zm.46875-1.796875v1.796875h2.34375v-1.796875zm0 0"/></g><g id="Q"><path d="m6.15625-3.375c.257812.355469.457031.601562.59375.734375.09375.09375.210938.1875.359375.28125.0625.054687.109375.125.140625.21875.039062.1875.050781.304687.03125.34375-.09375.1875-.226562.226563-.390625.109375-.375-.28125-.789063-.492188-1.234375-.640625-.585938-.1875-1.085938-.28125-1.5-.28125-.78125 0-1.335938.167969-1.65625.5-.1875.1875-.28125.386719-.28125.59375 0 .375.128906.667969.390625.875.414063.355469 1.046875.5429688 1.890625.5625.707031.03125 1.15625.0117188 1.34375-.0625.1875-.070313.335938-.070313.453125 0 .113281.0742188.195313.15625.25.25.039063.113281-.007813.179687-.140625.203125-.28125.050781-.683594.078125-1.203125.078125-.636719 0-1.1875-.058594-1.65625-.171875-.5625-.1484375-.984375-.367188-1.265625-.671875-.25-.28125-.375-.585937-.375-.921875 0-.375.113281-.664062.34375-.875.394531-.375.992188-.5625 1.796875-.5625.320313 0 .648437.023438.984375.0625.488281.074219.851562.148438 1.09375.21875.132812.042969.15625-.003906.0625-.140625-.492188-.675781-.960938-1.359375-1.40625-2.046875-.679688.148438-1.261719.242188-1.75.28125-.148438.054688-.257812.078125-.328125.078125-.117187 0-.21875-.046875-.3125-.140625-.28125-.257812-.445313-.4375-.484375-.53125-.054688-.113281-.023438-.132812.09375-.0625.238281.210938.554688.3125.953125.3125.425781 0 .976563-.082031 1.65625-.25-.117187-.207031-.3125-.523438-.59375-.953125-.09375-.132813-.203125-.25-.328125-.34375-.136719-.113281-.136719-.242187 0-.390625.238281-.257812.488281-.421875.75-.484375.15625 0 .1875.03125.09375.09375-.136719.074219-.230469.242187-.28125.5-.023438.117187.023438.277344.140625.484375.238281.429688.441406.757812.609375.984375.414062-.09375.929688-.28125 1.546875-.5625.113281-.0625.265625-.070313.453125-.03125.09375.023437.175781.070313.25.140625.0625.074219.023438.148438-.109375.21875-.335937.136719-.992187.324219-1.96875.5625.226563.398438.554687.875.984375 1.4375zm0 0"/></g><g id="R"><path d="m2.28125.28125c0-.28125-.3125-.75-.9375-1.40625-.242188.398438-.429688.714844-.5625.953125-.054688.0625-.117188.09375-.1875.09375-.09375 0-.140625-.125-.140625-.375 0-.144531.046875-.273437.140625-.390625.539062-.65625 1.164062-1.601562 1.875-2.84375 0-.1875 0-.375 0-.5625-.335938.117188-.617188.230469-.84375.34375-.09375.074219-.179688.109375-.25.109375-.054688 0-.148438-.046875-.28125-.140625-.261719-.164062-.390625-.378906-.390625-.640625.019531-.113281.054687-.132813.109375-.0625.113281.261719.273438.390625.484375.390625.28125 0 .671875-.082031 1.171875-.25 0-.445312 0-.90625 0-1.375 0-.507812-.226562-.789062-.671875-.84375-.1875 0-.1875-.046875 0-.140625.5625-.039063.957031.078125 1.1875.359375.144531.09375.144531.199219 0 .3125-.136719.230469-.203125.765625-.203125 1.609375.039062-.019531.085938-.050781.140625-.09375.132813.0625.226563.121094.28125.171875.09375.042969.101563.101562.03125.171875-.117187.117187-.265625.304687-.453125.5625v.28125c1.144531-1.238281 2.101562-1.859375 2.875-1.859375.59375 0 .863281.257812.8125.765625-.136719 1.554687-.203125 2.507813-.203125 2.859375 0 .84375.171875 1.265625.515625 1.265625.6875 0 1.265625-.578125 1.734375-1.734375.09375-.132812.140625-.117188.140625.046875-.375 1.355469-1 2.03125-1.875 2.03125-.28125 0-.515625-.09375-.703125-.28125s-.28125-.597656-.28125-1.234375c0-.769531.046875-1.765625.140625-2.984375.03125-.300781-.09375-.453125-.375-.453125-.636719 0-1.5625.648438-2.78125 1.9375.019531 1.710938.039062 2.648438.0625 2.8125.050781.3203125-.007812.566406-.171875.734375-.09375.09375-.179687.140625-.25.140625-.09375 0-.140625-.09375-.140625-.28125zm.140625-.921875c.050781-.5625.066406-1.296875.046875-2.203125-.355469.511719-.710938 1.039062-1.0625 1.578125.28125.230469.550781.453125.8125.671875.09375.09375.160156.078125.203125-.046875zm0 0"/></g><g id="S"><path d="m5.34375-5.234375c-.09375.15625-.179688.28125-.25.375h2.359375l.453125-.453125.609375.421875c.132813.117187.132813.199219 0 .25h-3.5625c-.210937.28125-.464844.574219-.765625.875-.148438.074219-.195312.054687-.140625-.0625.46875-.632813.796875-1.242187.984375-1.828125h-3.234375v1.6875c0 1.5-.433594 2.917969-1.296875 4.25-.125.09375-.171875.082031-.140625-.03125.65625-1.269531.984375-2.675781.984375-4.21875v-3.34375l.515625.3125h5.171875l.21875-.28125.484375.359375c.144531.117187.097656.195313-.140625.234375v1.234375c-.304688.28125-.453125.292969-.453125.03125v-.234375h-2l.453125.234375c.113281.09375.03125.15625-.25.1875zm1.796875 3.046875h-1.203125c-.136719.21875-.296875.445312-.484375.671875h1.546875l.203125-.203125.53125.421875c.113281.136719 0 .183594-.34375.140625-.3125.304688-.632813.570312-.953125.796875.539062.2929688 1.242188.484375 2.109375.578125-.28125.132812-.460937.285156-.53125.453125-.730469-.167969-1.359375-.441406-1.890625-.8125-.636719.394531-1.496094.710937-2.578125.953125-.09375-.023438-.105469-.070312-.03125-.140625.9375-.261719 1.710937-.6054688 2.328125-1.03125-.242188-.1875-.492188-.441406-.75-.765625-.398438.398438-.820312.714844-1.265625.953125-.117187.023437-.136719-.015625-.0625-.109375.675781-.488281 1.238281-1.125 1.6875-1.90625h-.359375v.140625c-.304688.28125-.453125.296875-.453125.046875v-2.21875l.53125.203125h1.859375l.21875-.28125.484375.359375c.144531.117188.097656.199219-.140625.25v1.546875c-.304688.28125-.453125.292969-.453125.03125zm-1.0625 1.65625c.28125-.207031.578125-.460938.890625-.765625h-1.6875l-.078125.0625c.28125.304687.570313.539063.875.703125zm-.984375-3.265625v.5625h2.046875v-.5625zm-1.71875 1.328125c.1875.125.140625.210938-.140625.25v2.8125c-.304687.28125-.453125.296875-.453125.046875v-2.921875c-.304688.375-.65625.734375-1.0625 1.078125-.117188.054687-.148438.03125-.09375-.0625.675781-.800781 1.222656-1.71875 1.640625-2.75l.5625.28125c.238281.09375.144531.1875-.28125.28125-.15625.3125-.34375.59375-.5625.84375zm.421875-2.671875c.113281.148437 0 .195313-.34375.140625-.335937.5-.773437.984375-1.3125 1.453125-.136719.0625-.167969.027344-.09375-.109375.488281-.539062.882813-1.148438 1.1875-1.828125zm-2-1.640625v.90625h5.34375v-.90625zm3.296875 4.390625h2.046875v-.640625h-2.046875zm0 0"/></g><g id="T"><path d="m2.5-6.6875c-.242188.617188-.464844 1.179688-.671875 1.6875l.140625.078125c.1875.117187.140625.199219-.140625.25v5.125c-.304687.28125-.453125.296875-.453125.046875v-4.609375c-.304688.492187-.621094.933594-.953125 1.328125-.136719.09375-.171875.046875-.109375-.140625.875-1.382813 1.460938-2.835937 1.765625-4.359375l.625.3125c.21875.09375.148437.1875-.203125.28125zm3.15625-.375c.125.117188.019531.183594-.3125.203125-.167969.304687-.34375.59375-.53125.875h2.78125l.453125-.453125.5625.421875c.144531.117187.144531.199219 0 .25h-1.46875c-.429687.585937-.78125 1.015625-1.0625 1.296875.894531.542969 1.738281.859375 2.53125.953125-.15625.074219-.320313.234375-.484375.484375-.84375-.28125-1.605469-.675781-2.28125-1.1875-.65625.585938-1.453125.996094-2.390625 1.234375-.125-.03125-.140625-.078125-.046875-.140625.9375-.375 1.65625-.8125 2.15625-1.3125-.429688-.375-.746094-.796875-.953125-1.265625-.335937.429687-.671875.78125-1.015625 1.0625-.148438.09375-.183594.070313-.109375-.078125.65625-.8125 1.171875-1.703125 1.546875-2.671875zm1.40625 4.984375c.09375.117187-.03125.152344-.375.109375-.824219.636719-1.808594 1.058594-2.953125 1.265625-.1875 0-.214844-.046875-.078125-.140625 1.175781-.332031 2.171875-.882812 2.984375-1.65625zm.78125 1.0625c-1.59375.9804688-3.234375 1.492187-4.921875 1.546875-.242187-.054688-.25-.125-.03125-.21875 1.800781-.1875 3.425781-.816406 4.875-1.890625l.46875.453125c.09375.117188-.039063.152344-.390625.109375zm-4.328125-1.0625c1.050781-.375 1.953125-.863281 2.703125-1.46875l.390625.375c.070313.125-.03125.164063-.3125.109375-.679687.46875-1.578125.84375-2.703125 1.125-.1875 0-.214844-.046875-.078125-.140625zm-.28125-3.34375c.1875.125.140625.210937-.140625.25v4.5c-.304688.28125-.453125.292969-.453125.03125v-4.875zm1.546875-.34375c.207031.417969.535156.792969.984375 1.125.300781-.332031.582031-.707031.84375-1.125zm0 0"/></g><g id="U"><path d="m4.21875-3.484375c-.304688 1.875-1.523438 3.207031-3.65625 3.984375-.210938.039062-.230469-.007812-.0625-.140625.75-.3359375 1.414062-.789063 2-1.375.914062-.914063 1.375-2.195313 1.375-3.84375v-.3125h-3.0625v-.203125h3.15625v-1.9375l.640625.109375c.257813.09375.203125.1875-.171875.28125v1.546875h2.90625l.53125-.53125.671875.484375c.132813.125.132813.210937 0 .25h-4.21875v.3125c0 .523437-.027344.914063-.078125 1.171875h2.4375l.234375-.28125.609375.375c.207031.167969.097656.289062-.328125.359375-.15625 1.617187-.460937 2.667969-.90625 3.15625-.355469.40625-.730469.609375-1.125.609375-.074219 0-.109375-.074219-.109375-.21875 0-.09375-.070312-.171875-.203125-.234375l-.609375-.25c-.09375-.09375-.078125-.140625.046875-.140625l.84375.203125c.15625.0234375.25.03125.28125.03125.207031 0 .414063-.148437.625-.453125.332031-.46875.566406-1.453125.703125-2.953125zm0 0"/></g><g id="V"><path d="m8.578125-3.234375c.144531.117187.144531.199219 0 .25h-3.234375l-1.515625 2.671875c1.175781-.125 2.382813-.265625 3.625-.421875-.210937-.332031-.5-.660156-.875-.984375-.074219-.125-.039063-.171875.109375-.140625 1.070312.605469 1.609375 1.140625 1.609375 1.609375 0 .2773438-.09375.421875-.28125.421875-.074219 0-.132813-.046875-.171875-.140625-.09375-.257812-.1875-.457031-.28125-.59375-1.480469.28125-2.921875.5625-4.328125.84375-.074219.332031-.179687.378906-.3125.140625l-.421875-.671875c.46875 0 .832031-.007812 1.09375-.03125l1.078125-2.703125h-2v-.21875h2.328125v-1.859375h-1.546875v-.21875h1.546875v-1.890625l.59375.109375c.1875.117188.140625.195312-.140625.234375v1.546875h1.515625l.453125-.453125.5625.421875c.132813.117188.132813.199219 0 .25h-2.53125v1.859375h1.9375l.515625-.53125zm-7.421875-3.796875c-.042969-.070312-.015625-.109375.078125-.109375.769531.242187 1.15625.570313 1.15625.984375 0 .167969-.085937.25-.25.25-.117187 0-.195313-.070312-.234375-.21875-.167969-.394531-.417969-.695312-.75-.90625zm-.59375 2.03125c-.042969-.0625-.015625-.09375.078125-.09375.695313.324219 1.046875.683594 1.046875 1.078125 0 .1875-.09375.28125-.28125.28125-.09375 0-.179688-.113281-.25-.34375-.0625-.238281-.261719-.546875-.59375-.921875zm-.03125 3h.84375l1.75-4.359375c.144531-.09375.207031-.082031.1875.03125l-1.484375 4.390625c-.074219.261719-.09375.570312-.0625.921875.039063.230469.085937.484375.140625.765625.019531.21875.03125.40625.03125.5625 0 .238281-.132812.359375-.390625.359375-.210937 0-.3125-.140625-.3125-.421875.09375-.707031.140625-1.25.140625-1.625 0-.207031-.105469-.335938-.3125-.390625l-.53125-.09375zm0 0"/></g><g id="W"><path d="m6.265625.03125c0 .257812-.085937.460938-.25.609375-.09375.09375-.214844.140625-.359375.140625-.09375 0-.140625-.046875-.140625-.140625 0-.125-.070313-.210937-.203125-.25l-.53125-.109375c-.09375-.042969-.09375-.089844 0-.140625h.78125c.15625 0 .234375-.0859375.234375-.25v-1.40625h-3.015625c.65625.398437.984375.734375.984375 1.015625 0 .242188-.085937.359375-.25.359375-.117187 0-.210937-.117187-.28125-.359375-.09375-.300781-.304687-.640625-.625-1.015625h-1.265625v-.203125h4.453125v-.953125h-5.15625v-.21875h3.515625v-1.015625h-2.671875v-.203125h2.671875v-.890625l.59375.109375c.1875.117187.140625.199219-.140625.25v.53125h1.890625l.46875-.46875.5625.421875c.132812.125.132812.210938 0 .25h-2.921875v1.015625h2.78125l.453125-.453125.5625.421875c.132812.117187.132812.199219 0 .25h-2.140625v.953125h.765625l.453125-.46875.5625.421875c.144531.125.144531.210937 0 .25h-1.78125zm.0625-4.953125c-.09375-.375-.257813-.703125-.484375-.984375h-.53125c-.167969.261719-.390625.515625-.671875.765625-.136719.09375-.171875.0625-.109375-.09375.46875-.59375.785156-1.273437.953125-2.046875l.59375.21875c.257813.136719.191406.230469-.203125.28125l-.421875.65625h1.796875l.453125-.453125.5625.421875c.132813.117188.132813.199219 0 .25h-2.1875c.519531.355469.78125.65625.78125.90625 0 .21875-.085937.328125-.25.328125-.136719 0-.230469-.082031-.28125-.25zm-1.75-1.203125c.132813.125.132813.210938 0 .25h-2.109375c.507812.355469.765625.710938.765625 1.0625 0 .210938-.09375.3125-.28125.3125-.117187 0-.199219-.101562-.25-.3125-.042969-.445312-.195313-.800781-.453125-1.0625h-.3125c-.304688.585938-.75 1.15625-1.34375 1.71875-.15625.074219-.1875.027344-.09375-.140625.695312-.84375 1.1875-1.835937 1.46875-2.984375l.671875.28125c.1875.09375.09375.1875-.28125.28125l-.3125.640625h1.5l.46875-.46875zm0 0"/></g><g id="X"><path d="m3.875-6.359375c-.09375.1875-.1875.539063-.28125 1.046875.65625-.132812 1.125-.320312 1.40625-.5625.25.023438.410156.058594.484375.109375.1875.117187.101563.230469-.25.34375-.4375.167969-1 .296875-1.6875.390625-.117187.730469-.171875 1.246094-.171875 1.546875.613281-.226563 1.203125-.367187 1.765625-.421875.019531-.226562-.15625-.367188-.53125-.421875-.09375-.039063-.085937-.085937.03125-.140625.726563.054688 1.082031.242188 1.0625.5625.90625.023438 1.546875.21875 1.921875.59375.351562.355469.53125.777344.53125 1.265625 0 .5-.210938.960937-.625 1.375-.523438.523437-1.273438.894531-2.25 1.125-.167969 0-.183594-.046875-.046875-.140625.84375-.3203125 1.441406-.660156 1.796875-1.015625.425781-.425781.640625-.875.640625-1.34375 0-.4375-.140625-.796875-.421875-1.078125-.335938-.332031-.875-.507812-1.625-.53125-.167969.375-.375.789062-.625 1.234375-.261719.4375-.558594.835937-.890625 1.1875.09375.117187.203125.246094.328125.390625.09375.117188.078125.21875-.046875.3125-.136719.09375-.277344.046875-.421875-.140625-.0625-.09375-.121094-.175781-.171875-.25-.304687.3125-.605469.5625-.90625.75-.3125.1835938-.621094.2695312-.921875.25-.46875-.0546875-.726562-.367187-.765625-.953125-.054687-.613281.226563-1.203125.84375-1.765625.28125-.257813.617187-.492187 1.015625-.703125 0-.351562.035156-.890625.109375-1.609375-.335937.042969-.652344.074219-.953125.09375-.210938.03125-.375-.015625-.5-.140625-.1875-.1875-.304688-.375-.34375-.5625.019531-.113281.066406-.125.140625-.03125.132813.28125.367187.421875.703125.421875.394531 0 .722656-.019531.984375-.0625.070313-.46875.117187-.90625.140625-1.3125.019531-.207031-.132812-.347656-.453125-.421875-.09375 0-.09375-.03125 0-.09375.320313 0 .601563.058594.84375.171875.28125.136719.328125.3125.140625.53125zm-.8125 3.296875c-.335938.1875-.617188.414062-.84375.671875-.398438.449219-.59375.9375-.59375 1.46875 0 .46875.140625.71875.421875.75.226563.023437.492187-.070313.796875-.28125.28125-.1875.539062-.410156.78125-.671875-.355469-.5625-.542969-1.207031-.5625-1.9375zm2.03125-.59375c-.792969.117188-1.367188.265625-1.71875.453125.070312.773437.257812 1.359375.5625 1.765625.257812-.332031.492188-.695312.703125-1.09375.1875-.375.335937-.75.453125-1.125zm0 0"/></g><g id="Y"><path d="m2.046875-2.921875c.601563-.394531 1.082031-.675781 1.4375-.84375.601563-.28125 1.203125-.421875 1.796875-.421875.65625 0 1.21875.199219 1.6875.59375.34375.3125.515625.726562.515625 1.234375 0 .398437-.117187.726563-.34375.984375-.617187.679688-1.75 1.042969-3.40625 1.09375-.148437-.070312-.148437-.128906 0-.171875 1.445313-.164063 2.414063-.519531 2.90625-1.0625.257813-.28125.390625-.609375.390625-.984375 0-.320312-.09375-.59375-.28125-.8125-.375-.394531-.867188-.59375-1.46875-.59375-.78125 0-1.699219.402344-2.75 1.203125-.1875.136719-.328125.261719-.421875.375-.117187.148437-.265625.136719-.453125-.03125-.355469-.300781-.523438-.488281-.5-.5625.03125-.113281.066406-.132813.109375-.0625.113281.136719.242187.203125.390625.203125.113281 0 .242188-.046875.390625-.140625zm0 0"/></g><g id="Z"><path d="m6.359375-5.984375c.375-.0625.632813-.15625.78125-.28125.132813-.113281.285156-.113281.453125 0 .257812.1875.398438.296875.421875.328125.113281.117188.09375.195312-.0625.234375-1.460937-.039063-2.507813.257813-3.140625.890625-.605469.605469-.90625 1.214844-.90625 1.828125 0 .699219.234375 1.28125.703125 1.75.488281.492187 1.050781.75 1.6875.78125.226563 0 .378906.046875.453125.140625.09375.117188.140625.21875.140625.3125 0 .113281-.09375.171875-.28125.171875-.65625 0-1.289063-.2421875-1.890625-.734375-.730469-.582031-1.09375-1.359375-1.09375-2.328125 0-.882813.457031-1.691406 1.375-2.421875.113281-.09375.113281-.140625 0-.140625-.730469.148437-1.421875.289063-2.078125.421875-.28125.054688-.5625.148438-.84375.28125-.210937.09375-.351563.132812-.421875.109375-.117188-.019531-.234375-.078125-.359375-.171875-.25-.1875-.390625-.390625-.421875-.609375.050781-.15625.097656-.164063.140625-.03125.125.210937.375.304687.75.28125.1875 0 .5-.046875.9375-.140625 1.21875-.207031 2.4375-.429688 3.65625-.671875zm0 0"/></g><g id="aa"><path d="m7.8125-3.59375c-.242188-.226562-.5-.34375-.78125-.34375-.46875 0-.855469.105469-1.15625.3125-.167969.117188-.242188.3125-.21875.59375.050781.6875.113281 1.296875.1875 1.828125 1 .242187 1.628906.453125 1.890625.640625.09375.074219.128906.226562.109375.453125-.023438.214844-.140625.253906-.359375.109375-.679687-.425781-1.214844-.707031-1.609375-.84375 0 .492188-.140625.84375-.421875 1.0625-.210937.15625-.5.234375-.875.234375-.40625 0-.714844-.105469-.921875-.3125-.167969-.1640625-.25-.351563-.25-.5625 0-.28125.117188-.503906.359375-.671875.207031-.132812.535156-.203125.984375-.203125.207031 0 .429688.011719.671875.03125-.09375-.84375-.140625-1.414063-.140625-1.71875 0-.445313.195312-.753906.59375-.921875.394531-.164062.769531-.25 1.125-.25.207031 0 .265625-.066406.171875-.203125-.304687-.445313-.828125-.820313-1.578125-1.125-.09375-.050781-.085938-.085937.03125-.109375.863281.148438 1.578125.5 2.140625 1.0625.257813.25.390625.496094.390625.734375 0 .1875-.058594.28125-.171875.28125-.074219 0-.132813-.023437-.171875-.078125zm-3.28125-1.5c-.398438.09375-.820312.1875-1.265625.28125-.90625 2.085938-1.46875 3.304688-1.6875 3.65625-.136719.230469-.261719.289062-.375.171875-.074219-.070313-.121094-.164063-.140625-.28125-.03125-.1875.023438-.351563.171875-.5.164063-.15625.316406-.351563.453125-.59375.300781-.507813.703125-1.304687 1.203125-2.390625-.3125.054688-.621094.125-.921875.21875-.167969.09375-.296875.09375-.390625 0-.304687-.3125-.445313-.535156-.421875-.671875 0-.113281.046875-.113281.140625 0 .09375.1875.296875.28125.609375.28125.394531 0 .753906-.046875 1.078125-.140625.28125-.675781.4375-1.171875.46875-1.484375.019531-.226563-.136719-.378906-.46875-.453125-.117187-.039062-.117187-.085938 0-.140625.21875-.019531.429687.015625.640625.109375.164062.074219.304688.167969.421875.28125.132813.136719.125.25-.03125.34375-.125.074219-.339844.496094-.640625 1.265625.332031-.0625.625-.1875.875-.375.164062-.125.304688-.09375.421875.09375.09375.167969.046875.277344-.140625.328125zm.890625 4.140625c-.261719-.09375-.523437-.140625-.78125-.140625-.324219 0-.570313.058594-.734375.171875-.167969.125-.25.28125-.25.46875 0 .136719.046875.261719.140625.375.164063.195313.425781.296875.78125.296875.226563 0 .390625-.039062.484375-.109375.257812-.1835938.378906-.539063.359375-1.0625zm0 0"/></g><g id="ab"><path d="m1.515625-1.125c.300781-.238281.757813-.59375 1.375-1.0625 0-.71875 0-1.453125 0-2.203125-.46875.042969-.835937.109375-1.09375.203125-.117187.074219-.265625.039062-.453125-.109375-.28125-.207031-.421875-.453125-.421875-.734375.019531-.113281.050781-.113281.09375 0 .125.261719.300781.402344.53125.421875.351563.023437.800781-.015625 1.34375-.109375.019531-.207031.039063-.582031.0625-1.125.019531-.394531-.15625-.648438-.53125-.765625-.136719-.050781-.136719-.097656 0-.140625.5 0 .863281.132812 1.09375.390625.09375.117187.101563.210937.03125.28125-.09375.09375-.152344.265625-.171875.515625-.023438.1875-.042969.4375-.0625.75.4375-.125.773438-.265625 1.015625-.421875.132813-.125.25-.160156.34375-.109375.125.042969.21875.089844.28125.140625.144531.09375.097656.199219-.140625.3125-.042969.023437-.203125.070313-.484375.140625-.449219.117188-.804687.199219-1.0625.25-.023437.585938-.03125 1.289062-.03125 2.109375 1.101563-.707031 2.078125-1.0625 2.921875-1.0625.65625 0 1.144531.140625 1.46875.421875.332031.28125.5.683594.5 1.203125 0 .449219-.132812.796875-.390625 1.046875-.324219.335938-.792969.5-1.40625.5-.449219 0-.8125-.101562-1.09375-.3125-.375-.28125-.621094-.679688-.734375-1.203125.050781-.113281.097656-.113281.140625 0 .207031.398437.40625.667969.59375.8125.28125.230469.625.34375 1.03125.34375.4375 0 .765625-.101563.984375-.3125.25-.257813.375-.550781.375-.875 0-.425781-.125-.765625-.375-1.015625-.261719-.257812-.636719-.390625-1.125-.390625-.804688 0-1.765625.421875-2.890625 1.265625v.765625c0 .148437.035156.445313.109375.890625.039062.3046875-.0625.535156-.3125.703125-.1875.113281-.296875.066406-.328125-.140625-.023437-.3085938-.117187-.523438-.28125-.640625-.1875-.132813-.386719-.285156-.59375-.453125-.117187.117188-.265625.230469-.453125.34375-.1875.125-.328125.171875-.421875.140625-.1875-.039063-.28125-.203125-.28125-.484375 0-.257812.066406-.492188.203125-.703125.070312-.070313.109375-.0625.109375.03125-.023437.335937.050781.5.21875.5.113281 0 .21875-.035156.3125-.109375zm1.375.453125c0-.351563 0-.71875 0-1.09375-.28125.242187-.601563.511719-.953125.8125.257812.148437.503906.277344.734375.390625.144531.074219.21875.039062.21875-.109375zm4.53125-4.328125c-.167969-.28125-.589844-.523438-1.265625-.734375-.054688-.039063-.042969-.078125.03125-.109375.613281.054688 1.09375.183594 1.4375.390625.351562.210937.578125.453125.671875.734375.050781.148438.050781.257812 0 .328125-.074219.09375-.15625.105469-.25.03125-.136719-.113281-.289063-.171875-.453125-.171875-.167969 0-.449219.03125-.84375.09375-.117188.03125-.125 0-.03125-.09375.1875-.070312.394531-.144531.625-.21875.125-.039062.148438-.125.078125-.25zm0 0"/></g><g id="ac"><path d="m2.953125-4.8125c-.261719.375-.53125.726562-.8125 1.046875l.25.078125c.238281.09375.191406.171875-.140625.234375v4.09375c-.304688.28125-.453125.289063-.453125.03125v-4.078125c-.261719.28125-.695313.65625-1.296875 1.125-.125.042969-.152344.007812-.078125-.109375.988281-.9375 1.75-1.929687 2.28125-2.984375l.609375.421875c.0625.136719-.058594.183594-.359375.140625zm5.5625 4.703125c-.3125.257813-.480469.472656-.5.640625-2.0625-.023438-3.386719-.6171875-3.96875-1.796875-.261719.636719-.71875 1.2265625-1.375 1.765625-.136719.039062-.171875.003906-.109375-.109375.914062-.894531 1.398438-2.242187 1.453125-4.046875l.515625.171875c.351562.117187.34375.21875-.03125.3125-.09375.636719-.226562 1.1875-.390625 1.65625.375.5625.832031.949219 1.375 1.15625v-4.421875h-1.890625v-.21875h2.28125l.984375-2.203125.453125.28125c.375.230469.335938.34375-.109375.34375l-1.15625 1.578125h1.375l.453125-.453125.5625.421875c.144531.117188.144531.199219 0 .25h-2.5v2.171875h1.40625l.46875-.453125.5625.421875c.132812.117187.132812.199219 0 .25h-2.4375v2.140625c.332031.09375.835938.140625 1.515625.140625zm-5.84375-6.328125c-.9375.84375-1.664063 1.359375-2.171875 1.546875-.148438.023437-.164062-.023437-.046875-.140625.632813-.414062 1.304687-1.070312 2.015625-1.96875l.59375.421875c.09375.148437-.039062.195313-.390625.140625zm2.25.453125c.144531.21875.21875.40625.21875.5625 0 .167969-.085937.25-.25.25-.117187 0-.21875-.140625-.3125-.421875-.148437-.414062-.40625-.8125-.78125-1.1875-.09375-.125-.070313-.160156.078125-.109375.488281.28125.835938.585937 1.046875.90625zm0 0"/></g><g id="ad"><path d="m4.578125-2.5c.226563-.582031.367187-1.191406.421875-1.828125h-1.125c-.125.355469-.3125.730469-.5625 1.125.414062.054687.707031.136719.875.25.226562.167969.359375.320313.390625.453125zm-2.078125 2.859375c-.1875.0625-.226562.023437-.109375-.109375.957031-.746094 1.640625-1.546875 2.046875-2.390625-.167969.023437-.324219-.097656-.46875-.359375-.09375-.226562-.339844-.425781-.734375-.59375-.09375.1875-.386719.5625-.875 1.125-.09375.042969-.132813.015625-.109375-.078125.9375-1.257813 1.476562-2.582031 1.625-3.96875h-1.171875v-.203125h2.71875l.453125-.46875.5625.421875c.132812.125.132812.210937 0 .25h-2.109375c-.117187.542969-.246094 1.039063-.390625 1.484375h.921875l.234375-.25.53125.34375c.113281.125.054688.199219-.171875.21875-.28125 2.105469-1.265625 3.632812-2.953125 4.578125zm.34375-7.28125c.1875.136719.109375.230469-.234375.28125-.261719.5625-.523437 1.101563-.78125 1.609375l.359375.109375c.15625.117187.082031.199219-.21875.25v5.203125c-.304688.28125-.453125.289062-.453125.03125v-4.8125c-.335937.53125-.6875 1.011719-1.0625 1.4375-.09375.042969-.117187.007812-.0625-.109375.882813-1.570313 1.457031-2.988281 1.71875-4.25zm3.984375 1.609375c.25.09375.1875.1875-.1875.28125v3.515625c-.304687.28125-.453125.292969-.453125.03125v-3.9375zm1.296875 5.140625c0 .277344-.085938.488281-.25.625-.136719.125-.296875.195313-.484375.21875-.148437.019531-.21875-.039063-.21875-.171875 0-.125-.058594-.210938-.171875-.25l-.5625-.140625c-.117188-.0546875-.117188-.1015625 0-.140625h.90625c.21875 0 .328125-.109375.328125-.328125v-6.671875l.625.109375c.257813.09375.203125.1875-.171875.28125zm0 0"/></g><g id="ae"><path d="m4.21875-1.546875c-.023438-1.40625-.058594-2.8125-.109375-4.21875 0-.351563-.03125-.578125-.09375-.671875-.09375-.132812-.28125-.203125-.5625-.203125-.167969 0-.183594-.046875-.046875-.140625.144531-.03125.3125-.046875.5-.046875.28125 0 .523438.09375.734375.28125.144531.125.15625.246094.03125.359375-.0625.074219-.09375.449219-.09375 1.125.25.042969.550781.0625.90625.0625.445313 0 .785156-.066406 1.015625-.203125.144531-.070313.265625-.082031.359375-.03125.207031.117187.320313.195313.34375.234375.09375.125.035156.199219-.171875.21875-.636719.074219-1.117188.109375-1.4375.109375-.492188 0-.828125-.082031-1.015625-.25.039063 1.148437.070313 2.292969.09375 3.4375.894531.21875 1.679687.46875 2.359375.75.1875-.03125.316406.039063.390625.203125.070313.09375.109375.226562.109375.390625 0 .2382812-.121094.285156-.359375.140625-.867187-.5625-1.699219-.9375-2.5-1.125 0 .46875-.078125.789062-.234375.953125-.28125.277344-.683594.421875-1.203125.421875-.636719 0-1.09375-.144531-1.375-.421875-.1875-.1875-.28125-.390625-.28125-.609375 0-.15625.070313-.304688.21875-.453125.257813-.257813.75-.390625 1.46875-.390625.332031 0 .648437.027344.953125.078125zm0 .3125c-.449219-.09375-.8125-.140625-1.09375-.140625-.5625 0-.9375.09375-1.125.28125-.09375.09375-.140625.199219-.140625.3125 0 .148438.070313.289062.21875.421875.207031.21875.554687.328125 1.046875.328125.40625 0 .703125-.09375.890625-.28125.15625-.164062.222656-.472656.203125-.921875zm0 0"/></g><g id="af"><path d="m3.546875-3.125c-.324219.375-.484375.734375-.484375 1.078125 0 .5625.140625.984375.421875 1.265625.300781.3125.648437.46875 1.046875.46875.40625 0 .734375-.15625.984375-.46875.257813-.300781.390625-.742188.390625-1.328125 0-.539063-.105469-.941406-.3125-1.203125-.210938-.25-.515625-.375-.921875-.375-.417969 0-.792969.1875-1.125.5625zm.109375-.5625c.300781-.257812.6875-.390625 1.15625-.390625.5625 0 1 .164063 1.3125.484375.300781.355469.453125.851562.453125 1.484375 0 .585937-.1875 1.0625-.5625 1.4375-.375.398437-.882813.59375-1.515625.59375-.699219 0-1.234375-.253906-1.609375-.765625-.355469-.488281-.53125-1.226562-.53125-2.21875 0-1.007812.222656-1.78125.671875-2.3125.46875-.5625 1.050781-.84375 1.75-.84375.488281 0 .851562.078125 1.09375.234375.257812.1875.390625.402344.390625.640625 0 .117188-.039063.210938-.109375.28125-.054688.09375-.148438.140625-.28125.140625-.1875 0-.320312-.082031-.390625-.25-.042969-.113281-.078125-.265625-.109375-.453125 0-.113281-.058594-.207031-.171875-.28125-.09375-.050781-.28125-.078125-.5625-.078125-.417969 0-.792969.25-1.125.75-.304687.46875-.464844 1.296875-.484375 2.484375.113281-.375.320312-.6875.625-.9375zm0 0"/></g><g id="ag"><path d="m8.015625-2.859375h-6.03125v-.71875h6.03125zm0 0"/></g></defs><g fill="#231f20"><use x="86.5511" xlink:href="#a" y="69.938"/><use x="104.5451" xlink:href="#b" y="69.938"/><use x="113.5421" xlink:href="#c" y="69.938"/><use x="122.5391" xlink:href="#d" y="69.938"/><use x="131.5361" xlink:href="#e" y="69.938"/><use x="140.5331" xlink:href="#f" y="69.938"/><use x="149.5301" xlink:href="#g" y="69.938"/><use x="158.5271" xlink:href="#h" y="69.938"/><use x="167.5241" xlink:href="#i" y="69.938"/><use x="172.0226" xlink:href="#j" y="69.938"/><use x="190.0166" xlink:href="#k" y="69.938"/><use x="199.0136" xlink:href="#l" y="69.938"/><use x="208.0106" xlink:href="#m" y="69.938"/><use x="217.0076" xlink:href="#n" y="69.938"/><use x="226.0046" xlink:href="#o" y="69.938"/><use x="235.0016" xlink:href="#p" y="69.938"/><use x="243.9986" xlink:href="#q" y="69.938"/><use x="252.9956" xlink:href="#b" y="69.938"/><use x="261.9926" xlink:href="#j" y="69.938"/><use x="270.9896" xlink:href="#r" y="69.938"/><use x="279.9866" xlink:href="#s" y="69.938"/><use x="59.5601" xlink:href="#j" y="88.29188"/><use x="77.5541" xlink:href="#t" y="88.29188"/><use x="86.5511" xlink:href="#u" y="88.29188"/><use x="95.5481" xlink:href="#o" y="88.29188"/><use x="104.5451" xlink:href="#p" y="88.29188"/><use x="113.5421" xlink:href="#q" y="88.29188"/><use x="122.5391" xlink:href="#b" y="88.29188"/><use x="131.5361" xlink:href="#v" y="88.29188"/><use x="140.5331" xlink:href="#w" y="88.29188"/><use x="149.5301" xlink:href="#d" y="88.29188"/><use x="158.5271" xlink:href="#e" y="88.29188"/><use x="167.5241" xlink:href="#f" y="88.29188"/><use x="176.5211" xlink:href="#x" y="88.29188"/><use x="185.5181" xlink:href="#y" y="88.29188"/><use x="194.5151" xlink:href="#z" y="88.29188"/><use x="203.5121" xlink:href="#j" y="88.29188"/><use x="212.5091" xlink:href="#A" y="88.29188"/><use x="221.5061" xlink:href="#B" y="88.29188"/><use x="230.5031" xlink:href="#C" y="88.29188"/><use x="239.5001" xlink:href="#D" y="88.29188"/><use x="248.4971" xlink:href="#E" y="88.29188"/><use x="257.4941" xlink:href="#F" y="88.29188"/><use x="266.4911" xlink:href="#G" y="88.29188"/><use x="275.4881" xlink:href="#H" y="88.29188"/><use x="59.5601" xlink:href="#h" y="106.708739"/><use x="77.5541" xlink:href="#t" y="106.708739"/><use x="86.5511" xlink:href="#u" y="106.708739"/><use x="95.5481" xlink:href="#o" y="106.708739"/><use x="104.5451" xlink:href="#p" y="106.708739"/><use x="113.5421" xlink:href="#q" y="106.708739"/><use x="122.5391" xlink:href="#b" y="106.708739"/><use x="131.5361" xlink:href="#u" y="106.708739"/><use x="140.5331" xlink:href="#D" y="106.708739"/><use x="149.5301" xlink:href="#E" y="106.708739"/><use x="158.5271" xlink:href="#I" y="106.708739"/><use x="167.5241" xlink:href="#J" y="106.708739"/><use x="176.5211" xlink:href="#m" y="106.708739"/><use x="185.5181" xlink:href="#n" y="106.708739"/><use x="194.5151" xlink:href="#J" y="106.708739"/><use x="203.5121" xlink:href="#K" y="106.708739"/><use x="212.5091" xlink:href="#m" y="106.708739"/><use x="221.5061" xlink:href="#L" y="106.708739"/><use x="230.5031" xlink:href="#M" y="106.708739"/><use x="239.5001" xlink:href="#N" y="106.708739"/><use x="248.4971" xlink:href="#J" y="106.708739"/><use x="257.4941" xlink:href="#O" y="106.708739"/><use x="266.4911" xlink:href="#P" y="106.708739"/><use x="275.4881" xlink:href="#Q" y="106.708739"/><use x="284.4851" xlink:href="#R" y="106.708739"/><use x="293.4821" xlink:href="#G" y="106.708739"/><use x="302.4791" xlink:href="#S" y="106.708739"/><use x="311.4761" xlink:href="#T" y="106.708739"/><use x="320.4731" xlink:href="#U" y="106.708739"/><use x="329.4701" xlink:href="#V" y="106.708739"/><use x="338.4671" xlink:href="#W" y="106.708739"/><use x="347.4641" xlink:href="#J" y="106.708739"/><use x="356.4611" xlink:href="#X" y="106.708739"/><use x="365.4581" xlink:href="#Y" y="106.708739"/><use x="374.4551" xlink:href="#Z" y="106.708739"/><use x="383.4521" xlink:href="#v" y="106.708739"/><use x="392.4491" xlink:href="#w" y="106.708739"/><use x="401.4461" xlink:href="#aa" y="106.708739"/><use x="410.4431" xlink:href="#ab" y="106.708739"/><use x="419.4401" xlink:href="#ac" y="106.708739"/><use x="428.4371" xlink:href="#I" y="106.708739"/><use x="437.4341" xlink:href="#u" y="106.708739"/><use x="446.4311" xlink:href="#ad" y="106.708739"/><use x="455.4281" xlink:href="#J" y="106.708739"/><use x="464.4251" xlink:href="#ae" y="106.708739"/><use x="473.4221" xlink:href="#G" y="106.708739"/><use x="482.4191" xlink:href="#H" y="106.708739"/><use x="86.5511" xlink:href="#a" y="143.478578"/><use x="104.5451" xlink:href="#b" y="143.478578"/><use x="113.5421" xlink:href="#c" y="143.478578"/><use x="122.5391" xlink:href="#d" y="143.478578"/><use x="131.5361" xlink:href="#e" y="143.478578"/><use x="140.5331" xlink:href="#af" y="143.478578"/><use x="149.5301" xlink:href="#g" y="143.478578"/><use x="158.5271" xlink:href="#j" y="143.478578"/><use x="167.5241" xlink:href="#j" y="143.478578"/><use x="176.5211" xlink:href="#i" y="143.478578"/><use x="181.0196" xlink:href="#af" y="143.478578"/><use x="199.0136" xlink:href="#k" y="143.478578"/><use x="208.0106" xlink:href="#l" y="143.478578"/><use x="217.0076" xlink:href="#m" y="143.478578"/><use x="226.0046" xlink:href="#n" y="143.478578"/><use x="235.0016" xlink:href="#o" y="143.478578"/><use x="243.9986" xlink:href="#p" y="143.478578"/><use x="252.9956" xlink:href="#q" y="143.478578"/><use x="261.9926" xlink:href="#b" y="143.478578"/><use x="270.9896" xlink:href="#j" y="143.478578"/><use x="279.9866" xlink:href="#r" y="143.478578"/><use x="288.9836" xlink:href="#s" y="143.478578"/><use x="59.5601" xlink:href="#j" y="161.895437"/><use x="77.5541" xlink:href="#t" y="161.895437"/><use x="86.5511" xlink:href="#u" y="161.895437"/><use x="95.5481" xlink:href="#o" y="161.895437"/><use x="104.5451" xlink:href="#p" y="161.895437"/><use x="113.5421" xlink:href="#q" y="161.895437"/><use x="122.5391" xlink:href="#b" y="161.895437"/><use x="131.5361" xlink:href="#v" y="161.895437"/><use x="140.5331" xlink:href="#w" y="161.895437"/><use x="149.5301" xlink:href="#d" y="161.895437"/><use x="158.5271" xlink:href="#e" y="161.895437"/><path d="m4.578125-.8125v.171875c0 .242187-.039063.398437-.109375.46875-.074219.0625-.167969.09375-.28125.09375-.148438 0-.265625-.046875-.359375-.140625-.0625-.0625-.09375-.210938-.09375-.453125 0-.320313.054687-.671875.171875-1.046875.09375-.28125.28125-.703125.5625-1.265625.320312-.5625.648438-1.101563.984375-1.625.28125-.445313.523437-.785156.734375-1.015625h-2.171875c-.40625 0-.6875.09375-.84375.28125-.167969.210938-.324219.464844-.46875.765625l-.171875-.03125.453125-1.546875h3.765625v.28125c-.28125.28125-.515625.5625-.703125.84375-.210937.304688-.453125.734375-.734375 1.296875-.261719.5-.449219.984375-.5625 1.453125-.117188.4375-.171875.859375-.171875 1.265625zm0 0" transform="translate(167.5241 161.895437)"/><use x="176.5211" xlink:href="#x" y="161.895437"/><use x="185.5181" xlink:href="#y" y="161.895437"/><use x="194.5151" xlink:href="#z" y="161.895437"/><use x="203.5121" xlink:href="#j" y="161.895437"/><use x="212.5091" xlink:href="#A" y="161.895437"/><use x="221.5061" xlink:href="#B" y="161.895437"/><use x="230.5031" xlink:href="#C" y="161.895437"/><use x="239.5001" xlink:href="#D" y="161.895437"/><use x="248.4971" xlink:href="#E" y="161.895437"/><use x="257.4941" xlink:href="#F" y="161.895437"/><use x="266.4911" xlink:href="#G" y="161.895437"/><use x="275.4881" xlink:href="#H" y="161.895437"/><use x="59.5601" xlink:href="#h" y="180.312296"/><use x="77.5541" xlink:href="#t" y="180.312296"/><use x="86.5511" xlink:href="#u" y="180.312296"/><use x="95.5481" xlink:href="#o" y="180.312296"/><use x="104.5451" xlink:href="#p" y="180.312296"/><use x="113.5421" xlink:href="#q" y="180.312296"/><use x="122.5391" xlink:href="#b" y="180.312296"/><use x="131.5361" xlink:href="#u" y="180.312296"/><use x="140.5331" xlink:href="#D" y="180.312296"/><use x="149.5301" xlink:href="#E" y="180.312296"/><use x="158.5271" xlink:href="#I" y="180.312296"/><use x="167.5241" xlink:href="#J" y="180.312296"/><use x="176.5211" xlink:href="#m" y="180.312296"/><use x="185.5181" xlink:href="#n" y="180.312296"/><use x="194.5151" xlink:href="#J" y="180.312296"/><use x="203.5121" xlink:href="#K" y="180.312296"/><use x="212.5091" xlink:href="#m" y="180.312296"/><use x="221.5061" xlink:href="#L" y="180.312296"/><use x="230.5031" xlink:href="#M" y="180.312296"/><use x="239.5001" xlink:href="#N" y="180.312296"/><use x="248.4971" xlink:href="#J" y="180.312296"/><use x="257.4941" xlink:href="#O" y="180.312296"/><use x="266.4911" xlink:href="#P" y="180.312296"/><use x="275.4881" xlink:href="#Q" y="180.312296"/><use x="284.4851" xlink:href="#R" y="180.312296"/><use x="293.4821" xlink:href="#G" y="180.312296"/><use x="302.4791" xlink:href="#S" y="180.312296"/><use x="311.4761" xlink:href="#T" y="180.312296"/><use x="320.4731" xlink:href="#U" y="180.312296"/><use x="329.4701" xlink:href="#V" y="180.312296"/><use x="338.4671" xlink:href="#W" y="180.312296"/><use x="347.4641" xlink:href="#J" y="180.312296"/><use x="356.4611" xlink:href="#X" y="180.312296"/><use x="365.4581" xlink:href="#Y" y="180.312296"/><use x="374.4551" xlink:href="#Z" y="180.312296"/><use x="383.4521" xlink:href="#v" y="180.312296"/><use x="392.4491" xlink:href="#w" y="180.312296"/><use x="401.4461" xlink:href="#aa" y="180.312296"/><use x="410.4431" xlink:href="#ab" y="180.312296"/><use x="419.4401" xlink:href="#ac" y="180.312296"/><use x="428.4371" xlink:href="#I" y="180.312296"/><use x="437.4341" xlink:href="#u" y="180.312296"/><use x="446.4311" xlink:href="#ad" y="180.312296"/><use x="455.4281" xlink:href="#J" y="180.312296"/><use x="464.4251" xlink:href="#ae" y="180.312296"/><use x="473.4221" xlink:href="#G" y="180.312296"/><use x="482.4191" xlink:href="#H" y="180.312296"/><use x="276.3965" xlink:href="#ag" y="816.8432"/><path d="m1.5625-1.0625c-.148438.1875.597656.28125 2.234375.28125.238281 0 .410156-.0625.515625-.1875.101562-.125.222656-.476562.359375-1.0625h.328125l-.15625 2.03125h-4.375v-.265625l1.421875-1.609375c.789063-.863281 1.265625-1.40625 1.421875-1.625.226562-.3125.394531-.613281.5-.90625.101562-.300781.15625-.570312.15625-.8125 0-.40625-.109375-.722656-.328125-.953125-.21875-.226563-.527344-.34375-.921875-.34375-.449219 0-.8125.109375-1.09375.328125-.273438.210938-.40625.433594-.40625.671875 0 .085937.019531.148437.0625.1875.03125.042969.113281.078125.25.109375.320312.074219.484375.265625.484375.578125 0 .167969-.058594.308594-.171875.421875-.105469.105469-.242188.15625-.40625.15625-.199219 0-.375-.09375-.53125-.28125-.148438-.1875-.21875-.425781-.21875-.71875 0-.332031.082031-.632812.25-.90625.175781-.269531.4375-.492188.78125-.671875.34375-.175781.710938-.265625 1.109375-.265625.394531 0 .757813.089844 1.09375.265625.332031.167969.582031.390625.75.671875.175781.273438.265625.570312.265625.890625 0 .230469-.042969.460937-.125.6875-.085938.230469-.210938.445313-.375.640625-.28125.355469-.570312.652344-.859375.890625l-1.296875 1.09375c-.324219.273437-.5625.507813-.71875.703125zm0 0" transform="translate(289.174282 816.8432)"/><path d="m2.796875-6.90625c.632813 0 1.160156.25 1.578125.75.53125.605469.796875 1.527344.796875 2.765625 0 1.148437-.230469 2.023437-.6875 2.625-.460937.605469-1.011719.90625-1.65625.90625-.617187 0-1.132813-.253906-1.546875-.765625-.523438-.632812-.78125-1.550781-.78125-2.75 0-1.132812.242188-2.039062.734375-2.71875.394531-.539062.914063-.8125 1.5625-.8125zm.03125.359375c-.4375 0-.777344.210937-1.015625.625-.242188.40625-.359375 1.257813-.359375 2.546875 0 1.273438.125 2.121094.375 2.546875.25.417969.582031.625 1 .625.425781 0 .753906-.191406.984375-.578125.269531-.46875.40625-1.316406.40625-2.546875 0-1.28125-.132812-2.132813-.390625-2.5625-.25-.4375-.585937-.65625-1-.65625zm0 0" transform="translate(294.731447 816.8432)"/><path d="m3.390625-6.765625v6.09375c0 .085937.03125.152344.09375.203125.101563.074219.222656.109375.359375.109375h.9375v.359375h-3.5v-.359375h.796875c.175781 0 .300781-.039063.375-.125.082031-.082031.125-.191406.125-.328125v-4.59375c0-.09375-.039063-.171875-.109375-.234375-.074219-.070313-.167969-.109375-.28125-.109375h-1.09375v-.328125c.507812-.070313.921875-.160156 1.234375-.265625.320313-.113281.601563-.253906.84375-.421875zm0 0" transform="translate(300.288613 816.8432)"/><use x="308.62686" xlink:href="#ag" y="816.8432"/></g></svg>