<svg height="842pt" viewBox="0 0 595.22 842" width="595.22pt" xmlns="http://www.w3.org/2000/svg" xmlns:xlink="http://www.w3.org/1999/xlink"><defs><g id="a"><path d="m6.515625-2.546875c-.054687-.457031-.324219-.878906-.8125-1.265625-.085937-.113281-.058594-.15625.078125-.125.851562.324219 1.28125.761719 1.28125 1.3125 0 .25-.101562.375-.296875.375-.136719 0-.21875-.097656-.25-.296875zm-3.109375-1.265625c.957031-1.363281 1.640625-2.84375 2.046875-4.4375l.65625.328125c.25.117187.164063.226563-.25.328125-.292969.65625-.621094 1.3125-.984375 1.96875l.421875.203125h2.859375v-2.859375l.703125.125c.21875.136719.164063.230469-.15625.28125v2.453125h.203125l.53125-.53125.65625.5c.164062.136719.164062.230469 0 .28125h-1.390625v5.09375c0 .300781-.101563.53125-.296875.6875-.105469.113281-.242188.171875-.40625.171875-.117188 0-.171875-.058594-.171875-.171875 0-.136719-.078125-.230469-.234375-.28125l-.53125-.125c-.117188-.054687-.117188-.1054688 0-.15625h.8125c.1875 0 .28125-.0976562.28125-.296875v-4.921875h-2.953125v5.828125c-.355469.332031-.53125.347656-.53125.046875v-5.875c-.40625.605469-.804687 1.101563-1.1875 1.484375.082031.273438.125.601562.125.984375 0 .460937-.070313.796875-.203125 1.015625-.1875.335938-.449219.5-.78125.5-.105469 0-.199219-.097656-.28125-.296875-.117188-.101563-.226562-.171875-.328125-.203125l-.328125-.125c-.117188-.070312-.105469-.125.03125-.15625l.421875.078125c.132813.03125.296875.046875.484375.046875.132812 0 .257812-.097656.375-.296875.082031-.132813.125-.335937.125-.609375 0-.300781-.058594-.628906-.171875-.984375-.105469-.351563-.367187-.816406-.78125-1.390625l.703125-2.171875h-1.4375v8.03125c-.355469.332031-.53125.347656-.53125.046875v-8.703125l.609375.375h1.28125l.328125-.328125.53125.53125c.21875.1875.117188.273438-.296875.25l-.984375 1.96875c.46875.386719.8125.824219 1.03125 1.3125zm0 0"/></g><g id="b"><path d="m5.328125.5c-.355469-.664062-.820313-1.1875-1.390625-1.5625-.105469-.113281-.089844-.171875.046875-.171875 1.28125.554687 1.921875 1.101563 1.921875 1.640625 0 .21875-.09375.328125-.28125.328125-.117188 0-.214844-.078125-.296875-.234375zm-.734375-6.28125v-1.765625h-2.75v1.765625zm.703125-1.9375c.15625.148438.097656.246094-.171875.296875v5.90625c-.355469.324219-.53125.335937-.53125.03125v-.15625h-2.75v.328125c-.355469.324219-.53125.339844-.53125.046875v-6.984375l.609375.453125h2.546875l.25-.328125zm4.296875-.328125c.21875.148437.164062.246094-.15625.296875v7.625c0 .332031-.101562.578125-.296875.734375-.15625.144531-.320313.226563-.484375.25-.167969.03125-.25-.039063-.25-.203125 0-.136719-.070312-.230469-.203125-.28125l-.703125-.171875c-.136719-.054687-.136719-.1054688 0-.15625h1.03125c.25 0 .375-.125.375-.375v-7.828125zm-2.375 6.609375c-.355469.335938-.53125.351562-.53125.046875v-5.875l.703125.125c.21875.136719.160156.234375-.171875.296875zm-2.625-4.09375h-2.75v1.59375h2.75zm0 1.84375h-2.75v1.796875h2.75zm-1.796875 3.078125c-.773437.6757812-1.554687 1.191406-2.34375 1.546875-.167969.0625-.210937.007812-.125-.15625.875-.574219 1.585937-1.269531 2.140625-2.09375l.734375.484375c.132813.21875 0 .292969-.40625.21875zm0 0"/></g><g id="c"><path d="m9.890625-8.328125c-1.261719 1.230469-1.890625 2.746094-1.890625 4.546875 0 1.8125.628906 3.335938 1.890625 4.5625l-.203125.203125c-1.511719-1.257813-2.265625-2.847656-2.265625-4.765625 0-1.90625.753906-3.488281 2.265625-4.75zm0 0"/></g><g id="d"><path d="m5.5-8.453125c.238281.136719.171875.234375-.203125.296875 1.414063 1.667969 3.023437 2.730469 4.828125 3.1875-.355469.136719-.601562.34375-.734375.625-1.886719-.988281-3.292969-2.222656-4.21875-3.703125-1.210937 1.917969-2.757813 3.339844-4.640625 4.265625-.1875.0625-.230469.011719-.125-.15625 2.050781-1.28125 3.503906-2.851562 4.359375-4.71875zm1.921875 5.25h-2.875v3.8125c-.355469.332031-.53125.347656-.53125.046875v-3.859375h-2.328125v-.25h5.609375l.25-.328125.578125.421875c.164062.136719.109375.230469-.171875.28125v2.09375c0 .324219-.09375.570313-.28125.734375-.167969.136719-.359375.21875-.578125.25-.167969.03125-.25-.0351562-.25-.203125 0-.132813-.070312-.234375-.203125-.296875l-.65625-.15625c-.136719-.050781-.136719-.109375 0-.171875h1.078125c.238281 0 .359375-.117187.359375-.359375zm-4.015625-1.96875h2.546875l.53125-.53125.65625.5c.164063.136719.164063.230469 0 .28125h-3.734375zm0 0"/></g><g id="e"><path d="m2.828125-2.34375h3.203125v-4.0625h-.046875l-3.15625 4.03125zm2.5 1.96875c.25 0 .425781-.050781.53125-.15625.113281-.113281.171875-.289062.171875-.53125v-.78125h-3.6875v-.328125l3.9375-5.046875h.53125v4.875h1.109375v.5h-1.109375v.78125c0 .242188.050781.417969.15625.53125.132812.105469.3125.15625.53125.15625h.375v.25h-2.90625v-.25zm0 0"/></g><g id="f"><path d="m2.09375-.203125c-.117188.1054688-.25.15625-.40625.15625-.167969 0-.320312-.0507812-.453125-.15625-.117187-.113281-.171875-.265625-.171875-.453125s.054688-.335938.171875-.453125c.132813-.101563.285156-.15625.453125-.15625.15625 0 .289062.054687.40625.15625.132812.136719.203125.289063.203125.453125 0 .1875-.070313.339844-.203125.453125zm0 0"/></g><g id="g"><path d="m6.078125-3.8125c.507813-.46875.765625-1.03125.765625-1.6875 0-.4375-.136719-.789062-.40625-1.0625-.242188-.25-.609375-.375-1.109375-.375-.523437 0-.917969.109375-1.1875.328125-.242187.21875-.359375.398437-.359375.53125v.21875c.019531.054687.046875.089844.078125.109375.082031.117188.148437.214844.203125.296875.050781.105469.078125.214844.078125.328125 0 .167969-.054687.289062-.15625.359375-.117187.085937-.257813.125-.421875.125-.1875 0-.335938-.078125-.4375-.234375-.117188-.144531-.171875-.328125-.171875-.546875 0-.40625.21875-.8125.65625-1.21875.40625-.382813.992187-.578125 1.765625-.578125.738281 0 1.300781.164062 1.6875.484375.40625.335937.609375.761719.609375 1.28125 0 .742187-.414063 1.40625-1.234375 2-.824219.636719-1.382812 1.074219-1.671875 1.3125-.46875.386719-.773437.664063-.90625.828125-.167969.1875-.304687.367188-.40625.53125h2.734375c.414062 0 .742188-.125.984375-.375.25-.238281.429687-.523438.546875-.859375l.203125.09375-.5 1.796875h-4.546875v-.453125c.21875-.351563.476562-.691406.78125-1.015625.238281-.28125.578125-.597656 1.015625-.953125.414063-.351563.882813-.773437 1.40625-1.265625zm0 0"/></g><g id="h"><path d="m3.28125-6.234375v-.25h.28125c.46875 0 .894531-.066406 1.28125-.203125.382812-.132812.644531-.328125.78125-.578125h.125v6.203125c0 .242188.050781.417969.15625.53125.132812.105469.3125.15625.53125.15625h.828125v.25h-3.8125v-.25h.8125c.25 0 .425781-.050781.53125-.15625.113281-.113281.171875-.289062.171875-.53125v-4.46875c0-.164062-.058594-.332031-.171875-.5-.085937-.132812-.234375-.203125-.453125-.203125zm0 0"/></g><g id="i"><path d="m9.796875-1.71875c0 .574219-.179687 1.011719-.53125 1.3125-.273437.1875-.492187.28125-.65625.28125-.1875 0-.28125-.09375-.28125-.28125 0-.113281-.085937-.195312-.25-.25l-.484375-.171875c-.085938-.050781-.085938-.085937 0-.109375l.40625.03125c.269531.054688.515625.070312.734375.046875.164063-.03125.289063-.113281.375-.25.082031-.21875.125-.488281.125-.8125 0-.820313-.414063-1.671875-1.234375-2.546875l.78125-2.671875h-1.6875v7.84375c-.355469.320313-.53125.332031-.53125.03125v-8.40625l.609375.28125h1.609375l.203125-.28125.703125.5c.15625.1875.054688.265625-.296875.234375l-1.140625 2.46875c1.03125.929688 1.546875 1.84375 1.546875 2.75zm-5.484375-.703125h-2.296875v1.84375h2.296875zm-2.296875 2.09375v.90625c-.355469.320313-.53125.332031-.53125.03125v-3.609375l.609375.328125h2.125l.25-.28125.53125.375c.164062.136719.113281.230469-.15625.28125v2.34375c-.355469.320313-.53125.332031-.53125.03125v-.40625zm1.4375-6.484375h1.3125l.53125-.53125.609375.5c.164062.136719.164062.230469 0 .28125h-5.296875v-.25h2.296875v-1.640625l.703125.125c.21875.136719.164063.230469-.15625.28125zm-1.96875.5c.65625.492188.984375 1.007812.984375 1.546875 0 .304687-.101562.453125-.296875.453125-.136719 0-.21875-.132812-.25-.40625-.054687-.625-.230469-1.113281-.53125-1.46875-.085937-.113281-.054687-.15625.09375-.125zm-.953125 2.296875h3.125l.6875-2.265625.75.203125c.21875.167969.117188.277344-.296875.328125l-.9375 1.734375h1.109375l.53125-.53125.65625.484375c.164062.136719.164062.230469 0 .28125h-5.625zm0 0"/></g><g id="j"><path d="m2.171875-8.078125.625.359375h5.25l.28125-.359375.65625.453125c.21875.15625.125.265625-.28125.328125v1.765625c-.367187.324219-.546875.335938-.546875.03125v-.359375h-5.453125v1.34375h6.03125l.296875-.359375.65625.4375c.21875.167969.117188.277344-.296875.328125v1.8125c0 1.34375-.179687 2.2226562-.53125 2.625-.1875.21875-.421875.367187-.703125.453125-.355469.101562-.53125.0625-.53125-.125 0-.136719-.078125-.246094-.234375-.328125l-.5-.203125c-.105469-.1171875-.089844-.171875.046875-.171875l.859375.171875c.40625.050781.691406-.140625.859375-.578125.132812-.46875.203125-1.21875.203125-2.25v-1.5625h-6.15625c-.15625 2.21875-.773437 3.777344-1.84375 4.671875-.1875.082031-.242187.039062-.15625-.125.976563-1.277344 1.46875-2.972656 1.46875-5.078125zm2.046875 6.921875v.78125c-.355469.3359375-.53125.3515625-.53125.046875v-3.125l.625.25h1.96875l.234375-.328125.578125.40625c.164062.148438.113281.246094-.15625.296875v2.046875c-.355469.335938-.53125.351562-.53125.046875v-.421875zm0-1.796875v1.5625h2.1875v-1.5625zm-1.515625-4.515625v1.359375h5.453125v-1.359375zm0 0"/></g><g id="k"><path d="m.734375-6.5625c-.085937-.113281-.054687-.15625.09375-.125.289063.085938.5625.195312.8125.328125l1.109375-2.25.734375.484375c.082031.136719-.039063.179688-.359375.125l-1.3125 1.765625c.289062.21875.4375.421875.4375.609375 0 .25-.054688.375-.15625.375-.136719 0-.230469-.054688-.28125-.171875-.199219-.375-.558594-.753906-1.078125-1.140625zm4.03125 4.671875c.101563.167969.15625.335937.15625.5 0 .21875-.070313.328125-.203125.328125-.167969 0-.277344-.109375-.328125-.328125-.054687-.25-.296875-.6875-.734375-1.3125-.085938-.132813-.058594-.175781.078125-.125.40625.21875.75.53125 1.03125.9375zm4.265625 1.359375h-3.078125v1.03125c-.355469.320312-.53125.332031-.53125.03125v-8.078125l.609375.28125h2.875l.234375-.328125.578125.421875c.164062.136719.113281.230469-.15625.28125v6.71875c-.355469.332031-.53125.347656-.53125.046875zm-1.28125-6.484375v2.875h1.28125v-2.875zm-1.796875 0v2.875h1.265625v-2.875zm0 6.234375h1.265625v-3.109375h-1.265625zm1.796875 0h1.28125v-3.109375h-1.28125zm-5.578125-1.890625c.25.136719.179687.234375-.203125.296875-.273438 1.148438-.695312 2.074219-1.265625 2.78125-.167969.113281-.210937.070312-.125-.125.457031-.976562.742187-2.039062.859375-3.1875zm2.375-3.890625c.082031.167969-.054687.21875-.40625.15625l-1.796875 2.46875 1.84375-.125c-.167969-.320312-.34375-.582031-.53125-.78125-.085938-.101562-.042969-.128906.125-.078125.507812.355469.847656.667969 1.015625.9375.082031.136719.125.277344.125.421875 0 .21875-.085937.328125-.25.328125-.136719 0-.230469-.097656-.28125-.296875-.054687-.1875-.09375-.304688-.125-.359375l-1.0625.15625v4.234375c-.355469.320312-.53125.332031-.53125.03125v-4.1875l-1.40625.25c-.15625.335938-.292969.390625-.40625.171875l-.328125-.65625 1.5625-.046875 1.71875-3.125zm0 0"/></g><g id="l"><path d="m8.328125-2.578125c.132813.15625.050781.226563-.25.203125-.324219 1.367188-.664063 2.226562-1.015625 2.578125-.386719.382813-.757812.601563-1.109375.65625-.335937.082031-.5 0-.5-.25 0-.1875-.121094-.335937-.359375-.4375l-.5-.25c-.085938-.082031-.058594-.125.078125-.125l1.078125.25c.238281 0 .441406-.0351562.609375-.09375.164063-.0507812.328125-.203125.484375-.453125.25-.488281.484375-1.171875.703125-2.046875h-3.734375l-.78125 1.515625c-.4375.167969-.601562.125-.484375-.125.488281-.925781.925781-1.878906 1.3125-2.859375h-3.078125v-.25h7.953125l.625-.609375.765625.5625c.164062.136719.164062.234375 0 .296875h-5.6875l-.546875 1.21875h3.5l.359375-.359375zm-5.5-5.625.625.28125h3.484375l.28125-.359375.65625.453125c.21875.15625.125.265625-.28125.328125v2.296875c-.355469.324219-.53125.335937-.53125.03125v-.359375h-3.703125v.484375c-.355469.335937-.53125.351563-.53125.046875zm4.234375 2.421875v-1.890625h-3.703125v1.890625zm0 0"/></g><g id="m"><path d="m.78125-8.53125c1.5 1.261719 2.25 2.84375 2.25 4.75 0 1.917969-.75 3.507812-2.25 4.765625l-.203125-.203125c1.257813-1.226562 1.890625-2.75 1.890625-4.5625 0-1.800781-.632812-3.316406-1.890625-4.546875zm0 0"/></g><g id="n"><path d="m4.71875-.609375h2.015625c.4375 0 .773437-.03125 1.015625-.09375.25-.050781.382812-.078125.40625-.078125.164062 0 .332031.109375.5.328125.164062.21875.070312.328125-.28125.328125-1.242188 0-2.476562 0-3.703125 0-.980469 0-1.714844-.285156-2.203125-.859375-.304688-.351563-.496094-.789063-.578125-1.3125.050781-.113281.101563-.097656.15625.046875.132813.355469.34375.667969.625.9375.457031.46875 1.140625.703125 2.046875.703125zm2.546875-5.90625c.082031.074219.160156.167969.234375.28125.144531.1875.09375.28125-.15625.28125-.1875 0-.476562 0-.859375 0-.335937 0-.636719.042969-.90625.125-.542969.167969-1.140625.429687-1.796875.78125-.167969.085937-.210938.058594-.125-.078125.40625-.332031.882812-.617188 1.4375-.859375-.65625-.0625-1.167969-.171875-1.53125-.328125-.460938-.21875-.796875-.503906-1.015625-.859375 0-.144531.050781-.160156.15625-.046875.414063.46875 1.25.703125 2.5.703125.90625 0 1.484375-.039063 1.734375-.125.101562-.03125.210938.011719.328125.125zm0 0"/></g><g id="o"><path d="m4.84375-6.734375c.238281.148437.46875.328125.6875.546875.195312.1875.160156.308594-.109375.359375-.6875 1.949219-1.359375 3.386719-2.015625 4.3125-.167969.242187-.34375.433594-.53125.578125-.304688.21875-.511719.1875-.625-.09375-.355469-.101562-.609375-.304688-.765625-.609375-.21875-.382813-.328125-.835937-.328125-1.359375 0-1.09375.335938-1.976562 1.015625-2.65625.90625-.90625 2-1.359375 3.28125-1.359375 1.363281 0 2.429687.386719 3.203125 1.15625.539062.542969.8125 1.226563.8125 2.046875 0 .742188-.257812 1.398438-.765625 1.96875-.742187.824219-1.851563 1.355469-3.328125 1.59375-.117188-.050781-.117188-.101562 0-.15625 1.226562-.300781 2.171875-.835938 2.828125-1.609375.4375-.519531.65625-1.132813.65625-1.84375 0-.738281-.195313-1.328125-.578125-1.765625-.761719-.875-1.90625-1.242188-3.4375-1.109375zm-1.9375 5.171875c.800781-1.195312 1.429688-2.660156 1.890625-4.390625.082031-.320313.015625-.566406-.203125-.734375-.710938.117188-1.339844.445312-1.890625.984375-.710937.710937-1.0625 1.542969-1.0625 2.5 0 .824219.148437 1.386719.453125 1.6875.132812.136719.269531.203125.40625.203125.113281 0 .25-.082031.40625-.25zm0 0"/></g><g id="p"><path d="m9.46875-.25c-.761719-.457031-1.34375-.757812-1.75-.90625-.085938.4375-.277344.757812-.578125.953125-.273437.1875-.640625.28125-1.109375.28125-.605469 0-1.042969-.1328125-1.3125-.40625-.1875-.1875-.28125-.40625-.28125-.65625 0-.1875.109375-.363281.328125-.53125.269531-.195313.691406-.296875 1.265625-.296875.46875 0 .878906.042969 1.234375.125 0-1.53125-.03125-2.703125-.09375-3.515625-.949219.136719-1.765625.203125-2.453125.203125-.25 0-.453125-.066406-.609375-.203125-.335937-.300781-.527344-.5625-.578125-.78125-.03125-.132813.007812-.164063.125-.09375.300781.46875.671875.703125 1.109375.703125.570313 0 1.363281-.066406 2.375-.203125-.03125-.6875-.058594-1.148437-.078125-1.390625-.03125-.300781-.292969-.46875-.78125-.5-.25 0-.265625-.050781-.046875-.15625.1875-.082031.40625-.113281.65625-.09375.269531.03125.53125.132812.78125.296875.101563.085937.085937.195313-.046875.328125-.054688.054688-.078125.1875-.078125.40625 0 .304688.015625.648438.046875 1.03125.8125-.113281 1.257812-.195312 1.34375-.25.132812-.082031.273438-.082031.421875 0 .132813.085938.226563.152344.28125.203125.082031.117187.039063.183594-.125.203125-.65625.117188-1.289063.199219-1.890625.25.082031 1.28125.125 2.5.125 3.65625.601562.21875 1.191406.4375 1.765625.65625.132813.054688.21875.132812.25.234375.050781.167969.0625.292969.03125.375-.054687.167969-.164063.195313-.328125.078125zm-6.84375-6.4375c.113281.117188.113281.226562 0 .328125-.054688.054687-.121094.203125-.203125.453125-.554687 1.5625-.828125 2.765625-.828125 3.609375 0 .46875.03125.742187.09375.8125.050781.085937.101562.074219.15625-.03125.300781-.769531.617188-1.484375.953125-2.140625.132813-.019531.171875.023438.109375.125-.273438.636719-.492188 1.265625-.65625 1.890625-.074219.324219-.109375.585937-.109375.78125 0 .304687.007813.605469.03125.90625.03125.269531-.0625.40625-.28125.40625-.136719 0-.246094-.125-.328125-.375-.21875-.65625-.320312-1.503906-.296875-2.546875.03125-1.113281.222656-2.285156.578125-3.515625.050781-.195313.078125-.414063.078125-.65625 0-.28125-.164063-.488281-.484375-.625-.136719-.050781-.136719-.09375 0-.125.25 0 .453125.058594.609375.171875.082031.054688.273437.230469.578125.53125zm4.59375 5.421875c-.40625-.164063-.828125-.25-1.265625-.25-.554687 0-.921875.09375-1.109375.28125-.085938.085937-.125.183594-.125.296875 0 .15625.039062.277344.125.359375.238281.25.59375.375 1.0625.375.4375 0 .738281-.082031.90625-.25.238281-.25.375-.519531.40625-.8125zm0 0"/></g><g id="q"><path d="m2.015625-.171875c-.167969-.269531-.496094-.625-.984375-1.0625-.136719-.101563-.125-.15625.03125-.15625.65625.1875 1.269531.570313 1.84375 1.140625.25.25.375.5.375.75 0 .15625-.054688.289062-.15625.40625-.085938.082031-.167969.125-.25.125-.136719 0-.246094-.085938-.328125-.25-.136719-.25-.3125-.570312-.53125-.953125zm0 0"/></g><g id="r"><path d="m.734375-7.21875c1.726563-.269531 3.082031-.613281 4.0625-1.03125l.578125.375c.382812.25.25.34375-.40625.28125-.523438.085938-1.070312.167969-1.640625.25v1.765625h.859375l.53125-.53125.65625.484375c.164062.136719.164062.234375 0 .296875h-2.046875v1.015625c.738281.21875 1.242187.46875 1.515625.75.1875.1875.28125.367188.28125.53125 0 .242188-.085938.359375-.25.359375-.1875 0-.335938-.117187-.4375-.359375-.199219-.414062-.570312-.785156-1.109375-1.109375v4.75c-.355469.332031-.53125.347656-.53125.046875v-4.1875c-.585937.929688-1.257813 1.75-2.015625 2.46875-.1875.105469-.246094.0625-.171875-.125 1.175781-1.363281 1.90625-2.742188 2.1875-4.140625h-2.09375v-.25h2.09375v-1.6875c-.65625.085937-1.34375.167969-2.0625.25-.21875-.03125-.21875-.097656 0-.203125zm8.734375 6.84375c-.355469.3359375-.53125.3515625-.53125.046875v-.609375h-2.421875v.984375c-.355469.320313-.53125.332031-.53125.03125v-6.6875l.625.421875h2.203125l.25-.328125.578125.40625c.1875.136719.128906.230469-.171875.28125zm-.53125-.8125v-4.765625h-2.421875v4.765625zm0 0"/></g><g id="s"><path d="m5.125-2.21875h-4.34375v-.25h1.46875v-2.703125l.625.40625h2.25v-2h-2.328125c-.585937 1.179687-1.367187 2.136719-2.34375 2.875-.117187.023437-.140625-.019531-.078125-.125 1.226562-1.34375 2.003906-2.796875 2.328125-4.359375l.78125.296875c.351563.167969.269531.277344-.25.328125-.105469.242188-.214844.484375-.328125.734375h5.171875l.53125-.53125.65625.484375c.164063.148438.164063.246094 0 .296875h-3.609375v2h2.0625l.53125-.53125.65625.5c.15625.136719.15625.230469 0 .28125h-3.25v2.046875h2.953125l.625-.609375.78125.578125c.15625.136719.15625.230469 0 .28125h-4.359375v2.953125c-.355469.332031-.53125.347656-.53125.046875zm-2.328125-2.296875v2.046875h2.328125v-2.046875zm0 0"/></g><g id="t"><path d="m2.546875-.578125c-.523437.5234375-1.125.914063-1.8125 1.1875-.15625.03125-.183594-.007813-.078125-.109375.90625-.5507812 1.519531-1.101562 1.84375-1.65625.414062-.675781.625-1.46875.625-2.375v-4.59375l.609375.375h3.15625l.25-.328125.578125.40625c.15625.136719.097656.230469-.171875.28125v7.015625c0 .3046875-.09375.550781-.28125.75-.167969.15625-.375.234375-.625.234375-.105469 0-.15625-.09375-.15625-.28125 0-.105469-.070313-.171875-.203125-.203125l-.703125-.171875c-.136719-.082031-.136719-.132813 0-.15625h1.0625c.25 0 .375-.125.375-.375v-2.296875h-3.359375c-.117188.90625-.484375 1.671875-1.109375 2.296875zm1.109375-4.59375v2.046875h3.359375v-2.046875zm0-2.328125v2.078125h3.359375v-2.078125zm0 0"/></g><g id="u"><path d="m3.40625-7.171875h3.6875l.25-.328125.578125.40625c.15625.136719.097656.230469-.171875.28125v6.5625c-.355469.3320312-.53125.3476562-.53125.046875v-.734375h-3.890625v1.21875c-.355469.332031-.53125.347656-.53125.046875v-7.953125zm3.8125.234375h-3.890625v2.59375h3.890625zm0 2.828125h-3.890625v2.921875h3.890625zm0 0"/></g><g id="v"><path d="m4.796875-5.421875c-.304687 0-.605469.03125-.90625.09375-.625 1.449219-1.265625 2.898437-1.921875 4.34375-.085938.136719-.210938.40625-.375.8125-.074219.2265625-.167969.34375-.28125.34375-.085938 0-.152344-.0742188-.203125-.21875-.03125-.0507812-.046875-.160156-.046875-.328125 0-.238281.082031-.441406.25-.609375.164062-.164063.359375-.46875.578125-.90625.601563-1.175781 1.132813-2.296875 1.59375-3.359375-.824219.167969-1.34375.304688-1.5625.40625-.15625.085938-.304687.074219-.4375-.03125-.28125-.195312-.421875-.488281-.421875-.875.03125-.070312.070312-.070312.125 0 .132812.304688.351562.453125.65625.453125.195312 0 .785156-.078125 1.765625-.234375.132813-.300781.269531-.617188.40625-.953125.132813-.382813.125-.671875-.03125-.859375-.136719-.164062-.355469-.257812-.65625-.28125-.117187-.0625-.117187-.117188 0-.171875.269531 0 .457031.015625.5625.046875.300781.085938.5625.234375.78125.453125.25.242187.238281.390625-.03125.453125-.199219.4375-.40625.859375-.625 1.265625.382813-.050781.644531-.078125.78125-.078125.351563 0 .613281.09375.78125.28125.25.304688.375.808594.375 1.515625 0 2.105469-.507813 3.417969-1.515625 3.9375-.28125.132813-.421875.082031-.421875-.15625 0-.195313-.054687-.335937-.15625-.421875-.25-.1875-.527344-.390625-.828125-.609375-.054688-.101563-.023438-.144531.09375-.125.289062.167969.601562.335937.9375.5.269531.136719.515625.054687.734375-.25.25-.351563.425781-.789063.53125-1.3125.132813-.65625.203125-1.257813.203125-1.8125 0-.488281-.039062-.816406-.109375-.984375-.117187-.21875-.324219-.328125-.625-.328125zm2.625-.234375c-.136719-.113281-.109375-.15625.078125-.125.46875.1875.960938.492188 1.484375.90625.6875.542969 1.066406 1.210938 1.140625 2 .03125.273438-.007812.480469-.109375.625-.167969.21875-.335937.203125-.5-.046875-.167969-.269531-.371094-.394531-.609375-.375-.386719.03125-.78125.0625-1.1875.09375-.167969-.03125-.183594-.085937-.046875-.171875.4375-.050781.898437-.117188 1.390625-.203125.195312-.03125.28125-.113281.25-.25-.054688-.4375-.257812-.882813-.609375-1.34375-.335937-.4375-.761719-.804687-1.28125-1.109375zm0 0"/></g><g id="w"><path d="m3.078125-2.5c.957031-1.007812 2.007813-1.515625 3.15625-1.515625.925781 0 1.625.230469 2.09375.6875.351563.355469.53125.78125.53125 1.28125 0 .542969-.195313 1.007813-.578125 1.390625-.792969.769531-2.292969 1.140625-4.5 1.109375-.167969-.085937-.167969-.167969 0-.25 1.988281-.054687 3.335938-.429687 4.046875-1.140625.300781-.300781.453125-.703125.453125-1.203125 0-.4375-.109375-.765625-.328125-.984375-.4375-.4375-.984375-.65625-1.640625-.65625-.929688 0-1.71875.328125-2.375.984375-.40625.417969-.652344.820313-.734375 1.203125-.054687.242188-.179687.308594-.375.203125-.304687-.164063-.4375-.507813-.40625-1.03125.03125-.6875.097656-1.300781.203125-1.84375.050781-.300781.078125-.601563.078125-.90625 0-.1875-.042969-.347656-.125-.484375-.074219-.132812-.058594-.285156.046875-.453125.21875-.332031.585938-.550781 1.109375-.65625.25-.050781.578125-.078125.984375-.078125.050781 0 .066406-.03125.046875-.09375-.03125-.082031-.132813-.132812-.296875-.15625-.605469-.113281-1.054688-.484375-1.34375-1.109375.019531-.082031.054688-.097656.109375-.046875.332031.417969.910156.703125 1.734375.859375.519531.117187.804688.390625.859375.828125.019531.25-.089844.320312-.328125.203125-.355469-.164063-.65625-.25-.90625-.25-.761719 0-1.292969.152344-1.59375.453125-.199219.199219-.199219.390625 0 .578125.15625.167969.195312.386719.125.65625-.167969.542969-.242188 1.351563-.21875 2.421875 0 .167969.054688.167969.171875 0zm0 0"/></g><g id="x"><path d="m3.40625-4.390625h-.90625c-.136719 2.4375-.820312 4.097656-2.046875 4.96875-.117187.019531-.15625-.007813-.125-.078125 1.039063-1.070312 1.585937-2.796875 1.640625-5.171875v-1.484375h-1.59375v-.25h1.640625v-1.921875l.734375.125c.300781.105469.234375.214844-.203125.328125v1.46875h.859375l.453125-.4375.578125.40625c.15625.136719.15625.230469 0 .28125h-1.9375v1.515625h.78125l.328125-.328125.53125.53125c.195313.148438.128906.230469-.203125.25v1.359375l1.03125-.40625v-1.484375l.6875.125c.21875.136719.164062.230469-.15625.28125v.859375l1.109375-.4375v-1.765625l.6875.125c.21875.136719.164063.230469-.15625.28125v1.109375l1.140625-.5.375-.359375.53125.53125c.1875.136719.101562.230469-.25.28125v2.34375c0 .21875-.054688.382812-.15625.484375-.085938.085937-.21875.152344-.40625.203125-.167969.0625-.25.011719-.25-.15625 0-.082031-.058594-.148438-.171875-.203125l-.484375-.125c-.054688-.050781-.054688-.09375 0-.125h.65625c.1875 0 .28125-.09375.28125-.28125v-2.390625l-1.265625.546875v2.984375c-.355469.335938-.53125.351562-.53125.046875v-2.796875l-1.109375.453125v3.125c0 .1015625.050781.15625.15625.15625h3.125c.269531 0 .421875-.09375.453125-.28125l.234375-1.28125c.0625-.050781.101562-.050781.125 0v1.28125c0 .1367188.054688.2265625.171875.28125.1875.082031.1875.207031 0 .375-.085937.082031-.328125.125-.734375.125h-3.578125c-.324219 0-.484375-.167969-.484375-.5v-3.078125l-1.03125.421875v.328125c0 .898438-.109375 1.5625-.328125 2-.167969.3007812-.371094.507812-.609375.625-.25.101562-.375.046875-.375-.171875.03125-.1054688-.039062-.19921875-.203125-.28125l-.578125-.25c-.085938-.082031-.070312-.125.046875-.125l.6875.171875c.28125.054688.472656-.046875.578125-.296875.164062-.320313.25-.894531.25-1.71875zm5.171875-2.25.5625-.578125.75.53125c.15625.136719.15625.230469 0 .28125h-4.46875c-.367187.742188-.726563 1.320312-1.078125 1.734375-.105469.054687-.148438.023437-.125-.09375.601562-1.144531 1.054688-2.414063 1.359375-3.8125l.859375.296875c.195312.15625.0625.277344-.40625.359375-.1875.5-.367188.929687-.53125 1.28125zm0 0"/></g><g id="y"><path d="m3.5625-8c.28125.25.1875.34375-.28125.28125-.792969.855469-1.695312 1.585938-2.703125 2.1875-.199219.074219-.257813.03125-.171875-.125 1.09375-.875 1.984375-1.804688 2.671875-2.796875zm4.3125 3.03125v4.6875c0 .3203125-.09375.566406-.28125.734375-.167969.132813-.335938.21875-.5.25-.167969.019531-.25-.046875-.25-.203125 0-.148438-.070312-.246094-.203125-.296875l-.734375-.15625c-.136719-.0585938-.136719-.1171875 0-.171875h1.0625c.25 0 .375-.125.375-.375v-4.46875h-3.40625v-.234375h4.875l.5-.5.65625.453125c.164062.136719.164062.230469 0 .28125zm-3.8125-.984375c.132812.21875 0 .289063-.40625.203125-.304688.4375-.632812.867188-.984375 1.28125l.234375.078125c.21875.136719.164062.230469-.15625.28125v4.71875c-.355469.332031-.53125.347656-.53125.046875v-4.640625c-.523438.554687-1.109375 1.023437-1.765625 1.40625-.136719 0-.164063-.054687-.078125-.171875 1.113281-.875 2.140625-2.101562 3.078125-3.6875zm.609375-1.515625h3.578125l.453125-.453125.5625.421875c.164063.136719.164063.230469 0 .28125h-4.59375zm0 0"/></g><g id="z"><path d="m6.03125-7.421875c-.085938.085937-.125.546875-.125 1.390625 1.226562-.082031 2.050781-.148438 2.46875-.203125.15625-.03125.425781-.085937.8125-.171875.132812-.019531.269531.023438.40625.125.300781.25.46875.417969.5.5.050781.167969-.03125.21875-.25.15625-.542969-.132812-1.242188-.203125-2.09375-.203125-.523438 0-1.136719.027344-1.84375.078125v1.765625c.082031.28125.125.667969.125 1.15625 0 1.71875-.75 2.960937-2.25 3.734375-.148438.019531-.179688-.023438-.09375-.125.332031-.25.617188-.511719.859375-.78125.601563-.6875.921875-1.507812.953125-2.46875-.21875.335938-.507812.5-.859375.5-.304687 0-.578125-.125-.828125-.375-.1875-.1875-.28125-.472656-.28125-.859375 0-.382813.132812-.710937.40625-.984375.21875-.21875.492188-.328125.828125-.328125.238281 0 .457031.058594.65625.171875 0-.4375 0-.890625 0-1.359375-1.460937.21875-2.542969.4375-3.25.65625-.273437.085937-.464844.152344-.578125.203125-.15625.085938-.304688.074219-.4375-.03125-.304688-.21875-.523438-.535156-.65625-.953125 0-.132813.050781-.144531.15625-.03125.132812.242187.394531.359375.78125.359375.382812 0 .972656-.066406 1.765625-.203125.625-.101563 1.363281-.195313 2.21875-.28125 0-.351563 0-.722656 0-1.109375 0-.632812-.277344-.976562-.828125-1.03125-.105469-.050781-.105469-.101562 0-.15625.46875-.0625.835938.007812 1.109375.203125.132813.085937.257813.203125.375.359375.101563.148438.085937.246094-.046875.296875zm-1.265625 3.109375c-.304687 0-.523437.109375-.65625.328125-.148437.199219-.21875.433594-.21875.703125 0 .4375.109375.75.328125.9375.082031.085938.222656.125.421875.125.1875 0 .335937-.050781.453125-.15625.238281-.25.359375-.59375.359375-1.03125 0-.601562-.230469-.90625-.6875-.90625zm0 0"/></g><g id="A"><path d="m1.71875-2.140625c0-.21875.109375-.421875.328125-.609375.195313-.164062 1.484375-1.5625 3.859375-4.1875.082031-.050781.054688-.09375-.078125-.125-.65625.117188-1.3125.28125-1.96875.5-.199219.105469-.351563.15625-.453125.15625-.054688 0-.1875-.078125-.40625-.234375-.28125-.21875-.433594-.46875-.453125-.75 0-.132813.050781-.144531.15625-.03125.164063.242187.441406.359375.828125.359375.351562 0 .570312-.007812.65625-.03125.539062-.082031 1.070312-.179688 1.59375-.296875.269531-.050781.476562-.128906.625-.234375.050781-.082031.117188-.125.203125-.125.132813 0 .285156.070312.453125.203125.132812.105469.203125.199219.203125.28125 0 .0625-.125.132813-.375.203125-.304687.148438-1.246094 1.054688-2.828125 2.71875-.085938.136719-.042969.164062.125.078125.570312-.21875 1.160156-.328125 1.765625-.328125.894531 0 1.617187.273438 2.171875.8125.382812.386719.578125.898438.578125 1.53125 0 .730469-.21875 1.3125-.65625 1.75-.65625.664062-1.589844 1-2.796875 1-.761719 0-1.292969-.152344-1.59375-.453125-.25-.25-.375-.5-.375-.75 0-.21875.082031-.40625.25-.5625.1875-.195313.472656-.296875.859375-.296875.46875 0 .890625.195312 1.265625.578125.25.25.414062.59375.5 1.03125.519531-.1132812.96875-.363281 1.34375-.75.414062-.40625.625-.894531.625-1.46875 0-.632813-.195312-1.140625-.578125-1.515625-.4375-.4375-1.054687-.65625-1.84375-.65625-.875 0-1.765625.449219-2.671875 1.34375-.355469.355469-.640625.714844-.859375 1.078125-.054687.105469-.148437.15625-.28125.15625-.117187 0-.171875-.125-.171875-.375zm3.78125 2.3125c-.03125-.5-.167969-.867187-.40625-1.109375-.21875-.21875-.480469-.328125-.78125-.328125-.5 0-.75.1875-.75.5625 0 .167969.082031.335937.25.5.25.2460938.8125.375 1.6875.375zm0 0"/></g><g id="B"><path d="m2.625-1.1875c.25.242188.375.554688.375.9375s-.125.703125-.375.953125c-.25.238281-.5625.359375-.9375.359375-.386719 0-.703125-.121094-.953125-.359375-.242187-.25-.359375-.570313-.359375-.953125s.117188-.695312.359375-.9375c.25-.25.566406-.375.953125-.375.375 0 .6875.125.9375.375zm-.203125 1.6875c.1875-.199219.28125-.4492188.28125-.75 0-.300781-.09375-.546875-.28125-.734375s-.433594-.28125-.734375-.28125c-.304688 0-.554688.09375-.75.28125-.1875.1875-.28125.433594-.28125.734375 0 .3007812.09375.550781.28125.75.195312.1875.445312.28125.75.28125.300781 0 .546875-.09375.734375-.28125zm0 0"/></g><g id="C"><path d="m8.015625-2.859375h-6.03125v-.71875h6.03125zm0 0"/></g><g id="D"><path d="m3.78125-3.828125c.519531.1875.894531.433594 1.125.734375.226562.304688.34375.667969.34375 1.09375 0 .53125-.167969.992188-.5 1.375-.4375.511719-1.058594.765625-1.859375.765625-.699219 0-1.257813-.171875-1.671875-.515625-.40625-.34375-.609375-.765625-.609375-1.265625 0-.382813.113281-.71875.34375-1 .238281-.289063.648437-.535156 1.234375-.734375-.855469-.363281-1.28125-.929688-1.28125-1.703125 0-.5.191406-.925781.578125-1.28125.382813-.363281.867187-.546875 1.453125-.546875.414062 0 .769531.074219 1.0625.21875.300781.136719.53125.328125.6875.578125.164062.242187.25.492187.25.75 0 .617187-.386719 1.125-1.15625 1.53125zm-.375-.125c.332031-.195313.554688-.390625.671875-.578125.125-.195312.1875-.445312.1875-.75 0-.414062-.121094-.734375-.359375-.953125-.230469-.21875-.5625-.328125-1-.328125-.429688 0-.761719.105469-1 .3125-.230469.210938-.34375.480469-.34375.8125 0 .324219.097656.585938.296875.78125.207031.199219.722656.433594 1.546875.703125zm-.859375.71875c-.460937.199219-.78125.421875-.96875.671875-.179687.242188-.265625.539062-.265625.890625 0 .460937.132812.820313.40625 1.078125.28125.25.675781.375 1.1875.375.539062 0 .957031-.125 1.25-.375.300781-.257812.453125-.597656.453125-1.015625 0-.382813-.132813-.671875-.390625-.859375-.261719-.195312-.820312-.453125-1.671875-.765625zm0 0"/></g></defs><g fill="#231f20"><use x="102.3858" xlink:href="#a" y="71.1738"/><use x="123.3788" xlink:href="#b" y="71.1738"/><use x="133.8753" xlink:href="#c" y="71.1738"/><use x="144.3718" xlink:href="#d" y="71.1738"/><use x="154.8683" xlink:href="#e" y="71.1738"/><use x="165.3648" xlink:href="#f" y="71.1738"/><use x="175.8613" xlink:href="#g" y="71.1738"/><use x="186.3578" xlink:href="#f" y="71.1738"/><use x="196.8543" xlink:href="#h" y="71.1738"/><path d="m4.015625-6.640625c-.273437.242187-.40625.539063-.40625.890625 0 .335938.175781.625.53125.875.351563.242188.832031.484375 1.4375.734375.4375-.164063.765625-.382813.984375-.65625.21875-.25.328125-.523437.328125-.828125 0-.375-.136719-.703125-.40625-.984375-.25-.269531-.664063-.40625-1.234375-.40625-.542969 0-.953125.125-1.234375.375zm2.546875 3.84375c-.304688-.289063-.851562-.578125-1.640625-.859375-.574219.25-.96875.511719-1.1875.78125-.21875.273438-.328125.546875-.328125.828125 0 .523437.148438.929687.453125 1.21875.320313.304687.785156.453125 1.390625.453125.550781 0 .988281-.132812 1.3125-.40625.332031-.269531.5-.582031.5-.9375 0-.414062-.167969-.773438-.5-1.078125zm-3.203125-1.84375c-.304687-.300781-.453125-.613281-.453125-.9375 0-.519531.207031-.929687.625-1.234375.4375-.300781 1.007812-.453125 1.71875-.453125.769531 0 1.34375.152344 1.71875.453125.414062.304688.625.6875.625 1.15625 0 .40625-.179688.761719-.53125 1.0625-.386719.324219-.757812.542969-1.109375.65625.65625.273438 1.117187.574219 1.390625.90625.269531.355469.40625.695312.40625 1.015625 0 .523437-.195312.976563-.578125 1.359375-.375.386719-1.015625.578125-1.921875.578125-.792969 0-1.421875-.175781-1.890625-.53125-.4375-.332031-.65625-.769531-.65625-1.3125 0-.46875.191406-.867187.578125-1.203125.382812-.320312.804688-.550781 1.265625-.6875-.492187-.21875-.886719-.492188-1.1875-.828125zm0 0" transform="translate(207.3508 71.1738)"/><use x="217.8473" xlink:href="#i" y="71.1738"/><use x="228.3438" xlink:href="#j" y="71.1738"/><use x="238.8403" xlink:href="#k" y="71.1738"/><use x="249.3368" xlink:href="#b" y="71.1738"/><use x="259.8333" xlink:href="#h" y="71.1738"/><use x="270.3298" xlink:href="#l" y="71.1738"/><use x="280.8263" xlink:href="#m" y="71.1738"/><use x="81.3928" xlink:href="#n" y="86.70862"/><use x="91.8893" xlink:href="#o" y="86.70862"/><use x="102.3858" xlink:href="#i" y="86.70862"/><use x="112.8823" xlink:href="#j" y="86.70862"/><use x="123.3788" xlink:href="#k" y="86.70862"/><use x="133.8753" xlink:href="#b" y="86.70862"/><use x="144.3718" xlink:href="#p" y="86.70862"/><use x="154.8683" xlink:href="#q" y="86.70862"/><use x="165.3648" xlink:href="#d" y="86.70862"/><use x="175.8613" xlink:href="#r" y="86.70862"/><use x="186.3578" xlink:href="#e" y="86.70862"/><use x="196.8543" xlink:href="#s" y="86.70862"/><use x="207.3508" xlink:href="#e" y="86.70862"/><use x="217.8473" xlink:href="#t" y="86.70862"/><use x="228.3438" xlink:href="#h" y="86.70862"/><use x="238.8403" xlink:href="#u" y="86.70862"/><use x="249.3368" xlink:href="#v" y="86.70862"/><use x="259.8333" xlink:href="#w" y="86.70862"/><use x="270.3298" xlink:href="#x" y="86.70862"/><use x="280.8263" xlink:href="#y" y="86.70862"/><use x="291.3228" xlink:href="#z" y="86.70862"/><use x="301.8193" xlink:href="#A" y="86.70862"/><use x="312.3158" xlink:href="#B" y="86.70862"/><use x="102.3858" xlink:href="#a" y="117.77826"/><use x="123.3788" xlink:href="#b" y="117.77826"/><use x="133.877399" xlink:href="#c" y="117.77826"/><use x="144.375999" xlink:href="#d" y="117.77826"/><path d="m4.140625-3.65625c-.386719.4375-.578125.867188-.578125 1.28125 0 .65625.164062 1.148438.5 1.46875.351562.355469.765625.53125 1.234375.53125.457031 0 .835937-.175781 1.140625-.53125.300781-.351562.453125-.875.453125-1.5625 0-.625-.125-1.085938-.375-1.390625-.242187-.300781-.59375-.453125-1.0625-.453125-.492187 0-.929687.21875-1.3125.65625zm.125-.65625c.351563-.300781.804687-.453125 1.359375-.453125.65625 0 1.160156.195313 1.515625.578125.351563.417969.53125.992188.53125 1.71875 0 .6875-.21875 1.25-.65625 1.6875-.4375.46875-1.027344.703125-1.765625.703125-.824219 0-1.453125-.300781-1.890625-.90625-.40625-.570313-.609375-1.429687-.609375-2.578125 0-1.175781.257812-2.082031.78125-2.71875.539062-.65625 1.222656-.984375 2.046875-.984375.570313 0 .992187.101563 1.265625.296875.300781.21875.453125.464844.453125.734375 0 .136719-.042969.246094-.125.328125-.054687.105469-.164063.15625-.328125.15625-.21875 0-.367188-.09375-.4375-.28125-.0625-.132812-.105469-.3125-.125-.53125 0-.132812-.070312-.242188-.203125-.328125-.117187-.050781-.335937-.078125-.65625-.078125-.5 0-.9375.289062-1.3125.859375-.367187.542969-.558594 1.511719-.578125 2.90625.132812-.4375.378906-.804687.734375-1.109375zm0 0" transform="translate(154.874598 117.77826)"/><use x="165.373197" xlink:href="#f" y="117.77826"/><use x="175.871796" xlink:href="#h" y="117.77826"/><use x="186.370396" xlink:href="#h" y="117.77826"/><path d="m1.765625-.25c-.136719.136719-.289063.203125-.453125.203125-.167969 0-.320312-.066406-.453125-.203125-.105469-.101562-.15625-.238281-.15625-.40625 0-.164062.050781-.300781.15625-.40625.132813-.132812.285156-.203125.453125-.203125.164062 0 .316406.070313.453125.203125.101563.105469.15625.242188.15625.40625 0 .167969-.054687.304688-.15625.40625zm0 0" transform="translate(196.868995 117.77826)"/><use x="202.119344" xlink:href="#g" y="117.77826"/><use x="212.617944" xlink:href="#g" y="117.77826"/><use x="223.116543" xlink:href="#i" y="117.77826"/><use x="233.553213" xlink:href="#j" y="117.77826"/><use x="244.051812" xlink:href="#k" y="117.77826"/><use x="254.550412" xlink:href="#b" y="117.77826"/><use x="265.049011" xlink:href="#h" y="117.77826"/><use x="275.54761" xlink:href="#l" y="117.77826"/><use x="286.046209" xlink:href="#m" y="117.77826"/><use x="81.3928" xlink:href="#n" y="133.31308"/><use x="91.8893" xlink:href="#o" y="133.31308"/><use x="102.3858" xlink:href="#i" y="133.31308"/><use x="112.8823" xlink:href="#j" y="133.31308"/><use x="123.3788" xlink:href="#k" y="133.31308"/><use x="133.8753" xlink:href="#b" y="133.31308"/><use x="144.3718" xlink:href="#p" y="133.31308"/><use x="154.8683" xlink:href="#q" y="133.31308"/><use x="165.3648" xlink:href="#d" y="133.31308"/><use x="175.8613" xlink:href="#r" y="133.31308"/><path d="m5.328125-.9375v.203125c0 .273437-.042969.449219-.125.53125-.074219.085937-.183594.125-.328125.125-.15625 0-.292969-.054687-.40625-.171875-.085938-.082031-.125-.257812-.125-.53125 0-.382812.066406-.796875.203125-1.234375.113281-.320313.332031-.8125.65625-1.46875.382813-.65625.769531-1.285156 1.15625-1.890625.320313-.519531.609375-.914062.859375-1.1875h-2.546875c-.460937 0-.789063.109375-.984375.328125-.1875.25-.367188.554687-.53125.90625l-.203125-.046875.53125-1.796875h4.390625v.328125c-.324219.324219-.59375.652344-.8125.984375-.25.355469-.542969.859375-.875 1.515625-.292969.574219-.511719 1.132812-.65625 1.671875-.136719.523437-.203125 1.015625-.203125 1.484375zm0 0" transform="translate(186.3578 133.31308)"/><use x="196.8543" xlink:href="#s" y="133.31308"/><use x="207.3508" xlink:href="#e" y="133.31308"/><use x="217.8473" xlink:href="#t" y="133.31308"/><use x="228.3438" xlink:href="#h" y="133.31308"/><use x="238.8403" xlink:href="#u" y="133.31308"/><use x="249.3368" xlink:href="#v" y="133.31308"/><use x="259.8333" xlink:href="#w" y="133.31308"/><use x="270.3298" xlink:href="#x" y="133.31308"/><use x="280.8263" xlink:href="#y" y="133.31308"/><use x="291.3228" xlink:href="#z" y="133.31308"/><use x="301.8193" xlink:href="#A" y="133.31308"/><use x="312.3158" xlink:href="#B" y="133.31308"/><use x="276.3965" xlink:href="#C" y="816.8432"/><path d="m1.5625-1.0625c-.148438.1875.597656.28125 2.234375.28125.238281 0 .410156-.0625.515625-.1875.101562-.125.222656-.476562.359375-1.0625h.328125l-.15625 2.03125h-4.375v-.265625l1.421875-1.609375c.789063-.863281 1.265625-1.40625 1.421875-1.625.226562-.3125.394531-.613281.5-.90625.101562-.300781.15625-.570312.15625-.8125 0-.40625-.109375-.722656-.328125-.953125-.21875-.226563-.527344-.34375-.921875-.34375-.449219 0-.8125.109375-1.09375.328125-.273438.210938-.40625.433594-.40625.671875 0 .085937.019531.148437.0625.1875.03125.042969.113281.078125.25.109375.320312.074219.484375.265625.484375.578125 0 .167969-.058594.308594-.171875.421875-.105469.105469-.242188.15625-.40625.15625-.199219 0-.375-.09375-.53125-.28125-.148438-.1875-.21875-.425781-.21875-.71875 0-.332031.082031-.632812.25-.90625.175781-.269531.4375-.492188.78125-.671875.34375-.175781.710938-.265625 1.109375-.265625.394531 0 .757813.089844 1.09375.265625.332031.167969.582031.390625.75.671875.175781.273438.265625.570312.265625.890625 0 .230469-.042969.460937-.125.6875-.085938.230469-.210938.445313-.375.640625-.28125.355469-.570312.652344-.859375.890625l-1.296875 1.09375c-.324219.273437-.5625.507813-.71875.703125zm0 0" transform="translate(289.174282 816.8432)"/><use x="294.731447" xlink:href="#D" y="816.8432"/><use x="300.288613" xlink:href="#D" y="816.8432"/><use x="308.62686" xlink:href="#C" y="816.8432"/></g></svg>