<svg height="842pt" viewBox="0 0 595.22 842" width="595.22pt" xmlns="http://www.w3.org/2000/svg" xmlns:xlink="http://www.w3.org/1999/xlink"><defs><g id="a"><path d="m6.21875-2.421875c-.054688-.445313-.3125-.851563-.78125-1.21875-.074219-.101563-.046875-.140625.078125-.109375.8125.3125 1.21875.730469 1.21875 1.25 0 .230469-.09375.34375-.28125.34375-.125 0-.203125-.085938-.234375-.265625zm-2.96875-1.21875c.90625-1.300781 1.554688-2.707031 1.953125-4.21875l.625.3125c.238281.105469.160156.210937-.234375.3125-.28125.625-.59375 1.25-.9375 1.875l.390625.1875h2.734375v-2.734375l.671875.125c.207031.125.15625.214844-.15625.265625v2.34375h.1875l.515625-.5.625.46875c.15625.125.15625.21875 0 .28125h-1.328125v4.84375c0 .289063-.09375.515625-.28125.671875-.105469.101562-.234375.15625-.390625.15625-.105469 0-.15625-.054688-.15625-.15625 0-.136719-.078125-.230469-.234375-.28125l-.5-.109375c-.105469-.054687-.105469-.1054688 0-.15625h.78125c.175781 0 .265625-.09375.265625-.28125v-4.6875h-2.8125v5.546875c-.34375.3125-.515625.328125-.515625.046875v-5.59375c-.386719.574219-.761719 1.042969-1.125 1.40625.070313.261719.109375.574219.109375.9375 0 .4375-.0625.761719-.1875.96875-.1875.3125-.4375.46875-.75.46875-.105469 0-.195312-.085937-.265625-.265625-.105469-.101562-.210937-.171875-.3125-.203125l-.3125-.109375c-.105469-.082031-.09375-.132812.03125-.15625l.390625.078125c.132812.023437.289062.03125.46875.03125.132812 0 .253906-.085937.359375-.265625.070313-.132812.109375-.332031.109375-.59375 0-.28125-.054688-.59375-.15625-.9375-.105469-.332031-.351562-.773438-.734375-1.328125l.65625-2.078125h-1.359375v7.671875c-.34375.3125-.515625.328125-.515625.046875v-8.296875l.59375.34375h1.203125l.3125-.3125.515625.515625c.207031.179688.113281.257812-.28125.234375l-.9375 1.875c.445313.367187.773437.78125.984375 1.25zm0 0"/></g><g id="b"><path d="m5.09375.46875c-.34375-.621094-.792969-1.117188-1.34375-1.484375-.105469-.101563-.089844-.15625.046875-.15625 1.226563.523437 1.84375 1.042969 1.84375 1.5625 0 .207031-.09375.3125-.28125.3125-.105469 0-.195313-.078125-.265625-.234375zm-.71875-5.984375v-1.6875h-2.609375v1.6875zm.671875-1.84375c.15625.136719.101563.230469-.15625.28125v5.625c-.34375.3125-.515625.328125-.515625.046875v-.15625h-2.609375v.3125c-.34375.3125-.515625.324219-.515625.03125v-6.640625l.59375.421875h2.421875l.234375-.3125zm4.109375-.3125c.207031.136719.15625.230469-.15625.28125v7.265625c0 .320312-.09375.5625-.28125.71875-.15625.125-.3125.203125-.46875.234375-.15625.019531-.234375-.046875-.234375-.203125 0-.125-.0625-.214844-.1875-.265625l-.671875-.15625c-.125-.054687-.125-.1054688 0-.15625h.984375c.226563 0 .34375-.1171875.34375-.359375v-7.46875zm-2.265625 6.296875c-.34375.3125-.515625.328125-.515625.046875v-5.59375l.671875.109375c.207031.136719.15625.230469-.15625.28125zm-2.515625-3.90625h-2.609375v1.53125h2.609375zm0 1.765625h-2.609375v1.71875h2.609375zm-1.71875 2.921875c-.730469.6523438-1.46875 1.15625-2.21875 1.5-.15625.050781-.199219 0-.125-.15625.832031-.554688 1.507812-1.21875 2.03125-2l.703125.46875c.132813.210938.003906.273438-.390625.1875zm0 0"/></g><g id="c"><path d="m9.421875-7.9375c-1.199219 1.167969-1.796875 2.617188-1.796875 4.34375 0 1.71875.597656 3.167969 1.796875 4.34375l-.1875.1875c-1.4375-1.195312-2.15625-2.707031-2.15625-4.53125 0-1.832031.71875-3.347656 2.15625-4.546875zm0 0"/></g><g id="d"><path d="m5.25-8.0625c.226562.136719.160156.230469-.203125.28125 1.351563 1.585938 2.890625 2.601562 4.609375 3.046875-.335938.136719-.570312.335937-.703125.59375-1.792969-.945313-3.136719-2.125-4.03125-3.53125-1.148437 1.835937-2.617187 3.195313-4.40625 4.078125-.1875.054688-.230469 0-.125-.15625 1.957031-1.226562 3.335937-2.726562 4.140625-4.5zm1.828125 5.015625h-2.734375v3.640625c-.34375.3125-.515625.320312-.515625.03125v-3.671875h-2.21875v-.234375h5.359375l.234375-.3125.546875.390625c.15625.125.101562.214844-.15625.265625v2c0 .3125-.09375.546875-.28125.703125-.15625.125-.339844.203125-.546875.234375-.15625.03125-.234375-.0351562-.234375-.203125 0-.125-.0625-.210937-.1875-.265625l-.625-.15625c-.136719-.050781-.136719-.101562 0-.15625h1.015625c.226563 0 .34375-.117188.34375-.359375zm-3.828125-1.875h2.421875l.515625-.515625.625.46875c.15625.136719.15625.230469 0 .28125h-3.5625zm0 0"/></g><g id="e"><path d="m3.59375-.90625c0 .34375.195312.515625.59375.515625h.34375v.234375h-2.578125v-.234375h.4375c.382813 0 .578125-.171875.578125-.515625v-1.203125h-2.609375v-.203125l2.84375-4.53125h.390625v4.5h1.0625v.234375h-1.0625zm-.65625-4.96875-2.234375 3.53125h2.265625v-3.53125zm0 0"/></g><g id="f"><path d="m2-.203125c-.105469.1054688-.234375.15625-.390625.15625s-.304687-.0507812-.4375-.15625c-.105469-.101563-.15625-.242187-.15625-.421875 0-.1875.050781-.332031.15625-.4375.132813-.101562.28125-.15625.4375-.15625s.285156.054688.390625.15625c.125.136719.1875.28125.1875.4375 0 .179688-.0625.320312-.1875.421875zm0 0"/></g><g id="g"><path d="m2.859375-6.84375v5.828125c0 .417969.242187.625.734375.625h.390625v.234375h-2.84375v-.234375h.34375c.5 0 .75-.207031.75-.625v-4.625c0-.226563-.132813-.34375-.390625-.34375h-.703125v-.234375h.34375c.601563 0 1.007813-.207031 1.21875-.625zm0 0"/></g><g id="h"><path d="m2.34375-2.859375c.863281-.832031 1.296875-1.585937 1.296875-2.265625 0-.519531-.132813-.898438-.390625-1.140625-.210938-.207031-.496094-.3125-.859375-.3125-.367187 0-.667969.105469-.90625.3125-.15625.15625-.234375.355469-.234375.59375 0 .15625.050781.289063.15625.390625.082031.074219.125.179688.125.3125 0 .261719-.132812.390625-.390625.390625-.15625 0-.277344-.035156-.359375-.109375-.105469-.101562-.15625-.265625-.15625-.484375 0-.46875.144531-.84375.4375-1.125.382812-.363281.851562-.546875 1.40625-.546875.59375 0 1.046875.15625 1.359375.46875s.46875.703125.46875 1.171875c0 .605469-.296875 1.195313-.890625 1.765625-1.511719 1.460938-2.335938 2.355469-2.46875 2.6875h2.3125c.46875 0 .765625-.363281.890625-1.09375h.234375l-.234375 1.6875h-3.625v-.515625c.226563-.488281.835937-1.21875 1.828125-2.1875zm0 0"/></g><g id="i"><path d="m4.421875-6.578125c-.761719 1.210937-1.28125 2.308594-1.5625 3.296875-.15625.523438-.234375 1-.234375 1.4375 0 .210938.007812.589844.03125 1.140625 0 .210937-.039062.351563-.109375.421875-.085937.085938-.1875.125-.3125.125-.136719 0-.257813-.050781-.359375-.15625-.074219-.082031-.109375-.238281-.109375-.46875 0-.625.191406-1.457031.578125-2.5.207031-.519531.71875-1.515625 1.53125-2.984375h-1.953125c-.574219 0-.929687.367187-1.0625 1.09375l-.234375-.03125.28125-1.640625h3.515625zm0 0"/></g><g id="j"><path d="m4.53125-7.59375.796875.125c.28125.105469.210937.210938-.203125.3125v.5c.34375 3.398438 1.84375 5.601562 4.5 6.609375-.367188 0-.730469.160156-1.09375.484375-1.980469-1.257812-3.167969-3.414062-3.5625-6.46875-.085938 1.804688-.449219 3.226562-1.09375 4.265625-.65625 1.042969-1.726562 1.890625-3.203125 2.546875-.15625.03125-.183594-.023438-.078125-.15625 1.375-.777344 2.335938-1.679688 2.890625-2.703125.625-1.164063.972656-2.570313 1.046875-4.21875zm0 0"/></g><g id="k"><path d="m7.078125-5.828125c-.3125 1.773437-.820313 3.089844-1.515625 3.953125 1.007812.78125 2.296875 1.355469 3.859375 1.71875-.417969.15625-.664063.363281-.734375.625-1.230469-.3984375-2.375-1.0625-3.4375-2-1.023438 1.054688-2.539062 1.757812-4.546875 2.125-.230469 0-.257813-.054688-.078125-.15625 1.851562-.4765625 3.273438-1.25 4.265625-2.3125-.8125-1.09375-1.351563-2.410156-1.609375-3.953125h-2.421875v-.234375h3.875v-1.71875l.703125.109375c.289062.105469.226562.210937-.1875.3125v1.296875h2.890625l.578125-.59375.75.546875c.15625.136719.15625.230469 0 .28125zm-3.515625 0c.257812 1.4375.804688 2.636719 1.640625 3.59375.625-.90625 1.039063-2.101563 1.25-3.59375zm0 0"/></g><g id="l"><path d="m5.640625-4.265625c.175781.1875.265625.414063.265625.671875 0 .261719-.078125.46875-.234375.625-.179687.179688-.398437.265625-.65625.265625-.273437 0-.484375-.078125-.640625-.234375-.179688-.175781-.265625-.394531-.265625-.65625 0-.257812.078125-.46875.234375-.625.175781-.1875.398438-.28125.671875-.28125.257813 0 .46875.078125.625.234375zm0 0"/></g><g id="m"><path d="m3.640625-7.4375c.207031.085938.101563.179688-.3125.28125-.242187.648438-.542969 1.296875-.90625 1.953125.601563.210937.644531.367187.125.46875v5.515625c-.34375.3125-.515625.328125-.515625.046875v-5.203125c-.4375.625-.960938 1.199219-1.5625 1.71875-.15625.105469-.210938.105469-.15625 0 1.28125-1.59375 2.128906-3.300781 2.546875-5.125zm5.234375 1.953125c-1.148438.898437-2.328125 1.667969-3.546875 2.3125v3.015625c0 .1054688.050781.15625.15625.15625h2.84375c.238281 0 .394531-.144531.46875-.4375l.390625-1.4375c.050781-.050781.09375-.039062.125.03125l-.046875 1.53125c0 .074219.039063.136719.125.1875.15625.1171875.15625.25 0 .40625-.136719.125-.335937.1875-.59375.1875h-3.515625c-.3125 0-.46875-.15625-.46875-.46875v-7.703125l.703125.109375c.289063.105469.226563.210938-.1875.3125v3.84375c1.769531-1.207031 2.835937-2.132812 3.203125-2.78125l.734375.546875c.132813.210937.003906.273437-.390625.1875zm0 0"/></g><g id="n"><path d="m1.40625-6.296875c.03125-.15625.082031-.15625.15625 0 .03125.105469.054688.234375.078125.390625h4.703125c.414062-.726562.753906-1.421875 1.015625-2.078125l.578125.3125c.5.242187.4375.371094-.1875.390625-.417969.5-.835938.960938-1.25 1.375h1.984375l.234375-.3125.828125.8125c.207031.210938.050781.277344-.46875.203125l-.859375.546875c-.15625.136719-.210938.109375-.15625-.078125l.546875-.9375h-6.921875c-.03125.554687-.136719.960937-.3125 1.21875-.136719.179687-.265625.265625-.390625.265625-.242187 0-.359375-.085938-.359375-.265625 0-.101563.078125-.234375.234375-.390625.363281-.375.546875-.859375.546875-1.453125zm2.65625-1.84375c.789062.3125 1.1875.730469 1.1875 1.25 0 .242187-.078125.359375-.234375.359375-.136719 0-.230469-.078125-.28125-.234375-.136719-.5-.386719-.90625-.75-1.21875-.179687-.15625-.152344-.207031.078125-.15625zm-2.0625.359375c.832031.3125 1.25.6875 1.25 1.125 0 .261719-.105469.390625-.3125.390625-.085938 0-.152344-.085937-.203125-.265625-.179687-.519531-.4375-.882812-.78125-1.09375-.074219-.101562-.058594-.15625.046875-.15625zm3.4375 5.515625h2.8125l.59375-.59375.734375.546875c.15625.136719.15625.230469 0 .28125h-4.140625v1.984375c0 .320313-.089844.5625-.265625.71875-.1875.15625-.351563.234375-.484375.234375-.15625 0-.234375-.078125-.234375-.234375 0-.105469-.0625-.199219-.1875-.28125l-.625-.109375c-.136719-.054688-.136719-.105469 0-.15625h.9375c.226563 0 .34375-.12109375.34375-.359375v-1.796875h-4.0625v-.234375h4.0625v-1.140625l.515625.28125 1.0625-1.0625h-4v-.234375h4.109375l.3125-.3125.625.625c.15625.15625 0 .210937-.46875.15625l-1.640625.984375zm0 0"/></g><g id="o"><path d="m6.34375-7.125c.101562.210938.15625.460938.15625.75 0 .210938-.09375.3125-.28125.3125-.15625 0-.246094-.117188-.265625-.359375-.054687-.519531-.304687-1.023437-.75-1.515625-.074219-.132812-.03125-.175781.125-.125.519531.3125.859375.625 1.015625.9375zm-5.953125 6.375c.675781-1.0625 1.117187-2.101562 1.328125-3.125h-1.015625v-.234375h1.0625c.070313-.3125.132813-.753906.1875-1.328125h-1.4375v-.234375h1.4375c.03125-.394531.046875-.835937.046875-1.328125h-1.21875v-.234375h2.734375l.3125-.3125.4375.421875c.15625.136719.101563.230469-.15625.28125v1.171875h.34375l.515625-.515625.625.515625h1.453125l.96875-2.46875.671875.4375c.15625.210937.0625.273437-.28125.1875l-1.125 1.84375h.96875l.515625-.515625.625.46875c.15625.136719.15625.230469 0 .28125h-2.265625v1.6875h.78125l.5-.515625.625.46875c.15625.136719.15625.230469 0 .28125h-1.90625v1.796875h1.171875l.5-.515625.625.46875c.15625.136719.15625.230469 0 .28125h-2.296875v2.109375c-.34375.3125-.515625.328125-.515625.046875v-2.15625h-1.84375v-.234375h1.84375v-1.796875h-1.515625v-.234375h1.515625v-1.6875h-2.5v1.875c-.34375.3125-.515625.328125-.515625.046875v-.359375h-1.359375c-.085937.367188-.164063.667969-.234375.90625l.1875.1875h1.453125l.234375-.3125.546875.390625c.15625.136719.101563.230469-.15625.28125v2.46875c-.34375.3125-.515625.320313-.515625.03125v-.3125h-1.515625v.671875c-.34375.3125-.515625.320312-.515625.03125v-2.96875c-.261719.699219-.664062 1.308594-1.203125 1.828125-.15625.105469-.199219.078125-.125-.078125zm2.109375-6.25c0 .492188-.011719.933594-.03125 1.328125h1.125v-1.328125zm-.265625 6.53125h1.515625v-2.078125h-1.515625zm1.359375-3.640625v-1.328125h-1.125c-.054688.574219-.121094 1.015625-.203125 1.328125zm0 0"/></g><g id="p"><path d="m9.34375-1.640625c0 .542969-.167969.960937-.5 1.25-.261719.179687-.46875.265625-.625.265625-.1875 0-.28125-.085938-.28125-.265625 0-.101563-.078125-.179687-.234375-.234375l-.46875-.15625c-.074219-.050781-.074219-.09375 0-.125l.390625.046875c.257812.054687.492188.0625.703125.03125.15625-.019531.273437-.097656.359375-.234375.070312-.207031.109375-.46875.109375-.78125 0-.78125-.390625-1.585938-1.171875-2.421875l.75-2.546875h-1.609375v7.484375c-.335937.3125-.5.320313-.5.03125v-8.015625l.578125.265625h1.53125l.1875-.265625.671875.46875c.15625.179688.0625.257812-.28125.234375l-1.09375 2.34375c.988281.886719 1.484375 1.761719 1.484375 2.625zm-5.234375-.671875h-2.1875v1.765625h2.1875zm-2.1875 2v.859375c-.34375.3125-.515625.328125-.515625.046875v-3.453125l.59375.3125h2.03125l.234375-.265625.5.34375c.164063.136719.113281.230469-.15625.28125v2.234375c-.335937.3125-.5.320313-.5.03125v-.390625zm1.359375-6.1875h1.25l.515625-.5.59375.46875c.15625.125.15625.214844 0 .265625h-5.046875v-.234375h2.1875v-1.5625l.65625.125c.207031.125.15625.214844-.15625.265625zm-1.875.46875c.625.46875.9375.96875.9375 1.5 0 .28125-.089844.421875-.265625.421875-.136719 0-.214844-.128906-.234375-.390625-.054688-.601562-.226562-1.070312-.515625-1.40625-.074219-.101562-.046875-.144531.078125-.125zm-.890625 2.203125h2.96875l.65625-2.15625.703125.1875c.21875.15625.128906.261719-.265625.3125l-.90625 1.65625h1.0625l.515625-.515625.625.46875c.15625.136719.15625.230469 0 .28125h-5.359375zm0 0"/></g><g id="q"><path d="m2.078125-7.703125.578125.34375h5.015625l.265625-.34375.625.421875c.207031.15625.117188.261719-.265625.3125v1.6875c-.34375.3125-.515625.324219-.515625.03125v-.34375h-5.203125v1.296875h5.75l.28125-.359375.625.4375c.207031.15625.113281.261719-.28125.3125v1.71875c0 1.273438-.167969 2.1054688-.5 2.5-.1875.207031-.414063.351562-.671875.4375-.335938.101562-.5.0625-.5-.125 0-.125-.078125-.230469-.234375-.3125l-.46875-.1875c-.105469-.1171875-.09375-.171875.03125-.171875l.828125.171875c.382812.050781.65625-.1328125.8125-.5625.132812-.4375.203125-1.148438.203125-2.140625v-1.484375h-5.875c-.15625 2.105469-.742187 3.589844-1.75 4.453125-.1875.082031-.242187.046875-.15625-.109375.9375-1.226562 1.40625-2.847656 1.40625-4.859375zm1.953125 6.609375v.734375c-.34375.3242188-.515625.3398438-.515625.046875v-2.96875l.59375.234375h1.875l.234375-.3125.546875.390625c.15625.125.101563.214844-.15625.265625v1.953125c-.335937.3125-.5.328125-.5.046875v-.390625zm0-1.71875v1.484375h2.078125v-1.484375zm-1.453125-4.3125v1.296875h5.203125v-1.296875zm0 0"/></g><g id="r"><path d="m.703125-6.265625c-.074219-.101563-.046875-.140625.078125-.109375.289062.074219.550781.179688.78125.3125l1.0625-2.15625.703125.46875c.070313.136719-.046875.179688-.359375.125l-1.25 1.671875c.289062.210937.4375.40625.4375.59375 0 .230469-.054688.34375-.15625.34375-.136719 0-.230469-.050781-.28125-.15625-.179688-.363281-.515625-.726563-1.015625-1.09375zm3.828125 4.46875c.101562.15625.15625.3125.15625.46875 0 .210937-.0625.3125-.1875.3125-.15625 0-.261719-.101563-.3125-.3125-.054688-.238281-.289062-.65625-.703125-1.25-.085937-.132813-.058594-.175781.078125-.125.382812.210937.707031.511719.96875.90625zm4.078125 1.28125h-2.9375v.984375c-.335937.3125-.5.328125-.5.046875v-7.71875l.578125.28125h2.734375l.234375-.3125.546875.390625c.15625.125.101563.214844-.15625.265625v6.421875c-.335937.308594-.5.320312-.5.03125zm-1.21875-6.171875v2.734375h1.21875v-2.734375zm-1.71875 0v2.734375h1.21875v-2.734375zm0 5.9375h1.21875v-2.96875h-1.21875zm1.71875 0h1.21875v-2.96875h-1.21875zm-5.3125-1.796875c.226563.136719.160156.230469-.203125.28125-.261719 1.09375-.664062 1.980469-1.203125 2.65625-.15625.101563-.199219.066406-.125-.109375.445313-.945312.722656-1.96875.828125-3.0625zm2.265625-3.71875c.070312.15625-.058594.210937-.390625.15625l-1.71875 2.359375 1.75-.125c-.15625-.3125-.324219-.554688-.5-.734375-.085937-.101563-.046875-.128906.109375-.078125.5.335938.828125.632812.984375.890625.070313.136719.109375.265625.109375.390625 0 .210938-.078125.3125-.234375.3125-.125 0-.214844-.085938-.265625-.265625-.054688-.1875-.09375-.304687-.125-.359375l-1.015625.15625v4.03125c-.335937.3125-.5.328125-.5.046875v-4l-1.328125.234375c-.15625.3125-.289062.367188-.390625.15625l-.3125-.625 1.484375-.03125 1.640625-2.984375zm0 0"/></g><g id="s"><path d="m.59375-5.328125c.832031-.832031 1.414062-1.769531 1.75-2.8125l.75.359375c.207031.125.113281.203125-.28125.234375l-.421875.625h1.515625l.515625-.515625.625.46875c.15625.136719.15625.230469 0 .28125h-1.84375c.394531.367188.59375.664062.59375.890625 0 .292969-.105469.4375-.3125.4375-.1875 0-.28125-.078125-.28125-.234375 0-.082031.015625-.175781.046875-.28125.019531-.226562-.058594-.5-.234375-.8125h-.78125c-.449219.574219-.960937 1.078125-1.53125 1.515625-.15625.054687-.195313 0-.109375-.15625zm6.015625-2.421875c.207031.136719.117187.214844-.265625.234375l-.390625.59375h2.140625l.59375-.59375.734375.546875c.15625.136719.15625.230469 0 .28125h-2.453125c.363281.335938.546875.648438.546875.9375 0 .230469-.09375.34375-.28125.34375-.105469 0-.183594-.050781-.234375-.15625-.023438-.070312-.03125-.210938-.03125-.421875 0-.207031-.09375-.441406-.28125-.703125h-.890625c-.3125.46875-.710937.898438-1.1875 1.28125-.15625.085938-.210937.046875-.15625-.109375.65625-.707031 1.128906-1.566406 1.421875-2.578125zm.78125 7.46875c.207031.085938.378906.058594.515625-.078125.207031-.207031.390625-.816406.546875-1.828125h-3.171875v3.015625c-.34375.3125-.515625.320313-.515625.03125v-2.625c-1.304687 1.335937-2.640625 2.222656-4.015625 2.671875-.1875.019531-.230469-.03125-.125-.15625 1.59375-.7109375 2.859375-1.6875 3.796875-2.9375h-2.3125l-.109375.625c-.34375.261719-.527344.273438-.546875.03125l.46875-2.578125.5.390625h2.34375v-1.125h-3.234375v-.25h6.140625l.265625-.265625.625.3125c.15625.085937.066406.179687-.265625.28125l-.15625 1.515625c-.367187.261719-.5625.277344-.59375.046875l.046875-.28125h-2.3125v1.0625h3.09375l.265625-.28125.59375.390625c.175781.136719.097656.230469-.234375.28125-.15625.9375-.328125 1.546875-.515625 1.828125-.15625.2890625-.367187.515625-.625.671875-.367187.132812-.546875.070312-.546875-.1875 0-.136719-.0625-.2460938-.1875-.328125l-.46875-.3125c-.136719-.101563-.109375-.140625.078125-.109375zm-2.109375-3.4375h2.34375l.125-1.125h-2.46875zm-2.9375.234375-.1875 1.0625h2.609375v-1.0625zm0 0"/></g><g id="t"><path d="m7.9375-2.46875c.132812.15625.054688.226562-.234375.203125-.3125 1.304687-.636719 2.128906-.96875 2.46875-.367187.363281-.71875.570313-1.0625.625-.3125.070313-.46875-.007813-.46875-.234375 0-.1875-.121094-.335938-.359375-.4375l-.46875-.234375c-.074219-.082031-.046875-.125.078125-.125l1.03125.25c.226563 0 .421875-.0351562.578125-.09375.15625-.0507812.3125-.191406.46875-.421875.238281-.46875.460938-1.117188.671875-1.953125h-3.5625l-.75 1.4375c-.417969.15625-.574219.121094-.46875-.109375.46875-.882812.882813-1.796875 1.25-2.734375h-2.921875v-.234375h7.578125l.59375-.59375.734375.546875c.15625.136719.15625.230469 0 .28125h-5.4375l-.5 1.171875h3.328125l.34375-.359375zm-5.234375-5.359375.578125.28125h3.328125l.28125-.359375.625.4375c.207031.15625.113281.261719-.28125.3125v2.1875c-.335937.3125-.5.328125-.5.046875v-.359375h-3.53125v.46875c-.335937.3125-.5.328125-.5.046875zm4.03125 2.3125v-1.796875h-3.53125v1.796875zm0 0"/></g><g id="u"><path d="m.75-8.140625c1.425781 1.199219 2.140625 2.714844 2.140625 4.546875 0 1.824219-.714844 3.335938-2.140625 4.53125l-.203125-.1875c1.195313-1.175781 1.796875-2.625 1.796875-4.34375 0-1.726562-.601562-3.175781-1.796875-4.34375zm0 0"/></g><g id="v"><path d="m4.5-.59375h1.921875c.414063 0 .738281-.023438.96875-.078125.238281-.050781.367187-.078125.390625-.078125.15625 0 .3125.105469.46875.3125.15625.210938.066406.3125-.265625.3125-1.179687 0-2.355469 0-3.53125 0-.9375 0-1.640625-.269531-2.109375-.8125-.28125-.34375-.464844-.757812-.546875-1.25.050781-.101562.101563-.09375.15625.03125.132813.34375.332031.648438.59375.90625.4375.4375 1.085937.65625 1.953125.65625zm2.421875-5.625c.082031.074219.160156.164062.234375.265625.132812.1875.082031.28125-.15625.28125-.179688 0-.449219 0-.8125 0-.3125 0-.601562.039063-.859375.109375-.53125.15625-1.109375.40625-1.734375.75-.15625.085938-.195312.058594-.109375-.078125.382813-.3125.835937-.585937 1.359375-.828125-.625-.050781-1.105469-.15625-1.4375-.3125-.449219-.207031-.777344-.476562-.984375-.8125 0-.132812.050781-.148438.15625-.046875.394531.449219 1.191406.671875 2.390625.671875.863281 0 1.410156-.039062 1.640625-.125.101563-.019531.207031.023438.3125.125zm0 0"/></g><g id="w"><path d="m4.609375-6.421875c.238281.136719.460937.308594.671875.515625.1875.179688.148438.292969-.109375.34375-.65625 1.855469-1.296875 3.226562-1.921875 4.109375-.15625.242187-.328125.421875-.515625.546875-.28125.210938-.476563.183594-.578125-.078125-.34375-.101563-.59375-.296875-.75-.578125-.210938-.363281-.3125-.796875-.3125-1.296875 0-1.039063.328125-1.890625.984375-2.546875.851563-.851562 1.894531-1.28125 3.125-1.28125 1.300781 0 2.316406.367188 3.046875 1.09375.519531.523438.78125 1.171875.78125 1.953125 0 .710937-.246094 1.335937-.734375 1.875-.710937.78125-1.765625 1.292969-3.171875 1.53125-.105469-.050781-.105469-.101563 0-.15625 1.175781-.289063 2.078125-.800781 2.703125-1.53125.414063-.488281.625-1.070313.625-1.75 0-.707031-.183594-1.269531-.546875-1.6875-.730469-.832031-1.828125-1.1875-3.296875-1.0625zm-1.828125 4.9375c.75-1.144531 1.347656-2.539063 1.796875-4.1875.070313-.3125.003906-.546875-.203125-.703125-.679688.105469-1.277344.417969-1.796875.9375-.679687.679688-1.015625 1.476562-1.015625 2.390625 0 .78125.144531 1.3125.4375 1.59375.125.136719.253906.203125.390625.203125.101563 0 .234375-.078125.390625-.234375zm0 0"/></g><g id="x"><path d="m9.03125-.234375c-.730469-.445313-1.289062-.734375-1.671875-.859375-.085937.417969-.265625.714844-.546875.890625-.261719.1875-.617188.28125-1.0625.28125-.574219 0-.992188-.1289062-1.25-.390625-.1875-.1875-.28125-.394531-.28125-.625 0-.1875.101562-.359375.3125-.515625.257812-.175781.664062-.265625 1.21875-.265625.445312 0 .835938.039062 1.171875.109375 0-1.457031-.027344-2.578125-.078125-3.359375-.90625.136719-1.6875.203125-2.34375.203125-.242188 0-.4375-.066406-.59375-.203125-.3125-.289062-.496094-.539062-.546875-.75-.023437-.125.019531-.148438.125-.078125.28125.449219.628906.671875 1.046875.671875.550781 0 1.3125-.066406 2.28125-.203125-.03125-.644531-.058594-1.085937-.078125-1.328125-.03125-.28125-.28125-.4375-.75-.46875-.230469 0-.242187-.050781-.03125-.15625.175781-.070312.382813-.097656.625-.078125.257813.03125.503906.125.734375.28125.101562.074219.09375.179687-.03125.3125-.054688.054687-.078125.183594-.078125.390625 0 .28125.007813.605469.03125.96875.78125-.101562 1.210937-.179688 1.296875-.234375.125-.070313.253906-.070313.390625 0 .125.085937.210937.152344.265625.203125.082031.105469.046875.167969-.109375.1875-.625.105469-1.226563.183594-1.796875.234375.070312 1.230469.109375 2.390625.109375 3.484375.570313.210938 1.132813.417969 1.6875.625.125.054688.203125.132812.234375.234375.050781.15625.0625.277344.03125.359375-.054688.15625-.15625.183594-.3125.078125zm-6.53125-6.140625c.101562.105469.101562.210938 0 .3125-.054688.054688-.117188.195312-.1875.421875-.523438 1.492187-.78125 2.640625-.78125 3.453125 0 .4375.023438.699219.078125.78125.050781.074219.101563.058594.15625-.046875.28125-.726563.578125-1.40625.890625-2.03125.132812-.019531.175781.023437.125.125-.261719.59375-.46875 1.195313-.625 1.796875-.085938.3125-.125.558594-.125.734375 0 .292969.015625.585937.046875.875.019531.257813-.074219.390625-.28125.390625-.125 0-.230469-.121094-.3125-.359375-.210937-.625-.296875-1.429687-.265625-2.421875.019531-1.070312.203125-2.195312.546875-3.375.050781-.175781.078125-.382812.078125-.625 0-.257812-.15625-.453125-.46875-.578125-.136719-.050781-.136719-.09375 0-.125.226562 0 .421875.054687.578125.15625.082031.054687.265625.226563.546875.515625zm4.390625 5.15625c-.398437-.15625-.804687-.234375-1.21875-.234375-.523437 0-.875.09375-1.0625.28125-.074219.074219-.109375.164063-.109375.265625 0 .15625.035156.277344.109375.359375.238281.230469.582031.34375 1.03125.34375.414063 0 .703125-.078125.859375-.234375.226562-.226562.359375-.488281.390625-.78125zm0 0"/></g><g id="y"><path d="m1.921875-.15625c-.15625-.257812-.46875-.597656-.9375-1.015625-.136719-.101563-.125-.15625.03125-.15625.625.179687 1.210937.542969 1.765625 1.09375.226562.23828125.34375.472656.34375.703125 0 .15625-.054688.285156-.15625.390625-.074219.082031-.152344.125-.234375.125-.125 0-.230469-.078125-.3125-.234375-.125-.242188-.292969-.542969-.5-.90625zm0 0"/></g><g id="z"><path d="m.703125-6.890625c1.644531-.257813 2.9375-.582031 3.875-.96875l.546875.34375c.363281.242187.234375.335937-.390625.28125-.5.074219-1.023437.152344-1.5625.234375v1.671875h.8125l.515625-.5.625.46875c.15625.125.15625.214844 0 .265625h-1.953125v.984375c.695313.210937 1.175781.445313 1.4375.703125.1875.1875.28125.359375.28125.515625 0 .230469-.078125.34375-.234375.34375-.1875 0-.335938-.113281-.4375-.34375-.179688-.394531-.527344-.75-1.046875-1.0625v4.546875c-.34375.3125-.515625.320312-.515625.03125v-3.984375c-.542969.886719-1.179688 1.667969-1.90625 2.34375-.1875.105469-.242188.0625-.15625-.125 1.113281-1.300781 1.800781-2.617187 2.0625-3.953125h-1.984375v-.234375h1.984375v-1.59375c-.625.074219-1.277344.152344-1.953125.234375-.210937-.03125-.210937-.097656 0-.203125zm8.328125 6.53125c-.335938.3242188-.5.3398438-.5.046875v-.59375h-2.3125v.953125c-.335938.3125-.5.320313-.5.03125v-6.375l.578125.390625h2.109375l.234375-.3125.546875.390625c.1875.125.132812.214844-.15625.265625zm-.5-.78125v-4.53125h-2.3125v4.53125zm0 0"/></g><g id="A"><path d="m2.703125-2.234375h3.046875v-3.875h-.03125l-3.015625 3.84375zm2.390625 1.875c.226562 0 .394531-.050781.5-.15625.101562-.101563.15625-.269531.15625-.5v-.75h-3.515625v-.3125l3.75-4.8125h.515625v4.65625h1.046875v.46875h-1.046875v.75c0 .230469.050781.398437.15625.5.125.105469.289062.15625.5.15625h.359375v.234375h-2.78125v-.234375zm0 0"/></g><g id="B"><path d="m4.890625-2.109375h-4.140625v-.234375h1.40625v-2.578125l.578125.390625h2.15625v-1.921875h-2.234375c-.542969 1.125-1.28125 2.039063-2.21875 2.734375-.105469.03125-.132812-.003906-.078125-.109375 1.164063-1.28125 1.90625-2.664063 2.21875-4.15625l.75.28125c.332031.15625.253906.261719-.234375.3125-.105469.230469-.210938.464844-.3125.703125h4.921875l.515625-.515625.625.46875c.15625.136719.15625.230469 0 .28125h-3.4375v1.921875h1.953125l.5-.515625.625.46875c.15625.136719.15625.230469 0 .28125h-3.078125v1.953125h2.8125l.578125-.59375.75.546875c.15625.136719.15625.230469 0 .28125h-4.140625v2.8125c-.34375.3125-.515625.328125-.515625.046875zm-2.234375-2.1875v1.953125h2.234375v-1.953125zm0 0"/></g><g id="C"><path d="m2.421875-.546875c-.492187.5-1.0625.878906-1.71875 1.140625-.15625.019531-.183594-.023438-.078125-.125.863281-.5195312 1.453125-1.039062 1.765625-1.5625.382813-.65625.578125-1.410156.578125-2.265625v-4.390625l.59375.359375h3.015625l.234375-.3125.546875.390625c.15625.125.101563.214844-.15625.265625v6.6875c0 .2929688-.09375.53125-.28125.71875-.15625.15625-.351563.234375-.578125.234375-.105469 0-.15625-.09375-.15625-.28125 0-.105469-.070312-.167969-.203125-.1875l-.65625-.171875c-.136719-.070313-.136719-.125 0-.15625h1.015625c.226562 0 .34375-.113281.34375-.34375v-2.1875h-3.203125c-.105469.855469-.460937 1.585937-1.0625 2.1875zm1.0625-4.375v1.953125h3.203125v-1.953125zm0-2.234375v1.984375h3.203125v-1.984375zm0 0"/></g><g id="D"><path d="m3.125-5.953125v-.234375h.28125c.4375 0 .835938-.0625 1.203125-.1875.375-.132812.625-.316406.75-.546875h.125v5.90625c0 .230469.050781.398437.15625.5.125.105469.289063.15625.5.15625h.78125v.234375h-3.640625v-.234375h.78125c.238281 0 .410156-.050781.515625-.15625.101563-.101563.15625-.269531.15625-.5v-4.265625c0-.15625-.054687-.3125-.15625-.46875-.085937-.132812-.230469-.203125-.4375-.203125zm0 0"/></g><g id="E"><path d="m3.25-6.84375h3.515625l.234375-.3125.546875.390625c.15625.125.101563.214844-.15625.265625v6.265625c-.335937.3085938-.5.3203125-.5.03125v-.703125h-3.71875v1.1875c-.34375.3125-.515625.320312-.515625.03125v-7.59375zm3.640625.234375h-3.71875v2.46875h3.71875zm0 2.703125h-3.71875v2.765625h3.71875zm0 0"/></g><g id="F"><path d="m4.578125-5.171875c-.292969 0-.578125.027344-.859375.078125-.605469 1.386719-1.21875 2.773438-1.84375 4.15625-.074219.125-.1875.386719-.34375.78125-.085938.2070312-.179688.3125-.28125.3125-.074219 0-.136719-.0703125-.1875-.203125-.03125-.0507812-.046875-.15625-.046875-.3125 0-.226563.078125-.421875.234375-.578125s.335938-.441406.546875-.859375c.570313-1.125 1.082031-2.195313 1.53125-3.21875-.78125.167969-1.277344.304687-1.484375.40625-.15625.074219-.304688.058594-.4375-.046875-.261719-.175781-.390625-.453125-.390625-.828125.03125-.070313.070313-.070313.125 0 .125.292969.332031.4375.625.4375.175781 0 .734375-.078125 1.671875-.234375.132812-.289062.265625-.59375.390625-.90625.132813-.363281.125-.632812-.03125-.8125-.136719-.15625-.34375-.25-.625-.28125-.105469-.050781-.105469-.101562 0-.15625.257813 0 .441406.015625.546875.046875.28125.074219.523438.214844.734375.421875.238281.242188.226563.386719-.03125.4375-.1875.417969-.386719.820312-.59375 1.203125.363281-.050781.613281-.078125.75-.078125.34375 0 .59375.09375.75.28125.226563.292969.34375.777344.34375 1.453125 0 2-.484375 3.25-1.453125 3.75-.261719.132813-.390625.082031-.390625-.15625 0-.1875-.054687-.316406-.15625-.390625-.230469-.1875-.492187-.382812-.78125-.59375-.054687-.101562-.027344-.140625.078125-.109375.289062.15625.59375.3125.90625.46875.257812.125.492188.046875.703125-.234375.226563-.34375.398437-.757812.515625-1.25.125-.625.1875-1.195312.1875-1.71875 0-.46875-.039062-.78125-.109375-.9375-.105469-.21875-.304687-.328125-.59375-.328125zm2.5-.234375c-.125-.101562-.101563-.140625.078125-.109375.445312.179687.914062.464844 1.40625.859375.65625.523438 1.019531 1.164062 1.09375 1.921875.03125.261719-.007812.453125-.109375.578125-.15625.210938-.3125.199219-.46875-.03125-.15625-.257812-.355469-.378906-.59375-.359375-.367187.03125-.742187.058594-1.125.078125-.15625-.019531-.171875-.070312-.046875-.15625.414062-.050781.859375-.113281 1.328125-.1875.1875-.03125.265625-.109375.234375-.234375-.054688-.414063-.246094-.847656-.578125-1.296875-.3125-.414062-.71875-.769531-1.21875-1.0625zm0 0"/></g><g id="G"><path d="m2.9375-2.390625c.90625-.957031 1.910156-1.4375 3.015625-1.4375.882813 0 1.546875.21875 1.984375.65625.34375.34375.515625.75.515625 1.21875 0 .523437-.183594.964844-.546875 1.328125-.761719.726562-2.199219 1.082031-4.3125 1.0625-.15625-.085938-.15625-.164062 0-.234375 1.90625-.054687 3.195312-.421875 3.875-1.109375.289062-.28125.4375-.65625.4375-1.125 0-.414062-.105469-.726562-.3125-.9375-.417969-.414062-.9375-.625-1.5625-.625-.898438 0-1.65625.3125-2.28125.9375-.386719.386719-.621094.761719-.703125 1.125-.054687.242188-.167969.308594-.34375.203125-.292969-.15625-.421875-.484375-.390625-.984375.019531-.644531.082031-1.226562.1875-1.75.050781-.289062.078125-.578125.078125-.859375 0-.1875-.039063-.347656-.109375-.484375-.085938-.125-.074219-.265625.03125-.421875.207031-.3125.5625-.519531 1.0625-.625.226562-.050781.539062-.078125.9375-.078125.050781 0 .0625-.023438.03125-.078125-.023438-.082031-.109375-.132813-.265625-.15625-.574219-.101563-1.007813-.457031-1.296875-1.0625.03125-.070313.070312-.082031.125-.03125.3125.386719.859375.65625 1.640625.8125.5.105469.773437.367187.828125.78125.019531.242187-.085938.308594-.3125.203125-.34375-.15625-.636719-.234375-.875-.234375-.730469 0-1.234375.140625-1.515625.421875-.1875.1875-.1875.371094 0 .546875.15625.15625.191406.371094.109375.640625-.15625.523438-.21875 1.289062-.1875 2.296875 0 .15625.050781.15625.15625 0zm0 0"/></g><g id="H"><path d="m3.25-4.1875h-.859375c-.136719 2.324219-.789063 3.902344-1.953125 4.734375-.105469.03125-.148438.003906-.125-.078125.988281-1.019531 1.507812-2.660156 1.5625-4.921875v-1.421875h-1.515625v-.234375h1.5625v-1.828125l.703125.109375c.28125.105469.210938.210937-.203125.3125v1.40625h.828125l.421875-.421875.546875.390625c.15625.125.15625.214844 0 .265625h-1.828125v1.453125h.734375l.3125-.3125.515625.515625c.175781.125.109375.203125-.203125.234375v1.28125l.984375-.390625v-1.40625l.671875.125c.207031.125.15625.214844-.15625.265625v.828125l1.046875-.4375v-1.6875l.671875.125c.207031.125.15625.214844-.15625.265625v1.0625l1.09375-.46875.34375-.34375.515625.5c.175781.136719.097656.230469-.234375.28125v2.21875c0 .210937-.054688.367187-.15625.46875-.085938.085937-.214844.152344-.390625.203125-.15625.054688-.234375 0-.234375-.15625 0-.082031-.054688-.148438-.15625-.203125l-.46875-.109375c-.054688-.050781-.054688-.09375 0-.125h.625c.175781 0 .265625-.085938.265625-.265625v-2.265625l-1.203125.5v2.859375c-.34375.3125-.515625.324219-.515625.03125v-2.65625l-1.046875.4375v2.96875c0 .1015625.050781.15625.15625.15625h2.96875c.257812 0 .398438-.09375.421875-.28125l.234375-1.203125c.050781-.050781.09375-.050781.125 0v1.203125c0 .1367188.050781.2265625.15625.28125.175781.082031.175781.203125 0 .359375-.085938.070312-.320312.109375-.703125.109375h-3.40625c-.3125 0-.46875-.15625-.46875-.46875v-2.9375l-.984375.390625v.3125c0 .867188-.105469 1.507812-.3125 1.921875-.15625.2890625-.351562.488281-.578125.59375-.242187.101563-.359375.050781-.359375-.15625.03125-.1054688-.03125-.19921875-.1875-.28125l-.546875-.234375c-.085937-.082031-.074219-.125.03125-.125l.671875.15625c.257812.054688.441406-.035156.546875-.265625.15625-.3125.234375-.859375.234375-1.640625zm4.921875-2.15625.546875-.546875.703125.515625c.15625.125.15625.214844 0 .265625h-4.25c-.34375.710937-.6875 1.261719-1.03125 1.65625-.105469.054687-.140625.027344-.109375-.078125.570312-1.101562 1.003906-2.316406 1.296875-3.640625l.8125.265625c.1875.15625.054687.277344-.390625.359375-.179688.46875-.34375.871094-.5 1.203125zm0 0"/></g><g id="I"><path d="m3.40625-7.625c.257812.230469.164062.320312-.28125.265625-.75.8125-1.609375 1.507813-2.578125 2.078125-.179687.074219-.230469.03125-.15625-.125 1.039063-.832031 1.890625-1.71875 2.546875-2.65625zm4.109375 2.890625v4.453125c0 .3203125-.09375.5625-.28125.71875-.15625.125-.3125.203125-.46875.234375-.15625.019531-.234375-.046875-.234375-.203125 0-.125-.0625-.214844-.1875-.265625l-.703125-.15625c-.136719-.0585938-.136719-.1171875 0-.171875h1.015625c.226562 0 .34375-.113281.34375-.34375v-4.265625h-3.25v-.234375h4.65625l.46875-.46875.625.421875c.15625.136719.15625.230469 0 .28125zm-3.640625-.9375c.125.210937-.007812.273437-.390625.1875-.292969.429687-.605469.835937-.9375 1.21875l.234375.078125c.207031.136719.15625.230469-.15625.28125v4.5c-.34375.3125-.515625.320312-.515625.03125v-4.421875c-.492187.523437-1.046875.964844-1.671875 1.328125-.136719 0-.164062-.050781-.078125-.15625 1.0625-.832031 2.035156-2.003906 2.921875-3.515625zm.578125-1.453125h3.40625l.4375-.421875.546875.390625c.15625.125.15625.214844 0 .265625h-4.390625zm0 0"/></g><g id="J"><path d="m5.75-7.078125c-.074219.074219-.109375.515625-.109375 1.328125 1.164063-.082031 1.945313-.148438 2.34375-.203125.15625-.019531.414063-.070313.78125-.15625.125-.019531.253906.023437.390625.125.28125.230469.4375.386719.46875.46875.050781.15625-.027344.210937-.234375.15625-.523437-.132813-1.1875-.203125-2-.203125-.492187 0-1.074219.027344-1.75.078125v1.6875c.070313.261719.109375.625.109375 1.09375 0 1.648437-.71875 2.832031-2.15625 3.5625-.125.03125-.152344-.007813-.078125-.109375.3125-.242188.585937-.492188.828125-.75.570312-.65625.875-1.4375.90625-2.34375-.21875.3125-.496094.46875-.828125.46875-.292969 0-.554687-.117188-.78125-.359375-.1875-.175781-.28125-.445313-.28125-.8125 0-.363281.128906-.675781.390625-.9375.207031-.207031.46875-.3125.78125-.3125.238281 0 .453125.054687.640625.15625 0-.414063 0-.847656 0-1.296875-1.386719.210938-2.417969.417969-3.09375.625-.261719.085938-.445313.152344-.546875.203125-.15625.074219-.304688.058594-.4375-.046875-.28125-.207031-.492188-.507812-.625-.90625 0-.125.050781-.132812.15625-.03125.132812.230469.382812.34375.75.34375.363281 0 .921875-.0625 1.671875-.1875.601563-.101562 1.3125-.195312 2.125-.28125 0-.332031 0-.679688 0-1.046875 0-.601563-.265625-.929687-.796875-.984375-.105469-.050781-.105469-.101562 0-.15625.445312-.050781.800781.015625 1.0625.203125.132812.074219.253906.1875.359375.34375.101563.136719.085937.230469-.046875.28125zm-1.21875 2.96875c-.28125 0-.492188.105469-.625.3125-.125.1875-.1875.414063-.1875.671875 0 .417969.101562.714844.3125.890625.070312.085937.203125.125.390625.125.175781 0 .316406-.050781.421875-.15625.238281-.238281.359375-.566406.359375-.984375 0-.570312-.226563-.859375-.671875-.859375zm0 0"/></g><g id="K"><path d="m1.640625-2.03125c0-.207031.101563-.40625.3125-.59375.1875-.15625 1.414063-1.484375 3.6875-3.984375.070313-.050781.046875-.09375-.078125-.125-.636719.105469-1.265625.261719-1.890625.46875-.179687.105469-.320313.15625-.421875.15625-.054688 0-.183594-.078125-.390625-.234375-.261719-.207031-.40625-.441406-.4375-.703125 0-.125.050781-.132813.15625-.03125.15625.230469.414063.34375.78125.34375.34375 0 .550781-.007813.625-.03125.519531-.082031 1.03125-.175781 1.53125-.28125.257813-.050781.457031-.128906.59375-.234375.050781-.070312.113281-.109375.1875-.109375.132813 0 .28125.0625.4375.1875.125.105469.1875.199219.1875.28125 0 .054687-.117187.117187-.34375.1875-.292969.136719-1.195313 1-2.703125 2.59375-.085938.125-.046875.152344.109375.078125.550781-.207031 1.113281-.3125 1.6875-.3125.863281 0 1.554687.261719 2.078125.78125.363281.367188.546875.84375.546875 1.4375 0 .710938-.210937 1.273438-.625 1.6875-.625.621094-1.511719.9375-2.65625.9375-.742187 0-1.25-.140625-1.53125-.421875-.242187-.238281-.359375-.476563-.359375-.71875 0-.207031.078125-.390625.234375-.546875.1875-.175781.460937-.265625.828125-.265625.4375 0 .84375.183594 1.21875.546875.226562.230469.382812.558594.46875.984375.488281-.1132812.914062-.351563 1.28125-.71875.394531-.382813.59375-.851563.59375-1.40625 0-.59375-.183594-1.070313-.546875-1.4375-.417969-.414063-1.007813-.625-1.765625-.625-.835938 0-1.683594.429687-2.546875 1.28125-.335937.34375-.605469.683594-.8125 1.015625-.054687.105469-.148437.15625-.28125.15625-.105469 0-.15625-.113281-.15625-.34375zm3.609375 2.1875c-.03125-.46875-.167969-.820312-.40625-1.0625-.210938-.207031-.453125-.3125-.734375-.3125-.46875 0-.703125.183594-.703125.546875 0 .15625.078125.3125.234375.46875.226563.2382812.765625.359375 1.609375.359375zm0 0"/></g><g id="L"><path d="m2.5-1.140625c.238281.242187.359375.542969.359375.90625s-.121094.664063-.359375.90625c-.230469.226563-.527344.34375-.890625.34375-.367187 0-.667969-.117187-.90625-.34375-.230469-.242187-.34375-.542969-.34375-.90625s.113281-.664063.34375-.90625c.238281-.226563.539063-.34375.90625-.34375.363281 0 .660156.117187.890625.34375zm-.1875 1.609375c.175781-.179688.265625-.4140625.265625-.703125 0-.289063-.089844-.523437-.265625-.703125-.1875-.1875-.421875-.28125-.703125-.28125-.292969 0-.527344.09375-.703125.28125-.1875.179688-.28125.414062-.28125.703125 0 .2890625.09375.523437.28125.703125.175781.1875.410156.28125.703125.28125.28125 0 .515625-.09375.703125-.28125zm0 0"/></g><g id="M"><path d="m1.6875-.234375c-.136719.125-.28125.1875-.4375.1875s-.296875-.0625-.421875-.1875c-.105469-.101563-.15625-.234375-.15625-.390625s.050781-.285156.15625-.390625c.125-.132813.265625-.203125.421875-.203125s.300781.070312.4375.203125c.101562.105469.15625.234375.15625.390625s-.054688.289062-.15625.390625zm0 0"/></g><g id="N"><path d="m1.171875-3.5625c.5-.539062 1.007813-.8125 1.53125-.8125.382813 0 .734375.15625 1.046875.46875.414062.417969.625.949219.625 1.59375 0 .65625-.21875 1.195312-.65625 1.609375-.367188.367187-.851562.546875-1.453125.546875-.492187 0-.890625-.144531-1.203125-.4375-.3125-.28125-.46875-.601562-.46875-.96875 0-.1875.050781-.332031.15625-.4375.101562-.101562.21875-.15625.34375-.15625.101562 0 .195312.042969.28125.125.070312.074219.109375.179688.109375.3125 0 .15625-.039063.273438-.109375.34375-.085938.105469-.125.210938-.125.3125 0 .136719.066406.265625.203125.390625.175781.15625.460937.234375.859375.234375.382812 0 .695312-.113281.9375-.34375.3125-.289062.46875-.773438.46875-1.453125 0-.644531-.15625-1.125-.46875-1.4375-.210938-.207031-.460938-.3125-.75-.3125-.4375 0-.867188.289063-1.28125.859375l-.359375-.046875.203125-3.671875h3.203125l-.125.578125h-2.8125zm0 0"/></g><g id="O"><path d="m2.734375-4.03125c-.59375 0-1.101563.484375-1.515625 1.453125 0 .9375.207031 1.5625.625 1.875.226562.179687.515625.265625.859375.265625.28125 0 .515625-.085938.703125-.265625.28125-.257813.421875-.847656.421875-1.765625 0-.570312-.132813-.988281-.390625-1.25-.210938-.207031-.445312-.3125-.703125-.3125zm-1.515625.859375c.4375-.832031.984375-1.25 1.640625-1.25.382813 0 .722656.148437 1.015625.4375.414062.386719.625.890625.625 1.515625 0 .8125-.210938 1.414062-.625 1.796875-.34375.34375-.75.515625-1.21875.515625-.574219 0-1.027344-.171875-1.359375-.515625-.554687-.519531-.828125-1.363281-.828125-2.53125 0-1.519531.351562-2.566406 1.0625-3.140625.414062-.332031.910156-.5 1.484375-.5.332031 0 .617187.105469.859375.3125.175781.179688.265625.359375.265625.546875 0 .3125-.140625.46875-.421875.46875-.261719 0-.390625-.128906-.390625-.390625 0-.101562.007813-.207031.03125-.3125 0-.132812-.027344-.210938-.078125-.234375-.074219-.082031-.203125-.125-.390625-.125-.367187 0-.6875.121094-.96875.359375-.46875.367188-.703125 1.382812-.703125 3.046875zm0 0"/></g><g id="P"><path d="m8.015625-2.859375h-6.03125v-.71875h6.03125zm0 0"/></g></defs><use x="110.1" xlink:href="#a" y="70.7312"/><use x="130.138998" xlink:href="#b" y="70.7312"/><use x="140.157996" xlink:href="#c" y="70.7312"/><use x="150.117876" xlink:href="#d" y="70.7312"/><use x="165.145872" xlink:href="#e" y="70.7312"/><use x="170.15487" xlink:href="#f" y="70.7312"/><use x="180.173868" xlink:href="#g" y="70.7312"/><use x="185.182866" xlink:href="#f" y="70.7312"/><use x="195.142746" xlink:href="#h" y="70.7312"/><use x="200.151744" xlink:href="#i" y="70.7312"/><use x="210.16974" xlink:href="#j" y="70.7312"/><use x="220.188738" xlink:href="#k" y="70.7312"/><use x="230.148618" xlink:href="#l" y="70.7312"/><use x="240.167616" xlink:href="#k" y="70.7312"/><use x="250.186614" xlink:href="#m" y="70.7312"/><use x="260.205612" xlink:href="#n" y="70.7312"/><use x="270.165492" xlink:href="#o" y="70.7312"/><use x="280.18449" xlink:href="#p" y="70.7312"/><use x="290.14437" xlink:href="#q" y="70.7312"/><use x="300.163368" xlink:href="#r" y="70.7312"/><use x="310.182366" xlink:href="#b" y="70.7312"/><use x="320.142246" xlink:href="#s" y="70.7312"/><use x="332.622156" xlink:href="#g" y="70.7312"/><use x="340.182246" xlink:href="#t" y="70.7312"/><use x="350.142126" xlink:href="#u" y="70.7312"/><use x="95.10006" xlink:href="#v" y="82.73516"/><use x="105.12006" xlink:href="#w" y="82.73516"/><use x="115.14006" xlink:href="#p" y="82.73516"/><use x="125.09994" xlink:href="#q" y="82.73516"/><use x="135.11994" xlink:href="#r" y="82.73516"/><use x="145.07982" xlink:href="#b" y="82.73516"/><use x="155.09982" xlink:href="#x" y="82.73516"/><use x="165.11982" xlink:href="#y" y="82.73516"/><use x="175.13982" xlink:href="#d" y="82.73516"/><use x="185.0997" xlink:href="#z" y="82.73516"/><use x="195.1197" xlink:href="#A" y="82.73516"/><use x="205.07958" xlink:href="#B" y="82.73516"/><use x="215.09958" xlink:href="#A" y="82.73516"/><use x="225.11958" xlink:href="#C" y="82.73516"/><use x="235.13958" xlink:href="#D" y="82.73516"/><use x="245.09946" xlink:href="#E" y="82.73516"/><use x="255.11946" xlink:href="#F" y="82.73516"/><use x="265.07934" xlink:href="#G" y="82.73516"/><use x="275.09934" xlink:href="#H" y="82.73516"/><use x="285.11934" xlink:href="#I" y="82.73516"/><use x="295.13934" xlink:href="#J" y="82.73516"/><use x="305.09922" xlink:href="#K" y="82.73516"/><use x="315.11922" xlink:href="#L" y="82.73516"/><use x="110.1" xlink:href="#a" y="112.7312"/><use x="130.137996" xlink:href="#b" y="112.7312"/><use x="140.155992" xlink:href="#c" y="112.7312"/><use x="150.115872" xlink:href="#d" y="112.7312"/><use x="165.141864" xlink:href="#e" y="112.7312"/><use x="170.14986" xlink:href="#M" y="112.7312"/><use x="180.165852" xlink:href="#g" y="112.7312"/><use x="185.173848" xlink:href="#h" y="112.7312"/><use x="190.181844" xlink:href="#f" y="112.7312"/><use x="200.141724" xlink:href="#h" y="112.7312"/><use x="205.181784" xlink:href="#h" y="112.7312"/><use x="215.197776" xlink:href="#j" y="112.7312"/><use x="225.157656" xlink:href="#k" y="112.7312"/><use x="235.175652" xlink:href="#l" y="112.7312"/><use x="245.193648" xlink:href="#k" y="112.7312"/><use x="255.211644" xlink:href="#m" y="112.7312"/><use x="265.171524" xlink:href="#n" y="112.7312"/><use x="275.18952" xlink:href="#o" y="112.7312"/><use x="285.1494" xlink:href="#p" y="112.7312"/><use x="295.167396" xlink:href="#q" y="112.7312"/><use x="305.185392" xlink:href="#r" y="112.7312"/><use x="315.203388" xlink:href="#b" y="112.7312"/><use x="325.163268" xlink:href="#s" y="112.7312"/><use x="337.643178" xlink:href="#h" y="112.7312"/><use x="345.143148" xlink:href="#t" y="112.7312"/><use x="355.161144" xlink:href="#u" y="112.7312"/><use x="95.10006" xlink:href="#v" y="124.73516"/><use x="105.12006" xlink:href="#w" y="124.73516"/><use x="115.14006" xlink:href="#p" y="124.73516"/><use x="125.09994" xlink:href="#q" y="124.73516"/><use x="135.11994" xlink:href="#r" y="124.73516"/><use x="145.07982" xlink:href="#b" y="124.73516"/><use x="155.09982" xlink:href="#x" y="124.73516"/><use x="165.11982" xlink:href="#y" y="124.73516"/><use x="175.13982" xlink:href="#d" y="124.73516"/><use x="185.0997" xlink:href="#z" y="124.73516"/><path d="m3.359375-3.71875c.289063-.28125.59375-.488281.90625-.625.3125-.125.625-.1875.9375-.1875.675781 0 1.210937.210938 1.609375.625.414062.4375.625.96875.625 1.59375s-.210938 1.148438-.625 1.5625c-.417969.449219-1.046875.671875-1.890625.671875-.648437 0-1.179687-.15625-1.59375-.46875-.398437-.289063-.59375-.628906-.59375-1.015625 0-.238281.050781-.410156.15625-.515625.101563-.101563.25-.15625.4375-.15625.15625 0 .269531.042969.34375.125.101563.105469.15625.21875.15625.34375 0 .105469-.039063.210937-.109375.3125-.054688.105469-.078125.234375-.078125.390625 0 .210938.113281.382812.34375.515625.257813.125.5625.1875.90625.1875.550781 0 .984375-.179687 1.296875-.546875.3125-.332031.46875-.800781.46875-1.40625 0-.59375-.15625-1.046875-.46875-1.359375s-.703125-.46875-1.171875-.46875c-.273437 0-.546875.054687-.828125.15625-.261719.105469-.539062.3125-.828125.625l-.3125-.125.28125-3.359375h3.828125l-.15625.625h-3.40625zm0 0" transform="translate(195.1197 124.73516)"/><use x="205.07958" xlink:href="#B" y="124.73516"/><use x="215.09958" xlink:href="#A" y="124.73516"/><use x="225.11958" xlink:href="#C" y="124.73516"/><use x="235.13958" xlink:href="#D" y="124.73516"/><use x="245.09946" xlink:href="#E" y="124.73516"/><use x="255.11946" xlink:href="#F" y="124.73516"/><use x="265.07934" xlink:href="#G" y="124.73516"/><use x="275.09934" xlink:href="#H" y="124.73516"/><use x="285.11934" xlink:href="#I" y="124.73516"/><use x="295.13934" xlink:href="#J" y="124.73516"/><use x="305.09922" xlink:href="#K" y="124.73516"/><use x="315.11922" xlink:href="#L" y="124.73516"/><use x="110.1" xlink:href="#a" y="154.7312"/><use x="130.137996" xlink:href="#b" y="154.7312"/><use x="140.155992" xlink:href="#c" y="154.7312"/><use x="150.115872" xlink:href="#d" y="154.7312"/><use x="165.141864" xlink:href="#N" y="154.7312"/><use x="170.14986" xlink:href="#M" y="154.7312"/><use x="180.165852" xlink:href="#g" y="154.7312"/><use x="185.173848" xlink:href="#g" y="154.7312"/><use x="190.181844" xlink:href="#f" y="154.7312"/><use x="200.141724" xlink:href="#g" y="154.7312"/><use x="205.181784" xlink:href="#O" y="154.7312"/><use x="215.197776" xlink:href="#j" y="154.7312"/><use x="225.157656" xlink:href="#k" y="154.7312"/><use x="235.175652" xlink:href="#l" y="154.7312"/><use x="245.193648" xlink:href="#k" y="154.7312"/><use x="255.211644" xlink:href="#m" y="154.7312"/><use x="265.171524" xlink:href="#n" y="154.7312"/><use x="275.18952" xlink:href="#o" y="154.7312"/><use x="285.1494" xlink:href="#p" y="154.7312"/><use x="295.167396" xlink:href="#q" y="154.7312"/><use x="305.185392" xlink:href="#r" y="154.7312"/><use x="315.203388" xlink:href="#b" y="154.7312"/><use x="325.163268" xlink:href="#s" y="154.7312"/><use x="337.643178" xlink:href="#g" y="154.7312"/><use x="345.143148" xlink:href="#t" y="154.7312"/><use x="355.161144" xlink:href="#u" y="154.7312"/><use x="95.10006" xlink:href="#v" y="166.73516"/><use x="105.12006" xlink:href="#w" y="166.73516"/><use x="115.14006" xlink:href="#p" y="166.73516"/><use x="125.09994" xlink:href="#q" y="166.73516"/><use x="135.11994" xlink:href="#r" y="166.73516"/><use x="145.07982" xlink:href="#b" y="166.73516"/><use x="155.09982" xlink:href="#x" y="166.73516"/><use x="165.11982" xlink:href="#y" y="166.73516"/><use x="175.13982" xlink:href="#d" y="166.73516"/><use x="185.0997" xlink:href="#z" y="166.73516"/><path d="m3.953125-3.484375c-.367187.417969-.546875.824219-.546875 1.21875 0 .625.15625 1.09375.46875 1.40625.332031.335937.722656.5 1.171875.5.445313 0 .8125-.164063 1.09375-.5.289063-.34375.4375-.835937.4375-1.484375 0-.601562-.121094-1.046875-.359375-1.328125-.230469-.289063-.570312-.4375-1.015625-.4375-.46875 0-.886719.210937-1.25.625zm.109375-.625c.34375-.28125.773438-.421875 1.296875-.421875.625 0 1.109375.183594 1.453125.546875.332031.386719.5.933594.5 1.640625 0 .648438-.210938 1.179688-.625 1.59375-.417969.449219-.976562.671875-1.671875.671875-.792969 0-1.398437-.285156-1.8125-.859375-.386719-.550781-.578125-1.375-.578125-2.46875 0-1.125.242188-1.984375.734375-2.578125.519531-.625 1.175781-.9375 1.96875-.9375.539063 0 .941406.089844 1.203125.265625.289062.210938.4375.445312.4375.703125 0 .136719-.042969.242187-.125.3125-.054688.105469-.15625.15625-.3125.15625-.210938 0-.351562-.085937-.421875-.265625-.054687-.132812-.09375-.304688-.125-.515625 0-.125-.0625-.226563-.1875-.3125-.105469-.050781-.3125-.078125-.625-.078125-.480469 0-.902344.277344-1.265625.828125-.335938.523437-.515625 1.449219-.546875 2.78125.132813-.414063.367187-.769531.703125-1.0625zm0 0" transform="translate(195.1197 166.73516)"/><use x="205.07958" xlink:href="#B" y="166.73516"/><use x="215.09958" xlink:href="#A" y="166.73516"/><use x="225.11958" xlink:href="#C" y="166.73516"/><use x="235.13958" xlink:href="#D" y="166.73516"/><use x="245.09946" xlink:href="#E" y="166.73516"/><use x="255.11946" xlink:href="#F" y="166.73516"/><use x="265.07934" xlink:href="#G" y="166.73516"/><use x="275.09934" xlink:href="#H" y="166.73516"/><use x="285.11934" xlink:href="#I" y="166.73516"/><use x="295.13934" xlink:href="#J" y="166.73516"/><use x="305.09922" xlink:href="#K" y="166.73516"/><use x="315.11922" xlink:href="#L" y="166.73516"/><use x="110.1" xlink:href="#a" y="196.7312"/><use x="130.137996" xlink:href="#b" y="196.7312"/><use x="140.155992" xlink:href="#c" y="196.7312"/><use x="150.115872" xlink:href="#d" y="196.7312"/><use x="165.141864" xlink:href="#O" y="196.7312"/><use x="170.14986" xlink:href="#M" y="196.7312"/><use x="180.165852" xlink:href="#g" y="196.7312"/><use x="185.173848" xlink:href="#g" y="196.7312"/><use x="190.181844" xlink:href="#f" y="196.7312"/><use x="200.141724" xlink:href="#h" y="196.7312"/><path d="m3.75-3.515625c0-1.414063-.21875-2.34375-.65625-2.78125-.1875-.15625-.386719-.234375-.59375-.234375-.210938 0-.402344.078125-.578125.234375-.46875.46875-.703125 1.398437-.703125 2.78125 0 1.40625.234375 2.34375.703125 2.8125.175781.15625.367187.234375.578125.234375.207031 0 .40625-.078125.59375-.234375.4375-.445313.65625-1.382813.65625-2.8125zm.75 0c0 .625-.121094 1.25-.359375 1.875-.179687.46875-.386719.808594-.625 1.015625-.3125.3125-.652344.46875-1.015625.46875-.367188 0-.703125-.15625-1.015625-.46875-.261719-.238281-.480469-.578125-.65625-1.015625-.242187-.601563-.359375-1.226563-.359375-1.875 0-.65625.117188-1.269531.359375-1.84375.175781-.445313.394531-.800781.65625-1.0625.3125-.28125.648437-.421875 1.015625-.421875.363281 0 .703125.140625 1.015625.421875.257813.261719.46875.617187.625 1.0625.238281.65625.359375 1.273437.359375 1.84375zm0 0" transform="translate(205.181784 196.7312)"/><use x="215.197776" xlink:href="#j" y="196.7312"/><use x="225.157656" xlink:href="#k" y="196.7312"/><use x="235.175652" xlink:href="#l" y="196.7312"/><use x="245.193648" xlink:href="#k" y="196.7312"/><use x="255.211644" xlink:href="#m" y="196.7312"/><use x="265.171524" xlink:href="#n" y="196.7312"/><use x="275.18952" xlink:href="#o" y="196.7312"/><use x="285.1494" xlink:href="#p" y="196.7312"/><use x="295.167396" xlink:href="#q" y="196.7312"/><use x="305.185392" xlink:href="#r" y="196.7312"/><use x="315.203388" xlink:href="#b" y="196.7312"/><use x="325.163268" xlink:href="#s" y="196.7312"/><use x="337.643178" xlink:href="#g" y="196.7312"/><use x="345.143148" xlink:href="#t" y="196.7312"/><use x="355.161144" xlink:href="#u" y="196.7312"/><use x="95.10006" xlink:href="#v" y="208.73516"/><use x="105.12006" xlink:href="#w" y="208.73516"/><use x="115.14006" xlink:href="#p" y="208.73516"/><use x="125.09994" xlink:href="#q" y="208.73516"/><use x="135.11994" xlink:href="#r" y="208.73516"/><use x="145.07982" xlink:href="#b" y="208.73516"/><use x="155.09982" xlink:href="#x" y="208.73516"/><use x="165.11982" xlink:href="#y" y="208.73516"/><use x="175.13982" xlink:href="#d" y="208.73516"/><use x="185.0997" xlink:href="#z" y="208.73516"/><path d="m5.09375-.90625v.203125c0 .261719-.042969.429687-.125.5-.085938.085937-.1875.125-.3125.125-.15625 0-.289062-.050781-.390625-.15625-.085937-.082031-.125-.253906-.125-.515625 0-.363281.066406-.753906.203125-1.171875.101562-.3125.3125-.78125.625-1.40625.363281-.625.726562-1.222656 1.09375-1.796875.3125-.5.585938-.878906.828125-1.140625h-2.4375c-.4375 0-.75.105469-.9375.3125-.179687.242187-.34375.527344-.5.859375l-.203125-.03125.515625-1.71875h4.1875v.3125c-.3125.3125-.574219.625-.78125.9375-.242187.335938-.515625.820312-.828125 1.453125-.28125.542969-.492188 1.074219-.625 1.59375-.125.5-.1875.96875-.1875 1.40625zm0 0" transform="translate(195.1197 208.73516)"/><use x="205.07958" xlink:href="#B" y="208.73516"/><use x="215.09958" xlink:href="#A" y="208.73516"/><use x="225.11958" xlink:href="#C" y="208.73516"/><use x="235.13958" xlink:href="#D" y="208.73516"/><use x="245.09946" xlink:href="#E" y="208.73516"/><use x="255.11946" xlink:href="#F" y="208.73516"/><use x="265.07934" xlink:href="#G" y="208.73516"/><use x="275.09934" xlink:href="#H" y="208.73516"/><use x="285.11934" xlink:href="#I" y="208.73516"/><use x="295.13934" xlink:href="#J" y="208.73516"/><use x="305.09922" xlink:href="#K" y="208.73516"/><use x="315.11922" xlink:href="#L" y="208.73516"/><use x="110.1" xlink:href="#a" y="238.7312"/><use x="130.137996" xlink:href="#b" y="238.7312"/><use x="140.155992" xlink:href="#c" y="238.7312"/><use x="150.115872" xlink:href="#d" y="238.7312"/><use x="165.141864" xlink:href="#i" y="238.7312"/><use x="170.14986" xlink:href="#M" y="238.7312"/><use x="180.165852" xlink:href="#g" y="238.7312"/><use x="185.173848" xlink:href="#h" y="238.7312"/><use x="190.181844" xlink:href="#f" y="238.7312"/><use x="200.141724" xlink:href="#h" y="238.7312"/><use x="205.181784" xlink:href="#N" y="238.7312"/><use x="215.197776" xlink:href="#j" y="238.7312"/><use x="225.157656" xlink:href="#k" y="238.7312"/><use x="235.175652" xlink:href="#l" y="238.7312"/><use x="245.193648" xlink:href="#k" y="238.7312"/><use x="255.211644" xlink:href="#m" y="238.7312"/><use x="265.171524" xlink:href="#n" y="238.7312"/><use x="275.18952" xlink:href="#o" y="238.7312"/><use x="285.1494" xlink:href="#p" y="238.7312"/><use x="295.167396" xlink:href="#q" y="238.7312"/><use x="305.185392" xlink:href="#r" y="238.7312"/><use x="315.203388" xlink:href="#b" y="238.7312"/><use x="325.163268" xlink:href="#s" y="238.7312"/><use x="337.643178" xlink:href="#h" y="238.7312"/><use x="345.143148" xlink:href="#t" y="238.7312"/><use x="355.161144" xlink:href="#u" y="238.7312"/><use x="95.10006" xlink:href="#v" y="250.73516"/><use x="105.12006" xlink:href="#w" y="250.73516"/><use x="115.14006" xlink:href="#p" y="250.73516"/><use x="125.09994" xlink:href="#q" y="250.73516"/><use x="135.11994" xlink:href="#r" y="250.73516"/><use x="145.07982" xlink:href="#b" y="250.73516"/><use x="155.09982" xlink:href="#x" y="250.73516"/><use x="165.11982" xlink:href="#y" y="250.73516"/><use x="175.13982" xlink:href="#d" y="250.73516"/><use x="185.0997" xlink:href="#z" y="250.73516"/><path d="m3.828125-6.34375c-.261719.242188-.390625.527344-.390625.859375 0 .3125.171875.589844.515625.828125.332031.242188.789063.476562 1.375.703125.414063-.15625.726563-.363281.9375-.625.207031-.226563.3125-.488281.3125-.78125 0-.363281-.132813-.675781-.390625-.9375-.242188-.257813-.632812-.390625-1.171875-.390625-.53125 0-.929687.117188-1.1875.34375zm2.4375 3.6875c-.292969-.289062-.820313-.566406-1.578125-.828125-.542969.242187-.917969.492187-1.125.75-.210938.261719-.3125.523437-.3125.78125 0 .492187.140625.882813.421875 1.171875.3125.28125.757813.421875 1.34375.421875.519531 0 .9375-.128906 1.25-.390625.3125-.257812.46875-.554688.46875-.890625 0-.394531-.15625-.734375-.46875-1.015625zm-3.0625-1.765625c-.28125-.28125-.421875-.582031-.421875-.90625 0-.488281.191406-.878906.578125-1.171875.414063-.28125.96875-.421875 1.65625-.421875.726563 0 1.273437.140625 1.640625.421875.382812.292969.578125.65625.578125 1.09375 0 .398438-.167969.742188-.5 1.03125-.367187.3125-.71875.523438-1.0625.625.625.261719 1.066406.546875 1.328125.859375.257812.335937.390625.65625.390625.96875 0 .5-.183594.933594-.546875 1.296875-.367188.367188-.976562.546875-1.828125.546875-.761719 0-1.367187-.171875-1.8125-.515625-.417969-.3125-.625-.726562-.625-1.25 0-.4375.179687-.8125.546875-1.125.363281-.3125.769531-.535156 1.21875-.671875-.46875-.207031-.851562-.46875-1.140625-.78125zm0 0" transform="translate(195.1197 250.73516)"/><use x="205.07958" xlink:href="#B" y="250.73516"/><use x="215.09958" xlink:href="#A" y="250.73516"/><use x="225.11958" xlink:href="#C" y="250.73516"/><use x="235.13958" xlink:href="#D" y="250.73516"/><use x="245.09946" xlink:href="#E" y="250.73516"/><use x="255.11946" xlink:href="#F" y="250.73516"/><use x="265.07934" xlink:href="#G" y="250.73516"/><use x="275.09934" xlink:href="#H" y="250.73516"/><use x="285.11934" xlink:href="#I" y="250.73516"/><use x="295.13934" xlink:href="#J" y="250.73516"/><use x="305.09922" xlink:href="#K" y="250.73516"/><use x="315.11922" xlink:href="#L" y="250.73516"/><use x="276.488983" xlink:href="#P" y="817.044996"/><path d="m3.390625-6.765625v6.09375c0 .085937.03125.152344.09375.203125.101563.074219.222656.109375.359375.109375h.9375v.359375h-3.5v-.359375h.796875c.175781 0 .300781-.039063.375-.125.082031-.082031.125-.191406.125-.328125v-4.59375c0-.09375-.039063-.171875-.109375-.234375-.074219-.070313-.167969-.109375-.28125-.109375h-1.09375v-.328125c.507812-.070313.921875-.160156 1.234375-.265625.320313-.113281.601563-.253906.84375-.421875zm0 0" transform="translate(289.268983 817.044996)"/><path d="m1.109375-6.890625c.320313.085937.664063.125 1.03125.125h3.046875v.21875c-.449219.78125-.789062 1.445313-1.015625 1.984375-.21875.542969-.386719 1.0625-.5 1.5625-.117187.492188-.1875 1.0625-.21875 1.71875-.03125.554688-.0625.890625-.09375 1.015625s-.09375.2265625-.1875.296875c-.085937.070312-.199219.109375-.34375.109375-.15625 0-.28125-.0585938-.375-.171875-.09375-.113281-.140625-.285156-.140625-.515625 0-.21875.035156-.484375.109375-.796875.082031-.320312.253906-.796875.515625-1.421875.351562-.84375.660156-1.507813.921875-2l.671875-1.234375h-2.640625c-.199219 0-.34375.070312-.4375.203125-.09375.136719-.210937.542969-.34375 1.21875h-.359375zm0 0" transform="translate(294.828983 817.044996)"/><path d="m1.5625-1.0625c-.148438.1875.597656.28125 2.234375.28125.238281 0 .410156-.0625.515625-.1875.101562-.125.222656-.476562.359375-1.0625h.328125l-.15625 2.03125h-4.375v-.265625l1.421875-1.609375c.789063-.863281 1.265625-1.40625 1.421875-1.625.226562-.3125.394531-.613281.5-.90625.101562-.300781.15625-.570312.15625-.8125 0-.40625-.109375-.722656-.328125-.953125-.21875-.226563-.527344-.34375-.921875-.34375-.449219 0-.8125.109375-1.09375.328125-.273438.210938-.40625.433594-.40625.671875 0 .085937.019531.148437.0625.1875.03125.042969.113281.078125.25.109375.320312.074219.484375.265625.484375.578125 0 .167969-.058594.308594-.171875.421875-.105469.105469-.242188.15625-.40625.15625-.199219 0-.375-.09375-.53125-.28125-.148438-.1875-.21875-.425781-.21875-.71875 0-.332031.082031-.632812.25-.90625.175781-.269531.4375-.492188.78125-.671875.34375-.175781.710938-.265625 1.109375-.265625.394531 0 .757813.089844 1.09375.265625.332031.167969.582031.390625.75.671875.175781.273438.265625.570312.265625.890625 0 .230469-.042969.460937-.125.6875-.085938.230469-.210938.445313-.375.640625-.28125.355469-.570312.652344-.859375.890625l-1.296875 1.09375c-.324219.273437-.5625.507813-.71875.703125zm0 0" transform="translate(300.388983 817.044996)"/><use x="308.730983" xlink:href="#P" y="817.044996"/></svg>